<svg width="207" height="188" viewBox="0 0 207 188" fill="none" xmlns="http://www.w3.org/2000/svg">
<path opacity="0.5" d="M121.249 118.36C120.393 118.229 119.537 117.966 118.878 117.571C116.837 116.386 116.837 114.477 118.878 113.292C120.92 112.107 124.279 112.107 126.321 113.292C126.979 113.687 127.44 114.148 127.704 114.674L141.93 106.447L111.568 88.9381C108.999 87.49 104.916 87.49 102.347 88.9381L71.9857 106.447L85.9481 114.477C85.4213 114.609 84.8944 114.806 84.4333 115.069C82.3917 116.254 82.3917 118.163 84.4333 119.348C86.475 120.533 89.8339 120.533 91.8756 119.348C92.3366 119.085 92.6659 118.821 92.9294 118.492L106.892 126.522L121.249 118.36Z" fill="#D4ECFF"/>
<path opacity="0.5" d="M189.152 136.856L158.79 119.348L144.564 127.575C144.367 127.049 143.906 126.588 143.181 126.193C141.139 125.008 137.78 125.008 135.739 126.193C133.697 127.378 133.697 129.287 135.739 130.472C136.397 130.866 137.254 131.13 138.11 131.261L123.884 139.489L138.571 147.98C138.637 147.256 139.164 146.598 140.086 146.006C142.127 144.821 145.486 144.821 147.528 146.006C149.57 147.19 149.57 149.099 147.528 150.284C146.606 150.811 145.354 151.14 144.103 151.14L158.79 159.631L189.152 142.122C191.72 140.674 191.72 138.304 189.152 136.856Z" fill="#D4ECFF"/>
<path opacity="0.5" d="M77.9131 149.033C77.2545 148.639 76.3983 148.375 75.5422 148.244L89.7681 140.016L75.8715 131.986C75.608 132.315 75.2787 132.578 74.8177 132.841C72.776 134.026 69.4171 134.026 67.3754 132.841C65.3338 131.656 65.3338 129.748 67.3754 128.563C67.8365 128.3 68.2975 128.102 68.8902 127.97L54.9278 119.94L24.566 137.449C21.9974 138.897 21.9974 141.332 24.566 142.78L54.9278 160.289L69.1537 152.061C69.4171 152.588 69.8123 153.049 70.5367 153.444C72.5784 154.628 75.9373 154.628 77.979 153.444C80.0207 152.127 80.0207 150.218 77.9131 149.033Z" fill="#D4ECFF"/>
<path opacity="0.5" d="M126.189 162.395C127.375 162.329 128.494 162.066 129.416 161.539C131.392 160.42 131.392 158.577 129.416 157.458C127.44 156.34 124.279 156.34 122.369 157.458C121.447 157.985 120.986 158.643 120.92 159.302L107.024 151.271L93.588 159.038C94.3783 159.17 95.1686 159.433 95.8272 159.762C97.8031 160.881 97.8031 162.724 95.8272 163.843C93.8514 164.962 90.6901 164.962 88.7802 163.843C88.1216 163.448 87.7264 163.053 87.5288 162.593L74.0932 170.36L102.808 186.881C105.245 188.263 109.131 188.263 111.568 186.881L140.283 170.36L126.189 162.395Z" fill="#D4ECFF"/>
<path d="M139.888 83.014L112.622 67.2826C109.526 65.5054 104.521 65.5054 101.425 67.2826L72.8419 83.8039L64.6751 80.5128V88.5431L77.9131 96.1784V101.51C77.8473 102.497 78.5059 103.485 79.7572 104.209C82.2599 105.657 86.2774 105.657 88.7801 104.209C89.307 103.88 89.768 103.55 90.0315 103.156L106.958 112.897L124.213 102.958V95.8493C126.321 95.5202 128.692 95.8493 130.338 96.8366C131.194 97.2974 131.721 97.8898 131.985 98.4822L149.24 88.5431V80.5128L139.888 83.014Z" fill="#E0AF25"/>
<path d="M122.698 95.586L122.435 95.981H122.567L107.024 104.933L90.0974 95.1253C89.7681 95.5202 89.3729 95.8493 88.846 96.1784C86.3433 97.6265 82.3258 97.6265 79.8231 96.1784C78.8352 95.586 78.2424 94.862 78.0449 94.1379C77.7814 95.2569 78.3742 96.4417 79.8231 97.2974C82.3258 98.7455 86.3433 98.7455 88.846 97.2974C89.3729 96.9683 89.8339 96.6392 90.0974 96.2442L107.024 105.986L124.279 96.0468V94.9936L122.698 95.586Z" fill="white"/>
<path d="M124.279 94.9278C123.225 94.7961 122.237 94.467 121.381 93.9405C118.878 92.4924 118.878 90.1886 121.381 88.7405C123.884 87.2925 127.901 87.2925 130.404 88.7405C131.26 89.2013 131.787 89.7937 132.051 90.3861L149.306 80.447L112.622 59.2523C109.526 57.4751 104.521 57.4751 101.425 59.2523L64.6751 80.447L81.6013 90.1886C80.9427 90.3861 80.35 90.5835 79.8231 90.9127C77.3204 92.3607 77.3204 94.6645 79.8231 96.1126C82.3258 97.5607 86.3433 97.5607 88.846 96.1126C89.3729 95.7835 89.8339 95.4544 90.0974 95.0594L107.024 104.801L124.279 94.9278Z" fill="#FFD255"/>
<path d="M81.6013 90.2543L64.6751 80.5127V81.5658L80.4158 90.6493C80.811 90.5176 81.2062 90.3202 81.6013 90.2543Z" fill="white"/>
<path d="M132.051 90.4519C131.787 89.8595 131.194 89.2671 130.404 88.8063C127.901 87.3583 123.884 87.3583 121.381 88.8063C119.866 89.662 119.274 90.8468 119.603 91.9658C119.8 91.1759 120.393 90.4519 121.381 89.9253C123.884 88.4772 127.901 88.4772 130.404 89.9253C131.26 90.3861 131.787 90.9785 132.051 91.5709L149.306 81.6318V80.5786L132.051 90.4519Z" fill="white"/>
<path d="M191.984 115.398L159.119 96.4417L141.864 106.381C141.6 105.788 141.008 105.196 140.217 104.735C139.361 104.209 138.307 103.88 137.188 103.748C136.661 103.024 134.751 100.786 134.619 100.72C134.422 100.654 129.35 99.2062 129.35 99.2062V107.236C129.35 108.224 129.943 109.145 131.194 109.869C132.051 110.33 133.039 110.659 134.092 110.857L125.399 115.859L116.837 112.765V120.796L134.619 131.064C134.685 130.208 135.344 129.353 136.463 128.694C137.846 127.905 139.625 127.575 141.403 127.641V135.013L159.185 145.281L195.935 124.087C197.516 123.165 198.306 121.981 198.241 120.796V112.897L191.984 115.398Z" fill="#009562"/>
<path d="M134.553 116.846V131.13C134.619 130.274 135.278 129.418 136.397 128.76C138.9 127.312 142.918 127.312 145.42 128.76C145.947 129.089 146.342 129.418 146.672 129.813C147.989 129.418 149.372 129.155 150.821 129.089V116.846H134.553Z" fill="#009562"/>
<path d="M159.119 96.4417L158.988 96.5075V145.216L159.119 145.281L195.87 124.087C197.45 123.165 198.241 121.981 198.175 120.796V112.897L191.984 115.398L159.119 96.4417Z" fill="#009562"/>
<path d="M141.337 129.352V126.983L143.379 128.168L141.337 129.352Z" fill="#396CAA"/>
<path d="M198.109 113.358C197.911 114.345 197.187 115.267 195.87 116.057L159.119 137.251L143.642 128.299C143.642 128.036 143.576 127.575 143.576 127.575L141.403 126.983V128.036L159.185 138.304L195.935 117.11C197.648 116.122 198.372 114.74 198.109 113.358Z" fill="white"/>
<path d="M195.87 109.606L159.119 88.4114L141.864 98.3505C141.6 97.7581 141.008 97.1657 140.217 96.7049C137.715 95.2568 133.697 95.2568 131.194 96.7049C128.692 98.153 128.692 100.457 131.194 101.905C132.051 102.366 133.039 102.695 134.092 102.892L116.837 112.831L134.619 123.1C134.685 122.244 135.344 121.388 136.463 120.73C138.966 119.282 142.983 119.282 145.486 120.73C147.989 122.178 147.989 124.482 145.486 125.93C144.367 126.588 142.852 126.917 141.403 126.983L159.185 137.251L195.935 116.057C198.965 114.279 198.965 111.383 195.87 109.606Z" fill="#00C07F"/>
<path d="M131.129 103.024C131.59 103.287 132.116 103.484 132.709 103.682L134.026 102.892C132.973 102.76 131.985 102.431 131.129 101.905C130.141 101.312 129.548 100.588 129.35 99.8643C129.087 100.983 129.68 102.168 131.129 103.024Z" fill="white"/>
<path d="M147.264 123.889C147.528 122.77 146.935 121.586 145.486 120.73C142.983 119.282 138.966 119.282 136.463 120.73C135.344 121.388 134.685 122.244 134.619 123.1L116.837 112.831V113.884L134.619 124.153C134.685 123.297 135.344 122.441 136.463 121.783C138.966 120.335 142.983 120.335 145.486 121.783C146.474 122.375 147.067 123.1 147.264 123.889Z" fill="white"/>
<path d="M97.0786 120.862V112.831L88.6484 115.991L80.1524 111.12C79.8231 111.515 79.4279 111.844 78.9011 112.173C76.3983 113.621 72.3808 113.621 69.8781 112.173C67.4413 110.791 67.3754 108.487 69.7464 107.039L71.7222 108.158V98.2188H65.5972L65.0045 102.366L54.7961 96.4417L22.3268 115.201L15.7407 112.831V120.862C15.7407 122.046 16.531 123.165 18.0458 124.087L54.7961 145.281L72.0515 135.342C72.315 135.935 72.9077 136.527 73.6981 136.988C76.2008 138.436 80.2183 138.436 82.721 136.988C84.0382 136.264 84.6309 135.277 84.5651 134.289V128.102L97.0786 120.862Z" fill="#009562"/>
<path d="M54.7961 96.4417L22.3268 115.201L15.7407 112.831V120.862C15.7407 122.046 16.531 123.165 18.0458 124.087L54.7961 145.281V96.4417Z" fill="#009562"/>
<path d="M70.2075 98.2188L70.0099 98.7453L70.0757 98.8112C70.0099 98.8112 69.944 98.877 69.8782 98.9428C68.3634 99.7985 67.7706 100.983 68.0999 102.102C68.2975 101.312 68.8902 100.588 69.8782 100.062C70.405 99.7327 71.0637 99.5352 71.6564 99.3377V98.2846L70.2075 98.2188Z" fill="white"/>
<path d="M82.721 123.758C81.9307 123.297 80.9427 122.968 79.889 122.836L97.1445 112.897L80.2183 103.155C79.889 103.55 79.4938 103.879 78.9669 104.209C76.4642 105.657 72.4467 105.657 69.944 104.209C67.4413 102.76 67.4413 100.457 69.944 99.0086C70.4709 98.6795 71.1295 98.4821 71.7223 98.2846L54.7961 88.543L18.0458 109.606C14.9504 111.383 14.9504 114.279 18.0458 116.057L54.7961 137.251L72.0516 127.312C72.315 127.904 72.9077 128.497 73.6981 128.958C76.2008 130.406 80.2183 130.406 82.721 128.958C85.1578 127.51 85.1578 125.206 82.721 123.758Z" fill="#00C07F"/>
<path d="M82.721 128.958C80.2183 130.406 76.2008 130.406 73.6981 128.958C72.9077 128.497 72.315 127.905 72.0516 127.312L54.7961 137.251L18.0458 116.057C16.7286 115.333 16.0041 114.345 15.8066 113.358C15.5431 114.674 16.2676 116.122 18.0458 117.11L54.7961 138.304L72.0516 128.365C72.315 128.958 72.9077 129.55 73.6981 130.011C76.2008 131.459 80.2183 131.459 82.721 130.011C84.2358 129.155 84.8285 127.97 84.4992 126.851C84.3016 127.641 83.7089 128.365 82.721 128.958Z" fill="white"/>
<path d="M79.8231 122.77C80.2841 122.836 80.7451 122.968 81.1403 123.1L97.0786 113.884V112.831L79.8231 122.77Z" fill="white"/>
<path d="M141.073 148.638L131.524 143.175C133.038 143.109 134.487 142.78 135.607 142.122C136.661 141.53 137.254 140.74 137.451 139.95L137.517 140.016V139.555C137.517 139.555 137.517 139.555 137.517 139.489V131.459L129.482 134.618L131.326 135.869C129.614 135.869 127.901 136.198 126.65 136.922C125.53 137.58 124.872 138.436 124.806 139.292L107.024 129.023L96.5517 135.079L95.4979 131.459L89.768 130.998V139.884L91.5463 139.423C91.9414 139.555 92.2707 139.752 92.6659 139.95C95.1686 141.398 95.1686 143.702 92.6659 145.15C90.1632 146.598 86.1457 146.598 83.643 145.15C82.8527 144.689 82.2599 144.097 81.9965 143.504L72.4467 149.033L64.741 145.479V153.509L101.491 174.704C104.587 176.481 109.592 176.481 112.688 174.704L149.438 153.509V145.479L141.073 148.638Z" fill="#C60041"/>
<path d="M92.6001 131.854C92.2049 131.656 91.7439 131.459 91.2829 131.327L91.1511 130.998L89.7681 130.932V131.986C90.8218 132.117 91.8097 132.446 92.6001 132.907C93.588 133.499 94.1807 134.223 94.3783 134.948C94.7076 133.894 94.1149 132.71 92.6001 131.854Z" fill="white"/>
<path d="M131.59 135.145C133.104 135.079 134.553 134.75 135.673 134.092C138.176 132.644 138.176 130.34 135.673 128.892C133.17 127.444 129.153 127.444 126.65 128.892C125.53 129.55 124.872 130.406 124.806 131.261L107.024 120.993L89.768 130.932C90.8218 131.064 91.8097 131.393 92.6001 131.854C95.1028 133.302 95.1028 135.606 92.6001 137.054C90.0974 138.502 86.0799 138.502 83.5771 137.054C82.7868 136.593 82.1941 136.001 81.9306 135.408L64.6751 145.347L101.425 166.542C104.521 168.319 109.526 168.319 112.622 166.542L149.372 145.347L131.59 135.145Z" fill="#F1004F"/>
<path d="M137.451 131.985C137.254 132.775 136.661 133.499 135.673 134.026C134.553 134.684 133.038 135.013 131.59 135.079L133.17 136C134.092 135.803 134.948 135.54 135.739 135.079C137.188 134.289 137.78 133.104 137.451 131.985Z" fill="white"/>
<path d="M112.622 166.542C109.526 168.319 104.521 168.319 101.425 166.542L64.6751 145.347V146.401L101.425 167.595C104.521 169.372 109.526 169.372 112.622 167.595L149.372 146.401V145.347L112.622 166.542Z" fill="white"/>
<path d="M54.9936 124.613C64.3417 124.613 71.9198 120.252 71.9198 114.872C71.9198 109.492 64.3417 105.13 54.9936 105.13C45.6456 105.13 38.0674 109.492 38.0674 114.872C38.0674 120.252 45.6456 124.613 54.9936 124.613Z" fill="#009562"/>
<path d="M46.8928 14.8225C46.8928 14.8225 47.2879 22.392 47.8148 27.5261C48.4076 32.6602 60.7235 23.5768 60.7235 23.5768V17.7845L46.8928 14.8225Z" fill="#161616"/>
<path d="M53.4788 109.343C53.6764 109.804 56.8377 113.687 60.0649 114.674C61.448 115.069 62.37 115.135 62.9628 115.069C63.5555 115.003 63.9507 114.345 63.7531 113.753C63.2262 112.239 61.6456 109.014 57.6281 107.039C52.2275 104.34 53.4788 109.343 53.4788 109.343Z" fill="#161616"/>
<path d="M52.3592 110.857C52.3592 110.857 53.5447 113.687 53.9399 116.057C54.1375 117.505 53.3471 119.348 52.7544 120.598C52.3592 121.388 51.3054 121.52 50.7127 120.927C49.6589 120.006 48.3417 118.36 48.1441 115.991C47.749 112.041 48.1441 111.317 48.1441 111.317L52.3592 110.857Z" fill="#161616"/>
<path d="M44.7194 62.8727C44.7194 62.8727 44.3242 67.8751 44.7194 73.4042C45.1146 78.9332 46.6293 104.867 46.8928 111.054C46.8928 111.054 46.7611 112.963 50.3834 112.502C54.0057 112.107 53.7423 110.001 53.7423 110.001C53.7423 110.001 58.8794 109.935 59.0112 106.907C59.1429 103.88 64.28 70.7713 64.28 58.9233L44.7194 62.8727Z" fill="#D4ECFF"/>
<path d="M66.1899 36.9387L68.6926 40.8222L77.3204 51.2879C77.3204 51.2879 76.9911 52.2752 75.9373 52.5385C75.0811 52.736 67.8365 45.8247 64.6751 42.7311C63.819 41.9412 63.6872 40.6247 64.3458 39.6374L66.1899 36.9387Z" fill="#FFC2B0"/>
<path d="M61.3163 21.0098C61.3163 21.0098 65.3338 20.8781 66.7169 26.6705C68.0999 32.4628 69.2196 39.6374 67.9682 40.2956C64.3459 42.0728 62.0408 39.9665 62.0408 39.9665L61.3163 21.0098Z" fill="#00C7F3"/>
<path d="M62.5018 21.2074C61.8432 20.9441 61.0528 20.8783 60.3284 21.0758C56.9695 22.0631 44.1266 25.8149 42.0191 27.6579C39.5823 29.7642 45.6414 41.4147 45.5756 45.2982C45.5097 49.1159 45.0487 53.6576 44.7194 57.8044C44.3901 61.9511 43.9291 64.2549 47.3538 66.0321C50.7786 67.8093 56.5743 67.8751 60.9211 64.584C65.2679 61.2929 64.4776 58.9892 64.28 56.5538C64.0824 54.1183 62.6335 43.7185 62.7652 40.7565C62.7652 40.7565 64.28 39.6375 65.4655 37.6629C66.5851 35.754 64.6093 32.1338 63.7531 29.8301C62.8969 27.5263 64.2141 24.8934 63.9507 22.9846C63.8848 21.9973 63.2262 21.5365 62.5018 21.2074Z" fill="#00C7F3"/>
<path d="M52.7544 29.106L54.2033 30.7515C54.4009 30.949 54.4668 31.2781 54.4668 31.5414L53.2154 40.4273C53.1496 40.6906 53.2154 40.9539 53.413 41.1514L56.5085 45.4298C56.6402 45.6273 56.9695 45.5614 57.0353 45.364L58.9453 39.9008C59.0112 39.7033 59.0112 39.44 58.9453 39.2425L55.9816 31.0806C55.9157 30.8832 55.9157 30.6857 55.9816 30.5541L56.5085 28.4478L52.7544 29.106Z" fill="white"/>
<path d="M58.4184 25.2224C58.6819 27.3287 56.7719 29.3033 54.0716 29.6324C51.4372 29.9615 49.0662 28.5134 48.8028 26.4071C48.5393 24.3008 50.4493 22.3262 53.1496 21.9971C55.784 21.668 58.155 23.1161 58.4184 25.2224Z" fill="white"/>
<path d="M57.0354 25.4198C57.2329 26.9337 55.8499 28.316 53.9399 28.5793C52.0299 28.8426 50.3176 27.7894 50.1858 26.2755C49.9883 24.7616 51.3713 23.3794 53.2813 23.1161C55.1913 22.8528 56.8378 23.9059 57.0354 25.4198Z" fill="#FFC2B0"/>
<path d="M55.1912 20.4174C55.1912 20.4174 52.8861 18.5085 52.4251 19.4959C51.9641 20.4832 51.5689 24.5642 51.5689 24.5642L56.1792 25.8148L55.4547 21.6022C55.4547 21.668 56.3767 20.8781 55.1912 20.4174Z" fill="#FFC2B0"/>
<path d="M62.082 17.489C63.1794 13.8709 61.1343 10.0488 57.5141 8.95199C53.8938 7.85522 50.0694 9.89915 48.972 13.5172C47.8746 17.1353 49.9198 20.9575 53.54 22.0542C57.1602 23.151 60.9846 21.1071 62.082 17.489Z" fill="#FFC2B0"/>
<path d="M52.0958 20.6805C52.0299 20.878 52.0299 21.1413 51.9641 21.3387C52.4251 23.7083 55.9816 24.7615 55.9816 24.7615L55.4547 21.602C55.4547 21.602 55.9157 21.2071 55.784 20.878C54.335 20.483 52.5568 20.0881 52.0958 20.6805Z" fill="#EA9C92"/>
<path d="M62.082 17.489C63.1794 13.8709 61.1343 10.0488 57.5141 8.95199C53.8938 7.85522 50.0694 9.89915 48.972 13.5172C47.8746 17.1353 49.9198 20.9575 53.54 22.0542C57.1602 23.151 60.9846 21.1071 62.082 17.489Z" fill="#FFC2B0"/>
<path d="M38.5944 44.5083L39.3847 62.8068L42.085 63.0701L43.7974 46.6146L38.5944 44.5083Z" fill="#FFC2B0"/>
<path d="M47.4197 42.9944C47.288 42.3362 46.1025 41.8096 45.9049 41.0198C44.9828 36.7414 44.7853 30.4883 44.7853 30.4883L44.0608 39.111C44.917 41.678 45.6414 43.9818 45.6414 45.364C45.5756 47.602 45.4439 50.1032 45.2463 52.6044C45.1804 52.5386 48.3417 46.8779 47.4197 42.9944Z" fill="#00A7CC"/>
<path d="M42.546 27.2627C42.546 27.2627 40.3726 28.0526 39.1871 34.6347C38.0016 41.2169 37.0796 47.7991 39.253 48.6548C41.4264 49.5105 43.2046 50.1687 43.8632 48.3915C44.5218 46.6143 44.917 38.1233 44.9828 35.0955C45.0487 32.0677 45.1804 27.8551 42.546 27.2627Z" fill="#00C7F3"/>
<path d="M76.7277 50.4978C76.7277 50.4978 77.9132 50.8927 78.7035 51.8142C79.3621 52.5383 79.7573 53.1965 80.0866 53.6573C80.7452 54.6446 81.3379 56.8167 80.9427 57.08C80.5476 57.3433 78.1766 53.4598 77.8473 54.3813C77.4521 55.3028 77.8473 56.0927 77.3863 56.1585C76.9252 56.2243 75.2129 52.275 73.8957 51.0902C72.5784 49.8396 76.7277 50.4978 76.7277 50.4978Z" fill="#FFC2B0"/>
<path d="M53.7423 110.067C53.7423 110.067 54.4009 110.067 55.1912 109.935L56.1792 69.6521L53.7423 110.067Z" fill="#396CAA"/>
<path d="M49.9224 88.2799L48.4734 86.4369L33.4572 77.7484C32.9962 77.4851 32.601 76.6952 32.601 76.1029V63.86L31.7448 62.741L32.5352 62.2803C32.6669 62.1486 32.8645 62.2144 33.1279 62.3461L50.12 72.0877C50.581 72.351 50.9762 73.1409 50.9762 73.7333V87.0951C50.9762 87.4242 50.8444 87.6875 50.6468 87.8191L49.9224 88.2799Z" fill="#00A7CC"/>
<path d="M39.5164 81.237L38.4626 80.6446L32.601 70.508V63.86L31.7448 62.741L32.5352 62.2803C32.6669 62.1486 32.8645 62.2144 33.1279 62.3461L50.12 72.0877C50.3834 72.2194 50.581 72.4826 50.7786 72.8118L39.5164 81.237Z" fill="#00A7CC"/>
<path d="M32.14 63.2017L31.7448 62.6751L32.5352 62.2143C32.6669 62.0827 32.8645 62.1485 33.1279 62.2802L33.4572 62.4776L32.14 63.2017Z" fill="#396CAA"/>
<path d="M50.3175 72.2192C50.7127 72.5483 50.9761 73.1407 51.042 73.6673L49.3955 74.6547L48.6052 73.2724L50.3175 72.2192Z" fill="#00A7CC"/>
<path d="M49.3296 72.5485L32.3376 62.741C31.8765 62.4777 31.4814 62.741 31.4814 63.3992V76.7611C31.4814 77.4193 31.8765 78.1434 32.3376 78.4066L49.3296 88.2141C49.7906 88.4774 50.1858 88.2141 50.1858 87.5559V74.194C50.1858 73.6016 49.7906 72.8118 49.3296 72.5485Z" fill="#D4ECFF"/>
<path d="M49.5931 72.4167L32.601 62.5434C32.3376 62.4118 32.0741 62.4118 31.8766 62.6092C32.0083 62.6092 32.14 62.6092 32.3376 62.6751L49.3296 72.4825C49.7907 72.7458 50.1858 73.5357 50.1858 74.1281V87.4899C50.1858 87.7532 50.12 87.9507 49.9882 88.0823C50.2517 88.0165 50.4493 87.7532 50.4493 87.3583V73.9964C50.4493 73.404 50.0541 72.68 49.5931 72.4167Z" fill="#00A7CC"/>
<path d="M45.839 82.1583L45.0487 81.6976V74.7205L45.839 75.1812V82.1583Z" fill="white"/>
<path d="M43.9291 81.0394L43.1387 80.5787V73.6016L43.9291 74.1281V81.0394Z" fill="white"/>
<path d="M42.0849 79.9862L41.2288 79.4596V72.5483L42.0849 73.0091V79.9862Z" fill="white"/>
<path d="M39.3847 62.6749C39.3847 62.6749 38.6602 66.9533 38.7919 68.3356C38.9236 69.7178 39.6481 71.9558 40.175 71.8899C40.7019 71.8241 40.175 66.3609 41.1629 66.9533C42.1508 67.4799 42.2167 68.4014 42.6777 68.0723C43.1387 67.7432 41.8874 63.0698 42.2167 61.0293C42.6118 59.0547 39.3847 62.6749 39.3847 62.6749Z" fill="#FFC2B0"/>
<path d="M58.1549 16.139C61.5797 17.3896 62.2383 16.5997 62.3042 16.5997C62.3042 16.4023 62.37 16.2048 62.37 15.9415C62.4359 15.1516 62.3042 14.4276 62.1724 13.7694L53.2813 12.5846C53.2154 12.5188 54.5985 14.8884 58.1549 16.139Z" fill="#EA9C92"/>
<path d="M62.5676 9.09591C61.7773 8.37187 58.8136 4.94913 53.6106 5.80481C50.3176 6.33139 47.5514 8.56933 46.9587 13.6376C46.5635 17.0604 47.8148 20.4173 50.12 22.9185C50.2517 22.8527 50.3834 22.7869 50.5151 22.721C51.8323 21.8654 51.9641 21.4046 51.9641 21.4046L52.2275 18.8375C52.2275 18.4426 51.9641 18.1135 51.5689 18.1135C51.3055 18.1135 50.9103 17.9819 50.581 17.5211C49.8565 16.5338 50.1858 15.0199 51.7006 14.9541C52.491 14.9541 52.8203 14.4933 52.8861 14.0984C52.952 13.7693 53.3471 13.5718 53.6764 13.7034C55.3888 14.2958 59.6039 15.6781 62.3042 14.8882C65.8607 13.8351 63.358 9.81995 62.5676 9.09591Z" fill="#161616"/>
<path d="M58.6818 19.2325L60.7894 18.6401C60.7894 18.6401 59.8015 20.2199 58.3525 20.6148C56.9036 21.0097 56.6402 19.7591 56.6402 19.7591L58.6818 19.2325Z" fill="white"/>
<path d="M42.9411 67.9408L41.1629 66.8877L41.8874 68.0067L42.7436 68.3358L42.9411 67.9408Z" fill="#396CAA"/>
<path d="M51.503 17.6528C51.503 18.0477 51.1737 18.3768 50.7785 18.3768C50.3834 18.3768 50.0541 18.0477 50.0541 17.6528C50.0541 17.2578 50.3834 16.9287 50.7785 16.9287C51.1737 16.9287 51.503 17.2578 51.503 17.6528Z" fill="white"/>
<path d="M158.856 122.178C168.058 122.178 175.519 117.875 175.519 112.568C175.519 107.261 168.058 102.958 158.856 102.958C149.653 102.958 142.193 107.261 142.193 112.568C142.193 117.875 149.653 122.178 158.856 122.178Z" fill="#009562"/>
<path d="M159.844 107.5C159.646 107.96 156.485 111.844 153.258 112.831C151.875 113.226 150.953 113.292 150.294 113.226C149.701 113.16 149.306 112.502 149.504 111.91C150.031 110.33 151.611 107.105 155.629 105.13C161.095 102.497 159.844 107.5 159.844 107.5Z" fill="#161616"/>
<path d="M160.898 109.014C160.898 109.014 159.712 111.844 159.317 114.214C159.119 115.662 159.91 117.505 160.502 118.755C160.898 119.545 161.951 119.677 162.61 119.084C163.664 118.163 164.981 116.517 165.178 114.148C165.574 110.133 165.178 109.474 165.178 109.474L160.898 109.014Z" fill="#161616"/>
<path d="M168.603 60.8322C168.603 60.8322 168.998 65.8347 168.603 71.4295C168.208 77.0244 166.693 103.024 166.43 109.277C166.43 109.277 166.562 111.186 162.873 110.725C159.185 110.33 159.515 108.224 159.515 108.224C159.515 108.224 154.377 108.158 154.18 105.13C154.048 102.103 148.911 68.8625 148.911 56.9487L168.603 60.8322Z" fill="#D4ECFF"/>
<path d="M159.514 108.158C159.514 108.158 158.856 108.158 158.066 108.026L157.078 67.6118L159.514 108.158Z" fill="#00A7CC"/>
<path d="M163.137 23.9058C171.435 27.3286 171.304 32.2652 171.304 32.2652C171.304 32.2652 169.657 50.3004 170.25 62.3458C170.513 67.3483 143.51 67.7432 147.528 54.3155C152.27 38.4525 150.492 25.683 152.731 23.7084C154.904 21.7995 161.029 22.9843 163.137 23.9058Z" fill="#00C7F3"/>
<path d="M165.837 28.2502C165.376 29.9616 163.203 30.8173 160.898 30.2249C158.592 29.6325 157.078 27.7895 157.539 26.0781C158 24.3667 160.173 23.511 162.478 24.1034C164.783 24.6958 166.298 26.5388 165.837 28.2502Z" fill="#FFC2B0"/>
<path d="M162.281 30.9489C161.754 30.9489 161.293 30.8831 160.766 30.7515C158.197 30.0932 156.485 27.9211 157.012 26.0123C157.275 25.025 158 24.2351 159.119 23.8402C160.173 23.4452 161.424 23.3794 162.61 23.7085C163.795 24.0376 164.915 24.6959 165.574 25.5515C166.298 26.473 166.562 27.5262 166.364 28.5135C165.969 29.9616 164.256 30.9489 162.281 30.9489ZM161.029 24.4984C160.502 24.4984 159.976 24.5642 159.449 24.7617C158.658 25.0908 158.131 25.6174 158 26.2756C157.605 27.6578 158.988 29.2376 160.963 29.7641C163.005 30.2907 164.915 29.5667 165.244 28.1186C165.442 27.4604 165.244 26.7363 164.717 26.0781C164.125 25.3541 163.269 24.8275 162.281 24.63C161.885 24.4984 161.49 24.4984 161.029 24.4984Z" fill="white"/>
<path d="M159.844 23.511C159.844 23.511 159.91 23.8401 159.778 26.473C159.712 27.3287 162.61 28.0527 163.4 27.3287C164.125 26.6046 163.861 25.8148 164.059 22.9844C164.191 20.1541 159.844 23.511 159.844 23.511Z" fill="#FFC2B0"/>
<path d="M163.993 22.9844C163.993 22.9844 163.269 25.6173 159.778 26.6046L159.844 24.235L163.993 22.9844Z" fill="#EA9C92"/>
<path d="M166.232 16.3365C167.088 19.7593 165.047 23.2478 161.622 24.1693C158.197 25.025 154.707 22.9845 153.785 19.5618C152.928 16.139 154.97 12.6505 158.395 11.729C161.82 10.8733 165.376 12.9138 166.232 16.3365Z" fill="#FFC2B0"/>
<path d="M161.49 18.1793C161.49 18.1793 157.934 19.6932 155.497 19.6932C153.06 19.6932 153.587 17.6528 153.587 17.6528L160.832 16.5996L161.49 18.1793Z" fill="#EA9C92"/>
<path d="M154.773 18.5746C154.773 18.5746 157.868 17.2581 160.568 17.7847C161.227 17.9163 161.82 18.2455 162.215 18.772C162.346 18.9037 162.544 19.1011 162.676 19.1011C163.137 19.2328 163.927 17.2581 164.849 17.1923C165.771 17.1265 166.43 17.7847 165.64 19.0353C164.849 20.2859 165.113 21.6024 165.508 21.7998C165.837 21.9973 169.591 19.167 166.298 12.6506C163.005 6.13423 154.707 9.62279 153.389 10.9392C153.389 10.9392 152.006 12.124 150.887 11.0709C150.887 11.1367 149.701 20.4834 154.773 18.5746Z" fill="#161616"/>
<path d="M148.647 22.392L144.169 20.4832C143.642 20.2857 143.247 19.825 143.049 19.2984L138.637 6.46313L136.595 6.79224L140.151 22.7211C140.349 23.4452 140.81 24.1034 141.469 24.4983L148.911 28.7109L148.647 22.392Z" fill="#FFC2B0"/>
<path d="M195.211 24.4982L196.265 24.0375C197.121 23.6426 197.911 23.116 198.636 22.3919L199.36 21.6679C199.755 21.273 199.887 20.6806 199.689 20.154C199.492 19.7591 199.031 19.5616 198.636 19.7591L196.462 20.8122C196.462 20.8122 196.792 19.8907 196.66 19.6274C196.528 19.3641 194.816 21.2071 194.091 22.5236C193.235 23.84 195.211 24.4982 195.211 24.4982Z" fill="#FFC2B0"/>
<path d="M177.363 29.6323L181.183 29.2374C182.105 29.1057 182.961 28.8424 183.751 28.3817L194.025 22.5894L195.211 24.564L184.739 32.5943C184.41 32.8576 184.081 33.055 183.685 33.1867L177.429 35.8854L177.363 29.6323Z" fill="#FFC2B0"/>
<path d="M136.595 6.85799L136.2 6.39723C135.739 5.87066 135.475 5.21244 135.344 4.55422L135.08 2.71121C135.014 2.11881 135.212 1.52641 135.673 1.1973C135.673 1.1973 135.739 1.1973 135.739 1.13148C136.266 0.802372 136.924 1.06566 137.188 1.59224L138.11 3.83018C138.11 3.83018 137.846 2.64539 138.176 2.57956C138.439 2.51374 138.966 3.896 138.637 4.68586C138.307 5.47573 138.637 6.52888 138.637 6.52888L136.595 6.85799Z" fill="#FFC2B0"/>
<path d="M157.473 22.3919L155.826 21.9312C155.826 21.9312 156.617 23.1818 157.802 23.5109C158.988 23.84 159.119 22.8527 159.119 22.8527L157.473 22.3919Z" fill="white"/>
<path d="M154.97 22.787C154.97 22.787 147.462 21.339 145.223 20.6149C142.918 19.8909 141.996 26.2098 142.127 27.7895C142.325 29.3692 150.096 31.1464 151.018 33.8451C151.94 36.6096 154.97 22.787 154.97 22.787Z" fill="#00C7F3"/>
<path d="M166.43 25.5515C166.43 25.5515 171.896 27.9211 181.051 29.0401C181.446 29.1059 181.71 29.3034 181.841 29.6983C182.171 30.6856 182.763 32.9236 182.302 35.1615C182.105 36.083 181.248 36.7412 180.326 36.7412C177.494 36.7412 171.304 37.0045 170.316 39.7032C168.998 43.1918 166.43 25.5515 166.43 25.5515Z" fill="#00C7F3"/>
<path d="M163.203 30.4881L161.688 32.1337C161.49 32.3311 161.424 32.6602 161.424 32.9235L162.478 41.8095C162.478 42.0728 162.412 42.336 162.281 42.5335L159.053 46.7461C158.922 46.9436 158.592 46.8778 158.527 46.6803L156.748 41.1513C156.682 40.9538 156.682 40.6905 156.748 40.493L159.844 32.3969C159.91 32.1995 159.91 32.002 159.91 31.8704L159.449 29.6982L163.203 30.4881Z" fill="white"/>
<path d="M179.602 35.1617C177.955 35.3592 173.938 35.6883 170.843 35.9516C169.064 36.0832 167.879 37.7946 168.34 39.5059C169.986 45.8248 167.813 55.9614 168.208 59.45C168.669 63.5309 166.166 65.1765 166.166 65.1765C168.603 64.6499 170.316 63.6626 170.25 62.412C169.92 55.0399 170.381 45.3641 170.843 39.0452C172.621 37.0705 177.89 36.8731 180.392 36.8731C181.38 36.8731 182.171 36.2148 182.368 35.2275C182.632 34.0427 182.566 32.8579 182.368 31.8706C182.368 31.8706 182.368 34.8326 179.602 35.1617Z" fill="#00A7CC"/>
<path d="M109.197 157.656C120.073 157.656 128.889 152.558 128.889 146.269C128.889 139.98 120.073 134.882 109.197 134.882C98.3212 134.882 89.5046 139.98 89.5046 146.269C89.5046 152.558 98.3212 157.656 109.197 157.656Z" fill="#C60041"/>
<path d="M97.1444 140.213C95.7614 140.806 94.9052 142.32 95.0369 143.965C95.1028 144.755 95.1686 145.479 95.3662 145.808C95.8272 146.73 97.2103 147.98 99.5154 147.059C101.821 146.137 106.892 141.398 107.089 138.304C107.419 132.512 100.767 138.699 97.1444 140.213Z" fill="#161616"/>
<path d="M110.58 149.823C110.58 149.823 110.053 153.18 110.317 153.773C110.58 154.365 112.161 155.681 114.532 155.418C116.903 155.155 123.62 152.785 125.135 148.375C127.44 141.464 112.095 148.902 112.095 148.902L110.58 149.823Z" fill="#161616"/>
<path d="M117.166 96.4418L117.693 148.573C117.627 150.416 116.442 151.93 114.861 152.193C114.663 152.259 114.466 152.259 114.202 152.259C112.556 152.39 111.634 151.732 111.107 151.008C110.646 150.416 110.448 149.692 110.382 148.902L109.724 126.654L106.431 106.776L101.821 141.991C101.755 142.912 101.294 143.834 100.569 144.294C100.042 144.623 99.3837 144.887 98.4617 144.887C97.1445 144.821 96.2224 144.163 95.6955 143.504C95.2345 142.978 95.0369 142.32 95.0369 141.596L96.881 120.401L97.5396 93.3481L117.166 96.4418Z" fill="#D4ECFF"/>
<path d="M110.448 49.7739L109.592 54.5131C109.592 54.5131 109.592 56.1587 111.37 56.5536C113.149 57.0143 113.741 55.8295 113.741 55.8295L114.532 50.498L110.448 49.7739Z" fill="#FFC2B0"/>
<path d="M120.416 47.0507C121.645 42.9787 119.706 38.7925 116.084 37.7006C112.462 36.6088 108.53 39.0247 107.301 43.0968C106.072 47.1688 108.011 51.355 111.633 52.4468C115.255 53.5387 119.187 51.1228 120.416 47.0507Z" fill="#FFC2B0"/>
<path d="M106.431 106.71L101.821 141.925C101.755 142.846 101.294 143.768 100.569 144.228C100.437 144.294 100.306 144.36 100.174 144.426C101.096 143.702 103.928 114.148 104.455 110.857C104.982 107.631 106.431 106.71 106.431 106.71Z" fill="#00A7CC"/>
<path d="M135.146 58.9232L141.469 46.3512L139.493 45.1006L132.907 54.7106L135.146 58.9232Z" fill="#FFC2B0"/>
<path d="M93.3904 45.6272L96.4859 31.6072H98.9227L98.0007 43.2577L93.3904 45.6272Z" fill="#FFC2B0"/>
<path fill-rule="evenodd" clip-rule="evenodd" d="M97.9316 62.2297C97.5458 65.4195 97.6231 69.0349 97.7168 73.4204C97.83 78.7159 97.9671 85.1342 97.342 93.2822C97.1192 96.2327 100.618 98.1473 103.097 99.504L103.097 99.5041C103.549 99.7515 103.968 99.9803 104.323 100.194C106.365 101.378 108.736 102.102 111.107 102.102C113.478 102.102 118.022 99.9961 117.825 96.9683C117.307 86.8084 117.798 77.8249 118.529 69.2733C119.855 68.6007 121.464 68.0313 123.163 67.4302C127.692 65.8277 132.859 63.999 135.014 59.384C135.87 57.6069 135.146 55.698 134.619 54.4474C134.29 53.7234 133.17 53.6575 132.643 54.3158C126.518 61.9511 119.471 59.1866 119.471 59.1866L119.471 59.1866L119.471 59.1865C119.471 59.1865 118.022 57.6068 110.646 54.6448C110.64 54.642 110.621 54.6303 110.589 54.6111C110.075 54.3012 106.28 52.0132 103.206 52.5837C101.537 52.1325 99.615 51.0104 99.1862 48.2601C98.7251 45.6273 98.5934 44.1133 98.5934 43.1918C98.5934 42.5994 98.0665 42.1387 97.4738 42.2045C96.0907 42.402 93.9173 42.7969 93.588 43.7184C93.1306 45.0897 92.3491 51.9029 97.9316 62.2297Z" fill="#00C7F3"/>
<path d="M96.4858 31.673L96.5517 30.0932C96.5517 29.5008 96.7493 28.9743 97.0127 28.5135L98.6592 25.8806L99.0544 25.3541C99.4496 24.8933 100.108 24.7617 100.701 25.0908L101.096 25.3541C101.557 25.6832 101.821 26.2097 101.821 26.7363L100.964 28.9743L102.018 28.7768C102.216 28.711 102.413 28.8426 102.479 29.1059C102.479 29.3034 102.413 29.435 102.282 29.5008L100.569 30.2249L98.9885 32.4628L96.4858 31.673Z" fill="#FFC2B0"/>
<path d="M141.535 46.483L142.259 45.1007C142.522 44.5741 142.654 44.0475 142.654 43.4551L142.588 40.3615L142.457 39.7033C142.391 39.1109 141.798 38.6501 141.205 38.6501H140.744C140.151 38.6501 139.69 38.9793 139.427 39.5058L139.032 41.8754L138.241 41.1514C138.11 41.0197 137.846 41.0197 137.715 41.2172C137.583 41.3488 137.583 41.5463 137.715 41.678L138.9 43.126L139.229 46.1538L141.535 46.483Z" fill="#FFC2B0"/>
<path d="M114.861 69.7837C114.268 72.6141 117.956 93.7429 113.807 101.444C115.849 100.588 117.891 99.0087 117.825 96.9024C117.298 86.7658 117.759 77.7482 118.549 69.1913C122.04 67.4142 127.572 66.361 131.458 63.4648C127.243 65.0446 115.388 67.2825 114.861 69.7837Z" fill="#00A7CC"/>
<path d="M107.946 53.2626L108.999 52.2095C108.999 52.2095 110.712 53.9867 112.095 54.25C112.095 54.25 113.741 54.7107 114.598 54.7765L115.256 56.6195C115.256 56.6195 109.724 56.2904 107.946 53.2626Z" fill="white"/>
<path d="M115.454 47.3388C115.717 47.3388 115.981 47.2071 116.178 46.9438C116.442 46.5489 116.31 44.6401 117.166 44.3109C118.549 43.8502 121.842 45.5616 122.171 40.5591C122.369 37.992 121.118 37.268 121.118 35.8857C121.118 35.8857 121.249 36.6098 114.532 36.149C107.88 35.6883 105.706 41.6122 105.509 44.4426C105.311 47.2729 106.694 51.8805 111.239 52.5387C111.963 52.6703 115.19 50.1033 115.059 49.7742C114.993 49.445 113.807 49.445 113.939 48.4577C114.202 47.602 114.729 47.3388 115.454 47.3388Z" fill="#161616"/>
<path d="M19.8241 78.8673L3.02959 69.1915C2.70029 68.994 2.37098 68.994 2.1734 69.1257L0.526886 70.0472C0.526886 70.0472 1.25135 70.3105 1.64652 70.4421V82.685C1.64652 83.6723 2.23926 84.8571 3.02959 85.252L19.0996 94.5987V96.0468L20.7461 95.1253C21.0095 94.9279 21.2071 94.5987 21.2071 94.0722V81.566C21.2071 80.447 20.6144 79.3281 19.8241 78.8673Z" fill="#00A7CC"/>
<path d="M18.1775 95.981L1.38307 86.2393C0.658606 85.7786 0 84.6596 0 83.6723V71.1661C0 70.1788 0.592746 69.718 1.38307 70.113L18.2434 79.8546C18.9679 80.3154 19.6265 81.4343 19.6265 82.4217V94.9278C19.5606 95.9152 18.9679 96.3759 18.1775 95.981Z" fill="#00C7F3"/>
<path d="M18.1776 79.8546L1.38309 70.1129C0.987922 69.8496 0.592758 69.9155 0.329315 70.1787C0.526897 70.1787 0.724479 70.1787 0.922061 70.3104L17.7824 80.052C18.5069 80.5128 19.1655 81.6318 19.1655 82.6191V95.1252C19.1655 95.586 19.0337 95.8493 18.8362 96.0467C19.2972 95.9809 19.5606 95.586 19.5606 94.862V82.3558C19.5606 81.4343 18.9679 80.2495 18.1776 79.8546Z" fill="white"/>
<path d="M7.04709 81.9609C7.04709 82.685 6.52021 82.9483 5.92746 82.6192C5.26886 82.29 4.80783 81.3685 4.80783 80.6445C4.80783 79.9205 5.33472 79.6572 5.92746 79.9863C6.52021 80.3154 7.04709 81.2369 7.04709 81.9609Z" fill="white"/>
<path d="M10.4718 83.9355C10.4718 84.6596 9.94495 84.9229 9.35221 84.5938C8.6936 84.2647 8.23257 83.3432 8.23257 82.6191C8.23257 81.8951 8.75946 81.6318 9.35221 81.9609C9.94495 82.29 10.4718 83.2115 10.4718 83.9355Z" fill="white"/>
<path d="M13.8966 85.9101C13.8966 86.6342 13.3697 86.8975 12.7769 86.5684C12.1183 86.2393 11.6573 85.3178 11.6573 84.5937C11.6573 83.8697 12.1842 83.6064 12.7769 83.9355C13.3697 84.3304 13.8966 85.1861 13.8966 85.9101Z" fill="white"/>
<path opacity="0.5" d="M11.6573 180.496L0.263428 173.98L11.6573 167.398L22.9853 173.98L11.6573 180.496Z" fill="#E9F5FF"/>
<path d="M22.9853 165.621L11.6573 172.203V159.104L22.9853 152.588V165.621Z" fill="#C60041"/>
<path d="M11.6573 159.104L0.263428 152.588L11.6573 146.006L22.9853 152.588L11.6573 159.104Z" fill="#F1004F"/>
<path d="M11.6573 172.203L0.263428 165.621V152.588L11.6573 159.104V172.203Z" fill="#F1004F"/>
<path d="M7.50811 165.094L4.3468 163.317V159.631L7.50811 161.474V165.094Z" fill="white"/>
<path opacity="0.5" d="M195.211 187.605L183.422 180.825L195.211 173.98L207 180.825L195.211 187.605Z" fill="#E9F5FF"/>
<path d="M207 172.137L195.211 178.982V165.357L207 158.512V172.137Z" fill="#E0AF25"/>
<path d="M195.211 165.357L183.422 158.512L195.211 151.666L207 158.512L195.211 165.357Z" fill="#FFD255"/>
<path d="M195.211 178.982L183.422 172.137V158.512L195.211 165.357V178.982Z" fill="#FFD255"/>
<path d="M190.93 171.61L187.637 169.701V165.884L190.93 167.793V171.61Z" fill="white"/>
<path d="M202.851 78.6699L186.386 69.1915C186.056 68.994 185.793 68.994 185.529 69.1257L183.949 70.0472C183.949 70.0472 184.673 70.3105 185.068 70.4421V82.4217C185.068 83.409 185.661 84.528 186.386 84.9229L202.126 94.0063V95.3886L203.707 94.4671C203.97 94.2696 204.168 93.9405 204.168 93.4139V81.1711C204.168 80.1838 203.575 79.0648 202.851 78.6699Z" fill="#00A7CC"/>
<path d="M201.27 95.3886L184.805 85.9102C184.081 85.5153 183.488 84.3305 183.488 83.409V71.1661C183.488 70.1788 184.081 69.718 184.805 70.1788L201.27 79.6571C201.995 80.0521 202.587 81.2369 202.587 82.1584V94.4012C202.587 95.3227 201.995 95.7835 201.27 95.3886Z" fill="#00C7F3"/>
<path d="M201.665 79.3281L185.2 69.8497C184.739 69.5864 184.344 69.6523 184.081 69.9814C184.278 69.9155 184.542 69.9814 184.805 70.113L201.27 79.5914C201.995 79.9863 202.587 81.1711 202.587 82.0926V94.3355C202.587 94.6646 202.521 94.9937 202.39 95.1911C202.785 95.1253 202.983 94.6646 202.983 94.0722V81.8293C202.983 80.842 202.39 79.723 201.665 79.3281Z" fill="white"/>
<path d="M190.337 81.6319C190.337 82.356 189.81 82.6193 189.218 82.2901C188.625 81.961 188.098 81.1054 188.098 80.3813C188.098 79.6573 188.625 79.394 189.218 79.7231C189.81 80.0522 190.337 80.9079 190.337 81.6319Z" fill="white"/>
<path d="M193.696 83.6065C193.696 84.3306 193.169 84.5939 192.577 84.2647C191.984 83.9356 191.457 83.08 191.457 82.3559C191.457 81.6319 191.984 81.3686 192.577 81.6977C193.169 82.0268 193.696 82.8825 193.696 83.6065Z" fill="white"/>
<path d="M197.055 85.5152C197.055 86.2393 196.528 86.5025 195.935 86.1734C195.343 85.8443 194.816 84.9886 194.816 84.2646C194.816 83.5406 195.343 83.2773 195.935 83.6064C196.528 83.9355 197.055 84.7912 197.055 85.5152Z" fill="white"/>
</svg>
