<svg width="222" height="168" viewBox="0 0 222 168" fill="none" xmlns="http://www.w3.org/2000/svg">
<path d="M76.7243 41.5407C76.7243 41.4836 72.3749 41.2553 68.426 39.2575C64.4771 37.4311 60.9861 33.9493 62.9319 30.5247C65.9079 25.7872 57.4951 21.7918 60.3566 19.1662C63.2753 16.826 63.8476 18.7667 62.7602 13.5726C61.8446 8.26437 65.5073 7.00866 67.5676 2.21414C69.914 -2.58039 75.3508 1.0155 73.9773 7.23697C72.9472 13.6867 75.4081 7.00866 77.2394 9.91962C78.7846 12.3169 72.661 22.6479 75.3508 21.6776C77.8689 20.5361 80.0437 22.1342 79.7003 24.9881C78.7846 31.7233 76.6099 41.3694 76.7243 41.5407Z" fill="#00BD7E"/>
<path d="M78.7274 44.2232C78.7274 44.2232 78.6701 44.2232 78.6701 44.1661C75.2936 40.2278 71.4592 34.1775 69.5706 27.157V27.0999H69.5133C67.7392 26.0154 66.1368 24.5885 64.6488 23.0474C64.1337 22.5337 63.6759 22.02 63.1608 21.5063C63.1608 21.4492 63.1036 21.4492 63.1608 21.3921C63.1608 21.335 63.218 21.335 63.2753 21.335C63.2753 21.335 63.2753 21.335 63.3325 21.335C63.7903 21.8487 64.3054 22.3624 64.7632 22.8191C66.1368 24.246 67.5675 25.6159 69.17 26.6433C69.2844 26.7003 69.3416 26.7574 69.4561 26.8145C69.4561 26.7003 69.3989 26.5862 69.3989 26.472C68.6549 23.504 68.197 20.3647 68.0826 16.9971C68.0826 16.9401 68.0826 16.9401 68.0826 16.883L68.0254 16.8259C68.0254 16.8259 68.0254 16.8259 67.9681 16.8259C66.7091 14.9423 65.6789 12.7734 64.9922 10.4332C64.9922 10.3761 64.9922 10.3761 64.9922 10.3191C65.0494 10.262 65.0494 10.262 65.1066 10.3191C65.1066 10.3191 65.1066 10.3191 65.1639 10.3761C65.7934 12.488 66.7091 14.4857 67.7964 16.2551C67.8537 16.3693 67.9681 16.4834 68.0254 16.5976C68.0254 16.4264 68.0254 16.3122 68.0254 16.141C67.9681 12.9446 68.3115 9.57704 68.9983 5.98115C68.9983 5.92407 68.9983 5.92407 69.0555 5.92407C69.0555 5.92407 69.1127 5.92407 69.17 5.92407C69.2272 5.92407 69.2272 5.98115 69.2272 6.03823C68.2543 10.9469 68.0254 15.456 68.426 19.6798C68.426 19.794 68.426 19.851 68.426 19.9652C68.4832 19.9081 68.5404 19.851 68.5977 19.7939C70.6579 17.8533 72.4321 15.6844 73.8628 13.4012C73.8628 13.4012 73.92 13.3442 73.92 13.4012C73.9773 13.4012 73.9773 13.4583 73.9773 13.4583V13.5154C72.4321 15.9127 70.6579 18.0816 68.4832 20.1364L68.426 20.1935V20.2506C68.6549 22.5908 69.0555 24.7597 69.6278 26.8145C69.6278 26.8145 69.6278 26.8145 69.6278 26.8716C69.6278 26.8716 69.685 26.9287 69.6278 26.9287C69.6278 26.9287 69.6278 26.9287 69.6278 26.9857C69.6278 26.9857 69.6278 26.9857 69.6278 27.0428C70.1429 28.8693 70.7724 30.6958 71.6308 32.6935C71.6881 32.8077 71.7453 32.9218 71.7453 33.036C71.8025 32.9218 71.8025 32.8077 71.8598 32.6935C72.7182 29.4972 74.0345 26.5862 75.6369 23.9606C75.6369 23.9035 75.6942 23.9035 75.7514 23.9035C75.8086 23.9035 75.8086 23.9606 75.8086 23.9606V24.0177C74.0917 26.7574 72.7754 29.8396 71.917 33.2072V33.2643V33.3214C73.5194 36.746 75.5797 40.2848 78.7274 43.9378C78.7274 43.9949 78.7274 43.9949 78.7274 43.9949C78.8418 44.2232 78.7846 44.2232 78.7274 44.2232Z" fill="#009562"/>
<path d="M66.5374 57.7509C66.4801 57.7509 66.938 53.0705 65.6789 48.5043C64.5343 43.9951 61.6728 39.6572 57.9529 41.2554C52.8022 43.7098 50.2268 34.0636 47.1936 36.6892C44.3894 39.4289 46.2207 40.3992 41.2417 38.4015C36.1483 36.575 34.2597 40.3422 29.2234 41.8262C24.0727 43.5956 26.7053 49.9883 33.1151 49.5317C39.6393 49.4175 32.6572 51.0157 35.2326 53.47C37.3501 55.5248 48.6244 50.502 47.1936 53.2988C45.6484 55.8102 46.8503 58.3787 49.769 58.4929C56.4649 58.4358 66.4229 57.5796 66.5374 57.7509Z" fill="#00BD7E"/>
<path d="M68.8837 60.3192C68.8837 60.2621 68.8837 60.2621 68.8837 60.2621C65.5071 55.9813 60.1848 50.9585 53.5461 47.8192H53.4889V47.7621C52.7449 45.7073 51.543 43.7667 50.284 41.9402C49.8834 41.3124 49.4255 40.7416 49.0249 40.1137C49.0249 40.0566 48.9677 40.0566 48.9677 40.0566C48.9105 40.0566 48.8532 40.1137 48.9105 40.1708C48.9105 40.1708 48.9105 40.1708 48.9105 40.2279C49.3111 40.7987 49.7689 41.4265 50.1695 41.9973C51.3141 43.7096 52.4587 45.479 53.2027 47.3626C53.2599 47.4767 53.2599 47.5909 53.3172 47.648C53.2027 47.5909 53.0882 47.5338 53.031 47.5338C50.2267 46.2781 47.1936 45.2507 43.8742 44.6229C43.817 44.6229 43.817 44.6229 43.7598 44.6229V44.5087V44.4516C42.1001 42.7964 40.097 41.3694 37.9223 40.285C37.8651 40.285 37.8651 40.285 37.8078 40.285C37.7506 40.342 37.7506 40.342 37.7506 40.3991C37.7506 40.3991 37.7506 40.4562 37.8078 40.4562C39.8109 41.4836 41.6423 42.7393 43.1875 44.2233C43.3019 44.3375 43.4164 44.4516 43.5308 44.5087C43.3591 44.5087 43.2447 44.4516 43.073 44.4516C39.8681 43.9379 36.4916 43.7096 32.8288 43.9379C32.7716 43.9379 32.7716 43.9379 32.7716 43.9379C32.7716 43.9379 32.7716 43.995 32.7716 44.0521C32.7716 44.1092 32.8288 44.1092 32.8861 44.1092C37.9223 43.8238 42.3862 44.3375 46.5068 45.3649C46.6213 45.3649 46.6785 45.4219 46.793 45.4219C46.7357 45.479 46.6785 45.5361 46.564 45.5932C44.2748 47.4767 41.8712 49.0749 39.3531 50.2735C39.2958 50.2735 39.2958 50.3306 39.2958 50.3306C39.2958 50.3877 39.3531 50.3877 39.3531 50.3877H39.4103C42.0429 49.132 44.5038 47.4767 46.8502 45.479L46.9074 45.4219H46.9646C49.2538 46.0498 51.3141 46.8489 53.2599 47.7621C53.2599 47.7621 53.2599 47.7621 53.3172 47.7621C53.3172 47.7621 53.3172 47.7621 53.3172 47.8192L53.3744 47.8763C53.3744 47.8763 53.3744 47.8763 53.4316 47.8763C53.4316 47.8763 53.4316 47.8763 53.4889 47.8763C55.2058 48.6754 56.9227 49.7028 58.754 50.9014C58.8685 50.9585 58.9257 51.0156 59.0402 51.1297C58.9257 51.1297 58.8112 51.1868 58.6968 51.1868C55.3774 51.6434 52.2298 52.5567 49.4255 53.8694C49.3683 53.8694 49.3683 53.9265 49.3683 53.9836C49.3683 54.0407 49.3683 54.0407 49.4255 54.0407C49.4255 54.0407 49.4255 54.0407 49.4828 54.0407C52.4587 52.6708 55.7781 51.7005 59.2691 51.3009H59.3263C59.3263 51.3009 59.3263 51.3009 59.3835 51.358C62.5312 53.5841 65.6216 56.3809 68.7693 60.3192C68.7693 60.3763 68.8265 60.3763 68.8265 60.3192C68.8265 60.4334 68.8837 60.3763 68.8837 60.3192Z" fill="#009562"/>
<path d="M63.5614 48.5042C63.5042 48.5042 66.709 44.2233 68.0253 38.9722C69.4561 33.8352 68.9982 27.785 64.1909 26.9288C57.4378 25.9014 60.3565 14.9425 55.6064 15.5133C51.1425 16.3694 52.4588 18.4813 48.4527 13.2872C44.2177 8.20733 40.0971 10.6046 34.0307 8.77811C27.6782 7.17993 26.7053 15.0567 33.6301 18.7667C40.4977 22.8763 32.3138 19.9083 33.5729 23.9608C34.603 27.3284 49.1394 29.7827 46.1062 31.6092C43.0731 33.0361 42.7869 36.3466 45.7629 38.2873C52.7449 42.6252 63.5614 48.2759 63.5614 48.5042Z" fill="#00BD7E"/>
<path d="M64.5344 52.4995C64.5344 52.4995 64.5916 52.4424 64.5344 52.3853C63.5042 46.1068 60.9289 37.7164 55.8354 30.3534C55.8354 30.3534 55.8354 30.2963 55.7782 30.2963V30.2392C56.1788 27.7849 56.0643 25.1022 55.8354 22.4766C55.7782 21.6205 55.6637 20.7643 55.5493 19.9081C55.5493 19.8511 55.5493 19.8511 55.492 19.8511C55.4348 19.8511 55.3776 19.8511 55.3203 19.9081V19.9652C55.4348 20.8214 55.492 21.6776 55.6065 22.4766C55.8354 24.8739 55.9499 27.3282 55.6637 29.6114C55.6637 29.7255 55.6065 29.8397 55.6065 30.0109C55.5493 29.8967 55.4348 29.7826 55.3776 29.6684C53.2028 26.5862 50.6275 23.6753 47.5371 20.8785L47.4798 20.8214V20.7072V20.6502C46.6786 17.9675 45.4768 15.2849 43.8743 12.8305C43.8171 12.7734 43.8171 12.7734 43.7599 12.7734C43.7027 12.7734 43.6454 12.8305 43.6454 12.8876V12.9447C45.1334 15.2278 46.278 17.6821 47.0792 20.1365C47.1365 20.3077 47.1937 20.4789 47.2509 20.6502C47.1365 20.536 46.9648 20.4218 46.8503 20.3077C43.8743 17.7392 40.4978 15.3419 36.5489 13.173C36.4917 13.173 36.4917 13.173 36.4917 13.173C36.4344 13.173 36.4344 13.2301 36.4344 13.2871C36.4344 13.3442 36.4344 13.4013 36.4917 13.4013C41.8713 16.3693 46.278 19.794 49.8835 23.504C49.9407 23.5611 50.0552 23.6753 50.1124 23.7324C49.998 23.7324 49.8835 23.7324 49.8263 23.7894C46.3352 24.1319 42.9587 24.0748 39.6393 23.6753C39.5821 23.6753 39.5821 23.6753 39.5821 23.7324C39.5821 23.7894 39.5821 23.8465 39.5821 23.8465C39.5821 23.9036 39.6393 23.9036 39.6393 23.9036C43.0731 24.3602 46.6214 24.4173 50.2269 24.0177C50.2841 24.0177 50.2841 24.0177 50.3413 24.0177L50.3986 24.0748C52.3444 26.0725 54.0613 28.1273 55.5493 30.2963C55.5493 30.2963 55.5493 30.2963 55.5493 30.3534V30.4104C55.5493 30.4675 55.5493 30.4675 55.6065 30.5246C55.6065 30.5246 55.6065 30.5246 55.6637 30.5246C55.6637 30.5246 55.6637 30.5246 55.6637 30.5817C56.98 32.4652 58.1818 34.5771 59.3837 36.9744C59.4409 37.0885 59.4981 37.2598 59.5554 37.3739C59.4409 37.3168 59.2692 37.2598 59.1547 37.2027C55.492 35.4904 51.6576 34.3488 47.9949 33.778C47.9377 33.778 47.8804 33.778 47.8804 33.8351C47.8804 33.8922 47.8804 33.8922 47.8804 33.9493C47.8804 33.9493 47.8804 34.0063 47.9377 34.0063C51.8293 34.5771 55.8354 35.8328 59.6698 37.6593H59.727V37.7164C61.6729 41.9401 63.3325 46.6776 64.3054 52.4995C64.3054 52.5566 64.3627 52.5566 64.3627 52.5566C64.4199 52.5566 64.4771 52.5566 64.5344 52.4995Z" fill="#009562"/>
<path d="M123.309 32.3511H69.0555C63.7903 32.3511 59.498 36.6319 59.498 41.8831V154.954C59.498 160.205 63.7903 164.486 69.0555 164.486H123.309C128.575 164.486 132.867 160.205 132.867 154.954V41.826C132.81 36.5748 128.575 32.3511 123.309 32.3511Z" fill="#3498DB"/>
<path d="M106.77 36.9744H86.6251C86.0528 36.9744 85.595 37.431 85.595 38.0018C85.595 38.5725 86.0528 39.0292 86.6251 39.0292H106.77C107.342 39.0292 107.8 38.5725 107.8 38.0018C107.743 37.431 107.285 36.9744 106.77 36.9744Z" fill="white"/>
<path d="M123.31 35.8901H115.355L112.493 41.3125C111.406 43.3102 109.288 44.623 106.999 44.623H85.3089C83.0197 44.623 80.9021 43.3673 79.8148 41.3125L76.9533 35.8901H68.9983C65.7362 35.8901 63.0464 38.5728 63.0464 41.8262V154.897C63.0464 158.151 65.7362 160.833 68.9983 160.833H123.31C126.572 160.833 129.261 158.151 129.261 154.897V41.8262C129.261 38.5728 126.572 35.8901 123.31 35.8901Z" fill="white"/>
<path d="M155.816 52.8992H73.405C71.1158 52.8992 69.2272 54.7827 69.2272 57.0658V77.4426C69.2272 79.7257 71.1158 81.6092 73.405 81.6092H155.873C158.163 81.6092 160.051 79.7257 160.051 77.4426V57.0658C159.994 54.7827 158.163 52.8992 155.816 52.8992Z" fill="#E9F5FF"/>
<path d="M109.345 62.488L109.918 64.2003C109.975 64.3145 110.089 64.4286 110.204 64.4286H112.035C112.321 64.4286 112.436 64.7711 112.207 64.9423L110.719 66.0268C110.604 66.0839 110.547 66.2551 110.604 66.3692L111.177 68.0816C111.291 68.367 110.948 68.5953 110.719 68.424L109.231 67.3396C109.116 67.2825 109.002 67.2825 108.888 67.3396L107.4 68.424C107.171 68.5953 106.884 68.367 106.942 68.0816L107.514 66.3692C107.571 66.2551 107.514 66.1409 107.4 66.0268L105.912 64.9423C105.683 64.7711 105.797 64.4286 106.083 64.4286H107.915C108.029 64.4286 108.144 64.3715 108.201 64.2003L108.773 62.488C108.888 62.2026 109.231 62.2026 109.345 62.488Z" fill="#FFD255"/>
<path d="M119.361 62.488L119.933 64.2003C119.99 64.3145 120.105 64.4286 120.219 64.4286H122.05C122.337 64.4286 122.451 64.7711 122.222 64.9423L120.734 66.0268C120.62 66.0839 120.562 66.2551 120.62 66.3692L121.192 68.0816C121.306 68.367 120.963 68.5953 120.734 68.424L119.246 67.3396C119.132 67.2825 119.017 67.2825 118.903 67.3396L117.415 68.424C117.186 68.5953 116.9 68.367 116.957 68.0816L117.529 66.3692C117.586 66.2551 117.529 66.1409 117.415 66.0268L115.927 64.9423C115.698 64.7711 115.812 64.4286 116.099 64.4286H117.93C118.044 64.4286 118.159 64.3715 118.216 64.2003L118.788 62.488C118.903 62.2026 119.303 62.2026 119.361 62.488Z" fill="#FFD255"/>
<path d="M129.433 62.488L130.005 64.2003C130.063 64.3145 130.177 64.4286 130.291 64.4286H132.123C132.409 64.4286 132.523 64.7711 132.295 64.9423L130.807 66.0268C130.692 66.0839 130.635 66.2551 130.692 66.3692L131.264 68.0816C131.379 68.367 131.035 68.5953 130.807 68.424L129.319 67.3396C129.204 67.2825 129.09 67.2825 128.975 67.3396L127.487 68.424C127.258 68.5953 126.972 68.367 127.029 68.0816L127.602 66.3692C127.659 66.2551 127.602 66.1409 127.487 66.0268L125.999 64.9423C125.77 64.7711 125.885 64.4286 126.171 64.4286H128.002C128.117 64.4286 128.231 64.3715 128.288 64.2003L128.861 62.488C128.975 62.2026 129.319 62.2026 129.433 62.488Z" fill="#FFD255"/>
<path d="M139.448 62.488L140.021 64.2003C140.078 64.3145 140.192 64.4286 140.307 64.4286H142.138C142.424 64.4286 142.539 64.7711 142.31 64.9423L140.822 66.0268C140.707 66.0839 140.65 66.2551 140.707 66.3692L141.28 68.0816C141.394 68.367 141.051 68.5953 140.822 68.424L139.334 67.3396C139.219 67.2825 139.105 67.2825 138.99 67.3396L137.502 68.424C137.274 68.5953 136.987 68.367 137.045 68.0816L137.617 66.3692C137.674 66.2551 137.617 66.1409 137.502 66.0268L136.014 64.9423C135.786 64.7711 135.9 64.4286 136.186 64.4286H138.018C138.132 64.4286 138.246 64.3715 138.304 64.2003L138.876 62.488C138.99 62.2026 139.391 62.2026 139.448 62.488Z" fill="#FFD255"/>
<path d="M149.521 62.488L150.093 64.2003C150.15 64.3145 150.265 64.4286 150.379 64.4286H152.211C152.497 64.4286 152.611 64.7711 152.382 64.9423L150.894 66.0268C150.78 66.0839 150.723 66.2551 150.78 66.3692L151.352 68.0816C151.467 68.367 151.123 68.5953 150.894 68.424L149.406 67.3396C149.292 67.2825 149.177 67.2825 149.063 67.3396L147.575 68.424C147.346 68.5953 147.06 68.367 147.117 68.0816L147.689 66.3692C147.747 66.2551 147.689 66.1409 147.575 66.0268L146.087 64.9423C145.858 64.7711 145.973 64.4286 146.259 64.4286H148.09C148.204 64.4286 148.319 64.3715 148.376 64.2003L148.948 62.488C149.006 62.2026 149.406 62.2026 149.521 62.488Z" fill="#FFD255"/>
<path d="M135.042 71.2209H105.854V72.02H135.042V71.2209Z" fill="#3498DB"/>
<path d="M135.042 57.9219H105.855V59.463H135.042V57.9219Z" fill="#3498DB"/>
<path d="M135.042 74.3032H105.854V75.1023H135.042V74.3032Z" fill="#3498DB"/>
<path d="M119.189 77.157H105.854V77.9561H119.189V77.157Z" fill="#3498DB"/>
<path d="M90.4317 79.0213C96.71 77.5563 100.609 71.2928 99.14 65.0312C97.6712 58.7696 91.3909 54.8811 85.1126 56.3461C78.8343 57.811 74.9355 64.0746 76.4043 70.3362C77.8731 76.5977 84.1534 80.4862 90.4317 79.0213Z" fill="white"/>
<path d="M93.5499 74.7027L92.5198 63.9721C92.5198 61.2324 91.4324 58.6639 88.5137 59.463C87.1974 58.778 85.5377 58.9493 84.4504 59.9767C83.3058 61.0611 82.6762 62.7164 82.6762 64.3716L81.5316 74.8168L93.5499 74.7027Z" fill="#0A4D7A"/>
<path d="M89.5438 69.2224V71.5626C89.5438 71.5626 89.2004 73.3891 87.6552 73.7316C86.0528 73.332 85.7666 71.5626 85.7666 71.5626V69.2224H89.5438Z" fill="#FFA683"/>
<path d="M89.5438 68.8809V70.3649C88.9715 70.6503 88.3419 70.8215 87.6552 70.8215C86.9684 70.8215 86.3389 70.6503 85.7666 70.3649V68.8809H89.5438Z" fill="#E57C5C"/>
<path d="M91.4896 64.0864C89.7727 64.0293 88.6281 62.7166 88.6281 62.7166C87.598 63.6298 83.8781 64.0864 83.8781 64.0864V65.5704C83.8781 66.6549 84.3359 68.0248 85.0799 69.0522C85.7094 69.9083 86.6823 70.365 87.7125 70.365C88.7426 70.365 89.7155 69.9083 90.345 69.0522C91.089 68.0248 91.5469 66.712 91.5469 65.5704L91.4896 64.0864Z" fill="#FFA683"/>
<path d="M96.9837 75.5018C95.4957 72.9904 89.2576 71.5635 89.2576 71.5635L87.5979 72.1913L85.9383 71.5635C85.9383 71.5635 79.7002 72.9904 78.2122 75.5018L76.3809 89.1434L79.2424 89.0863L80.902 77.6708C80.902 77.6708 81.9894 81.3808 81.9322 83.4927C81.8749 85.6617 81.1882 89.2005 81.1882 89.2005H87.369H87.7124H93.8932C93.8932 89.2005 93.2065 85.6617 93.1492 83.4927C93.092 81.3238 94.1794 77.6708 94.1794 77.6708L95.8391 89.0863L98.7005 89.1434L96.9837 75.5018Z" fill="#FFA683"/>
<path d="M92.6342 72.6479C92.1191 74.0749 90.8601 76.2438 87.598 76.4151C84.3359 76.2438 83.0196 74.0749 82.5617 72.6479C81.5888 72.9904 80.6159 73.5041 79.7574 74.0178L80.902 77.7279C80.902 77.7279 80.9593 77.7849 80.9593 77.842V77.7279C80.9593 77.7279 81.0165 77.8991 81.0737 78.1845C81.0737 78.2416 81.0737 78.2416 81.131 78.2986C81.4171 79.3831 82.0467 81.9516 81.9894 83.5498C81.9322 85.7187 81.2454 89.2576 81.2454 89.2576H87.4263H87.7696H93.9505C93.9505 89.2576 93.2637 85.7187 93.2065 83.5498C93.1493 81.3808 94.2366 77.7279 94.2366 77.7279V77.8991C94.2366 77.842 94.2939 77.7849 94.2939 77.7279L95.4385 74.0178C94.6373 73.447 93.6071 72.9904 92.6342 72.6479Z" fill="#57BFFF"/>
<path d="M168.292 86.1752C167.892 86.1752 167.491 85.9469 167.319 85.5473L161.367 73.6752C161.367 73.6752 160.681 70.8213 159.822 70.8213L159.765 74.5884L163.828 89.1432C164.057 90.0565 164.515 90.8556 165.774 90.8556C168.235 90.9126 172.813 91.7117 175.732 92.4537C178.765 93.2528 181.283 92.4537 181.283 92.4537C181.398 85.8898 170.81 86.2323 168.292 86.1752Z" fill="#FFA683"/>
<path d="M177.22 84.6913V88.0589H172.069V86.1753C172.069 86.1753 168.693 85.3762 168.865 82.3511C169.036 79.326 170.467 77.842 171.211 77.6137C172.012 77.3854 175.732 78.8694 175.789 79.0406C175.847 79.2118 176.247 82.4653 176.247 82.4653L177.22 84.6913Z" fill="#FFA683"/>
<path d="M171.841 80.125C171.841 80.125 172.756 78.8693 173.615 79.4972C174.473 80.125 174.015 81.3807 172.985 82.0086C172.985 82.0086 174.073 85.6045 176.19 85.3762C178.308 85.1479 181.055 82.9218 180.768 79.4401C180.54 75.9583 175.961 73.504 173.5 74.0177C170.925 74.4743 168.464 77.2711 171.841 80.125Z" fill="#161616"/>
<path d="M180.711 77.2713C180.711 77.2713 183.458 73.7895 186.262 76.8146C189.01 79.8397 190.784 83.2644 192.043 83.8923C193.302 84.5201 190.955 86.1183 187.922 85.148C184.832 84.1777 180.883 80.4105 180.711 77.2713Z" fill="#161616"/>
<path d="M172.069 88.0592V86.1756C172.069 86.1756 174.187 86.2327 175.045 85.4336C175.045 85.4336 174.416 86.8605 173.042 86.9176V88.0592H172.069Z" fill="#ED7D5A"/>
<path d="M169.838 115.057C169.838 115.057 171.039 133.892 172.585 137.831C174.13 141.769 183.859 159.748 183.859 159.748L188.895 158.664L181.684 137.203C181.627 138.516 180.654 132.351 182.428 126.073C183.458 122.42 183.058 118.367 181.512 115.171L168.922 115.057" fill="#00A7CC"/>
<path d="M181.455 114.258C181.455 114.258 180.997 119.509 174.931 125.445C168.807 131.438 166.461 135.491 166.461 135.491L165.545 161.461H160.509C160.509 161.461 157.533 134.064 157.648 133.093C157.705 132.123 166.06 114.258 167.033 112.717C168.006 111.119 181.455 114.258 181.455 114.258Z" fill="#3498DB"/>
<path d="M177.735 87.8306C177.735 87.8306 183.115 88.2301 181.169 94.9082C178.994 102.214 181.512 113.858 181.97 115.114L180.368 115.742C175.503 117.568 170.181 117.454 165.374 115.399C165.374 115.399 169.666 105.981 166.633 101.016C164.687 97.8192 165.259 94.6228 167.548 91.826C169.036 89.9995 170.925 88.0589 171.669 88.0589L177.735 87.8306Z" fill="#3498DB"/>
<path d="M160.509 161.461H161.596L159.422 133.321C159.765 132.751 161.024 130.468 164.744 123.333C166.06 120.821 166.976 118.481 167.606 116.198C166.919 116.027 166.232 115.799 165.602 115.513C162.913 120.993 157.705 132.351 157.648 133.15C157.533 134.063 160.509 161.461 160.509 161.461Z" fill="#00A7CC"/>
<path d="M170.982 99.2462C168.464 100.159 170.353 106.837 167.605 116.141C166.862 115.913 166.118 115.685 165.374 115.342C165.374 115.342 169.666 105.924 166.633 100.958C165.66 99.4174 165.316 97.8192 165.488 96.2781L176.19 93.8809C176.19 93.9379 174.359 97.9905 170.982 99.2462Z" fill="#00A7CC"/>
<path d="M147.918 82.5225C147.918 82.5225 157.705 98.7325 160.566 99.6458C161.825 100.045 169.723 96.9631 173.1 96.4494C174.931 96.164 176.19 94.5088 176.018 92.6823C175.847 90.6275 173.443 88.8581 171.383 89.2576L160.394 92.6823C160.394 92.6823 151.066 83.0933 149.006 80.8672C149.006 80.8672 148.147 78.1846 146.888 78.1846C145.744 78.2416 147.461 81.6092 147.918 82.5225Z" fill="#FFA683"/>
<path d="M155.702 163.116C157.075 162.66 159.708 162.146 160.624 161.461H165.488C165.431 162.431 165.431 163.402 165.374 164.029C165.374 164.429 165.03 164.771 164.572 164.771H154.843C154.214 164.771 153.985 163.915 154.5 163.63C154.901 163.459 155.244 163.287 155.702 163.116Z" fill="#161616"/>
<path d="M179.509 162.488C180.768 161.746 183.172 160.605 183.916 159.749L188.666 158.664C188.838 159.634 189.009 160.548 189.181 161.175C189.296 161.575 189.009 161.975 188.609 162.089L179.166 164.258C178.536 164.429 178.136 163.63 178.594 163.173C178.823 163.002 179.109 162.717 179.509 162.488Z" fill="#161616"/>
<path opacity="0.58" d="M160.566 94.1663C162.855 94.2234 173.157 90.3992 175.904 92.2257C175.389 90.3992 173.271 88.9152 171.383 89.3718L160.395 92.7965C160.395 92.7965 151.066 83.2074 149.006 80.9814C149.006 80.9243 158.048 94.1093 160.566 94.1663Z" fill="#ED7D5A"/>
<path d="M180.654 77.043L179.91 77.1571C179.91 77.1571 180.826 78.6411 180.654 80.0681L181.57 79.8968C181.57 79.8968 181.512 77.3284 180.654 77.043Z" fill="white"/>
<path d="M116.156 88.2305H33.6873C31.3981 88.2305 29.5095 90.114 29.5095 92.3971V112.774C29.5095 115.057 31.3981 116.941 33.6873 116.941H116.156C118.445 116.941 120.334 115.057 120.334 112.774V92.3971C120.334 90.114 118.445 88.2305 116.156 88.2305Z" fill="#E9F5FF"/>
<path d="M69.6278 97.8195L70.2001 99.5318C70.2574 99.646 70.3718 99.7601 70.4863 99.7601H72.3177C72.6038 99.7601 72.7183 100.103 72.4893 100.274L71.0014 101.358C70.8869 101.415 70.8297 101.587 70.8869 101.701L71.4592 103.413C71.5737 103.699 71.2303 103.927 71.0014 103.756L69.5134 102.671C69.3989 102.614 69.2845 102.614 69.17 102.671L67.682 103.756C67.4531 103.927 67.167 103.699 67.2242 103.413L67.7965 101.701C67.8537 101.587 67.7965 101.472 67.682 101.358L66.194 100.274C65.9651 100.103 66.0796 99.7601 66.3657 99.7601H68.1971C68.3116 99.7601 68.426 99.7031 68.4832 99.5318L69.0555 97.8195C69.17 97.5341 69.5706 97.5341 69.6278 97.8195Z" fill="#FBBE42"/>
<path d="M79.7002 97.8195L80.2725 99.5318C80.3298 99.646 80.4442 99.7601 80.5587 99.7601H82.39C82.6762 99.7601 82.7906 100.103 82.5617 100.274L81.0737 101.358C80.9593 101.415 80.902 101.587 80.9593 101.701L81.5316 103.413C81.646 103.699 81.3027 103.927 81.0737 103.756L79.5858 102.671C79.4713 102.614 79.3568 102.614 79.2424 102.671L77.7544 103.756C77.5255 103.927 77.2393 103.699 77.2966 103.413L77.8689 101.701C77.9261 101.587 77.8689 101.472 77.7544 101.358L76.2664 100.274C76.0375 100.103 76.152 99.7601 76.4381 99.7601H78.2695C78.3839 99.7601 78.4984 99.7031 78.5556 99.5318L79.1279 97.8195C79.2424 97.5341 79.5858 97.5341 79.7002 97.8195Z" fill="#FBBE42"/>
<path d="M89.7155 97.8195L90.2878 99.5318C90.345 99.646 90.4595 99.7601 90.5739 99.7601H92.4053C92.6915 99.7601 92.8059 100.103 92.577 100.274L91.089 101.358C90.9746 101.415 90.9173 101.587 90.9746 101.701L91.5469 103.413C91.6613 103.699 91.3179 103.927 91.089 103.756L89.601 102.671C89.4866 102.614 89.3721 102.614 89.2577 102.671L87.7697 103.756C87.5407 103.927 87.2546 103.699 87.3118 103.413L87.8841 101.701C87.9414 101.587 87.8841 101.472 87.7697 101.358L86.2817 100.274C86.0528 100.103 86.1672 99.7601 86.4534 99.7601H88.2847C88.3992 99.7601 88.5137 99.7031 88.5709 99.5318L89.1432 97.8195C89.2577 97.5341 89.6583 97.5341 89.7155 97.8195Z" fill="#FBBE42"/>
<path d="M99.788 97.8195L100.36 99.5318C100.418 99.646 100.532 99.7601 100.646 99.7601H102.478C102.764 99.7601 102.878 100.103 102.649 100.274L101.162 101.358C101.047 101.415 100.99 101.587 101.047 101.701L101.619 103.413C101.734 103.699 101.39 103.927 101.162 103.756L99.6735 102.671C99.5591 102.614 99.4446 102.614 99.3302 102.671L97.8422 103.756C97.6133 103.927 97.3271 103.699 97.3843 103.413L97.9566 101.701C98.0139 101.587 97.9566 101.472 97.8422 101.358L96.3542 100.274C96.1253 100.103 96.2397 99.7601 96.5259 99.7601H98.3572C98.4717 99.7601 98.5862 99.7031 98.6434 99.5318L99.2157 97.8195C99.3302 97.5341 99.6735 97.5341 99.788 97.8195Z" fill="#FBBE42"/>
<path d="M109.803 97.8195L110.376 99.5318C110.433 99.646 110.547 99.7601 110.662 99.7601H112.493C112.779 99.7601 112.894 100.103 112.665 100.274L111.177 101.358C111.062 101.415 111.005 101.587 111.062 101.701L111.635 103.413C111.749 103.699 111.406 103.927 111.177 103.756L109.689 102.671C109.574 102.614 109.46 102.614 109.345 102.671L107.857 103.756C107.629 103.927 107.342 103.699 107.4 103.413L107.972 101.701C108.029 101.587 107.972 101.472 107.857 101.358L106.369 100.274C106.141 100.103 106.255 99.7601 106.541 99.7601H108.373C108.487 99.7601 108.601 99.7031 108.659 99.5318L109.231 97.8195C109.345 97.5341 109.746 97.5341 109.803 97.8195Z" fill="#FBBE42"/>
<path d="M95.324 106.552H66.1367V107.351H95.324V106.552Z" fill="#B1D7DD"/>
<path d="M95.3245 93.2534H66.1372V94.7945H95.3245V93.2534Z" fill="#0A4D7A"/>
<path d="M95.324 109.635H66.1367V110.434H95.324V109.635Z" fill="#B1D7DD"/>
<path d="M79.4713 112.488H66.1367V113.287H79.4713V112.488Z" fill="#B1D7DD"/>
<path d="M56.3742 111.242C60.9335 106.695 60.9335 99.3222 56.3742 94.7751C51.8149 90.2279 44.4228 90.2279 39.8635 94.7751C35.3042 99.3222 35.3042 106.695 39.8635 111.242C44.4228 115.789 51.8149 115.789 56.3742 111.242Z" fill="white"/>
<path d="M23.2142 147.42C23.2142 147.42 42.9586 130.924 46.4496 136.746C49.9406 142.568 44.7899 161.461 44.7899 161.461L23.2142 147.42Z" fill="#00AFD6"/>
<path d="M33.5729 154.155L44.7899 161.461C44.7899 161.461 49.4828 144.166 46.8502 137.545C48.0521 146.278 38.838 151.758 33.5729 154.155Z" fill="#00A7CC"/>
<path d="M33.3439 145.65C33.3439 145.65 45.5911 155.468 46.564 159.007C48.1665 164.714 38.6091 164.086 34.4313 164.086C30.3107 164.086 3.87048 163.344 3.87048 163.344L4.0994 159.292L28.4221 158.15C28.4221 158.15 14.9159 156.153 15.4309 148.39C16.0605 140.627 33.3439 145.65 33.3439 145.65Z" fill="#3498DB"/>
<path d="M45.9345 162.203C43.7026 164.429 37.579 164.029 34.4885 164.029C30.368 164.029 3.92773 163.287 3.92773 163.287L4.15665 159.235L28.4794 158.093C28.4794 158.093 38.1513 162.774 45.7056 162.203C45.8201 162.203 45.8773 162.203 45.9345 162.203Z" fill="#00A7CC"/>
<path d="M4.04225 163.287C4.04225 163.287 2.95488 165.685 3.81333 167.283C4.61455 168.881 1.06629 167.74 0.493993 164.543C-0.0783065 161.404 0.207844 157.637 4.15671 159.292L4.04225 163.287Z" fill="#161616"/>
<path d="M17.7775 121.392C17.7775 121.392 26.6481 95.7644 26.9343 95.8786C27.9644 96.3352 29.7958 96.7347 29.7958 96.7347L26.133 124.874L17.7775 121.392Z" fill="#161616"/>
<path d="M26.9915 118.424C24.9885 117.454 22.4703 116.37 19.4944 116.541C18.2926 120.023 17.8347 121.335 17.8347 121.335L26.1903 124.817L26.9915 118.424Z" fill="#083954"/>
<path d="M28.9373 114.6C28.3078 116.997 25.6752 116.541 25.6752 116.541V118.824H21.2113V115.742C23.5577 116.255 26.0758 114.6 24.9313 113.744C23.8439 112.945 23.5577 111.518 24.13 110.89C24.7023 110.205 26.1331 110.719 26.1331 110.719C27.4494 110.662 28.4223 110.49 28.9946 110.205C29.2235 111.575 29.2807 113.287 28.9373 114.6Z" fill="#FFA683"/>
<path d="M26.133 110.719C26.133 110.719 24.7595 110.205 24.1299 110.89C23.5576 111.575 23.7865 112.945 24.9311 113.744C26.0185 114.543 23.5004 116.255 21.154 115.742C18.8075 115.228 17.4913 110.376 19.4943 107.18C21.3257 104.269 27.7927 103.013 29.1089 106.038C30.4252 109.121 30.5397 110.605 26.133 110.719Z" fill="#161616"/>
<path d="M25.6751 118.881V116.598C25.6751 116.598 24.1871 116.369 23.5576 116.084C23.5576 116.084 24.3588 117.054 24.8739 117.226V118.881H25.6751Z" fill="#E57C5C"/>
<path d="M26.877 118.881C26.877 118.881 19.4371 116.312 17.3768 122.077C15.3165 127.842 18.8648 141.655 15.0304 146.449C20.8679 149.189 27.5638 149.417 33.6301 147.134L34.4314 146.849C34.4314 146.849 31.856 129.212 31.7415 129.84C31.6271 130.353 40.4977 133.15 42.2719 132.237C44.046 131.267 54.748 119.223 54.748 119.223L51.1425 118.71L41.4706 124.931C41.4706 124.931 29.2807 119.052 26.877 118.881Z" fill="#161616"/>
<path d="M54.6907 119.166C54.6907 119.166 58.4106 117.568 58.6396 116.826H53.3172C52.7449 116.826 52.2298 117.112 51.8864 117.511L51.0852 118.596L54.6907 119.166Z" fill="#FFA683"/>
<path d="M34.4314 146.849C34.4314 146.849 32.1422 131.381 31.7416 129.897C31.7988 129.954 31.856 130.011 31.9705 130.068C31.7988 129.897 31.6843 129.84 31.6843 129.84C31.6843 129.84 26.0186 128.47 24.0155 126.073C24.0155 126.073 25.9613 130.011 28.4222 130.924C30.6542 131.723 29.853 143.596 31.5699 147.819C32.2566 147.648 32.9434 147.42 33.6301 147.134L34.4314 146.849Z" fill="black"/>
<path d="M27.2203 95.9929C27.2203 95.9929 28.136 92.6253 29.5668 92.397V96.792L27.2203 95.9929Z" fill="#FFA683"/>
<path d="M60.1848 113.288C60.0703 112.203 59.4408 111.233 58.5251 110.605L56.1787 109.064L54.2329 108.322L52.2871 107.58L50.6846 106.952L49.9979 106.667L48.2237 107.58L46.4496 106.667L45.8201 106.895L44.2749 107.466L42.2146 108.265L40.2115 109.007V109.064L37.9223 110.548C37.0066 111.176 36.3771 112.146 36.2627 113.23L36.1791 117.009H60.4453L60.1848 113.288Z" fill="#3498DB"/>
<path d="M48.2242 94.9653C45.5916 94.9653 43.4741 97.0772 43.4741 99.7028V101.986H52.9743V99.7028C52.9743 97.0772 50.8568 94.9653 48.2242 94.9653Z" fill="#0A4D7A"/>
<path d="M50.1123 105.524V107.18C50.1123 107.18 50.1123 107.237 50.0551 107.294C49.8261 108.264 48.9677 110.148 48.1665 110.148C47.3652 110.148 46.564 108.207 46.3923 107.18V107.123V105.467H50.1123V105.524Z" fill="#FFA683"/>
<path d="M50.1124 105.182V106.666C49.5401 106.952 48.9106 107.123 48.2238 107.123C47.537 107.123 46.9075 106.952 46.3352 106.666V105.182H50.1124Z" fill="#E57C5C"/>
<path d="M45.7057 101.986C45.7057 101.358 45.1906 100.845 44.5611 100.845C43.9316 100.845 43.4165 101.358 43.4165 101.986C43.4165 102.614 43.9316 103.128 44.5611 103.128C45.1906 103.128 45.7057 102.614 45.7057 101.986Z" fill="#FFA683"/>
<path d="M52.9739 101.986C52.9739 101.358 52.4588 100.845 51.8293 100.845C51.1998 100.845 50.6847 101.358 50.6847 101.986C50.6847 102.614 51.1998 103.128 51.8293 103.128C52.4016 103.128 52.9739 102.614 52.9739 101.986Z" fill="#FFA683"/>
<path d="M52.0009 100.046C50.6274 99.3036 50.1123 98.6758 50.1123 98.6758H46.3924C46.1062 99.5319 44.5038 100.046 44.5038 100.046L44.4465 101.929C44.4465 103.014 44.9044 104.326 45.6484 105.354C45.9345 105.753 46.3351 106.096 46.793 106.324C47.2508 106.552 47.7086 106.667 48.2237 106.667C49.2539 106.667 50.2268 106.21 50.7991 105.354C51.5431 104.326 52.0009 103.014 52.0009 101.929V100.046Z" fill="#FFA683"/>
<path d="M155.816 125.274H73.405C71.1158 125.274 69.2272 127.158 69.2272 129.441V149.818C69.2272 152.101 71.1158 153.984 73.405 153.984H155.873C158.163 153.984 160.051 152.101 160.051 149.818V129.441C159.994 127.158 158.163 125.274 155.816 125.274Z" fill="#E9F5FF"/>
<path d="M109.345 134.864L109.918 136.577C109.975 136.691 110.089 136.805 110.204 136.805H112.035C112.321 136.805 112.436 137.148 112.207 137.319L110.719 138.403C110.604 138.46 110.547 138.632 110.604 138.746L111.177 140.458C111.291 140.743 110.948 140.972 110.719 140.8L109.231 139.716C109.116 139.659 109.002 139.659 108.888 139.716L107.4 140.8C107.171 140.972 106.884 140.743 106.942 140.458L107.514 138.746C107.571 138.632 107.514 138.517 107.4 138.403L105.912 137.319C105.683 137.148 105.797 136.805 106.083 136.805H107.915C108.029 136.805 108.144 136.748 108.201 136.577L108.773 134.864C108.888 134.579 109.231 134.579 109.345 134.864Z" fill="#FFD255"/>
<path d="M119.361 134.863L119.933 136.576C119.99 136.69 120.105 136.804 120.219 136.804H122.05C122.337 136.804 122.451 137.146 122.222 137.318L120.734 138.402C120.62 138.459 120.562 138.63 120.62 138.744L121.192 140.457C121.306 140.742 120.963 140.971 120.734 140.799L119.246 139.715C119.132 139.658 119.017 139.658 118.903 139.715L117.415 140.799C117.186 140.971 116.9 140.742 116.957 140.457L117.529 138.744C117.586 138.63 117.529 138.516 117.415 138.402L115.927 137.318C115.698 137.146 115.812 136.804 116.099 136.804H117.93C118.044 136.804 118.159 136.747 118.216 136.576L118.788 134.863C118.903 134.578 119.303 134.578 119.361 134.863Z" fill="#FFD255"/>
<path d="M129.433 134.863L130.005 136.576C130.063 136.69 130.177 136.804 130.291 136.804H132.123C132.409 136.804 132.523 137.146 132.295 137.318L130.807 138.402C130.692 138.459 130.635 138.63 130.692 138.744L131.264 140.457C131.379 140.742 131.035 140.971 130.807 140.799L129.319 139.715C129.204 139.658 129.09 139.658 128.975 139.715L127.487 140.799C127.258 140.971 126.972 140.742 127.029 140.457L127.602 138.744C127.659 138.63 127.602 138.516 127.487 138.402L125.999 137.318C125.77 137.146 125.885 136.804 126.171 136.804H128.002C128.117 136.804 128.231 136.747 128.288 136.576L128.861 134.863C128.975 134.578 129.319 134.578 129.433 134.863Z" fill="#FFD255"/>
<path d="M139.448 134.863L140.021 136.576C140.078 136.69 140.192 136.804 140.307 136.804H142.138C142.424 136.804 142.539 137.146 142.31 137.318L140.822 138.402C140.707 138.459 140.65 138.63 140.707 138.744L141.28 140.457C141.394 140.742 141.051 140.971 140.822 140.799L139.334 139.715C139.219 139.658 139.105 139.658 138.99 139.715L137.502 140.799C137.274 140.971 136.987 140.742 137.045 140.457L137.617 138.744C137.674 138.63 137.617 138.516 137.502 138.402L136.014 137.318C135.786 137.146 135.9 136.804 136.186 136.804H138.018C138.132 136.804 138.246 136.747 138.304 136.576L138.876 134.863C138.99 134.578 139.391 134.578 139.448 134.863Z" fill="#FFD255"/>
<path d="M149.521 134.863L150.093 136.576C150.15 136.69 150.265 136.804 150.379 136.804H152.211C152.497 136.804 152.611 137.146 152.382 137.318L150.894 138.402C150.78 138.459 150.723 138.63 150.78 138.744L151.352 140.457C151.467 140.742 151.123 140.971 150.894 140.799L149.406 139.715C149.292 139.658 149.177 139.658 149.063 139.715L147.575 140.799C147.346 140.971 147.06 140.742 147.117 140.457L147.689 138.744C147.747 138.63 147.689 138.516 147.575 138.402L146.087 137.318C145.858 137.146 145.973 136.804 146.259 136.804H148.09C148.204 136.804 148.319 136.747 148.376 136.576L148.948 134.863C149.006 134.578 149.406 134.578 149.521 134.863Z" fill="#FFD255"/>
<path d="M135.042 143.596H105.854V144.395H135.042V143.596Z" fill="#3498DB"/>
<path d="M135.042 130.297H105.855V131.838H135.042V130.297Z" fill="#3498DB"/>
<path d="M135.042 146.678H105.854V147.477H135.042V146.678Z" fill="#3498DB"/>
<path d="M119.189 149.532H105.854V150.331H119.189V149.532Z" fill="#3498DB"/>
<path d="M97.724 145.818C101.091 140.334 99.3631 133.166 93.8643 129.807C88.3656 126.449 81.1784 128.173 77.8113 133.657C74.4442 139.141 76.1722 146.309 81.671 149.667C87.1697 153.025 94.3569 151.302 97.724 145.818Z" fill="white"/>
<path d="M83.0768 137.261C83.0768 137.261 82.39 134.635 83.4202 133.436C84.4503 132.295 86.5106 131.039 88.1703 131.667C88.1703 131.667 89.4865 130.868 90.6884 131.553C91.8902 132.238 93.6071 132.809 93.7788 132.009C93.7788 132.009 93.8933 135.035 92.5197 135.548L91.9474 137.888H83.2485L83.0768 137.261Z" fill="#161616"/>
<path d="M96.9837 147.535C95.4957 145.023 89.2576 143.596 89.2576 143.596L87.5979 144.224L85.9383 143.596C85.9383 143.596 79.7002 145.023 78.2122 147.535L76.3809 161.176L79.2424 161.119L80.902 149.703C80.902 149.703 81.9894 153.414 81.9322 155.525C81.8749 157.694 81.1882 161.233 81.1882 161.233H87.369H87.7124H93.8932C93.8932 161.233 93.2065 157.694 93.1492 155.525C93.092 153.356 94.1794 149.703 94.1794 149.703L95.8391 161.119L98.7005 161.176L96.9837 147.535Z" fill="#161616"/>
<path d="M89.5438 141.255V143.595C89.5438 143.595 89.2004 145.422 87.6552 145.764C86.0528 145.364 85.7666 143.595 85.7666 143.595V141.255H89.5438Z" fill="#FFA683"/>
<path d="M89.5438 140.914V142.398C88.9715 142.683 88.3419 142.854 87.6552 142.854C86.9684 142.854 86.3389 142.683 85.7666 142.398V140.914H89.5438Z" fill="#E57C5C"/>
<path d="M91.4896 136.176C89.7727 136.119 88.6281 134.806 88.6281 134.806C87.598 135.719 83.8781 136.176 83.8781 136.176V137.66C83.8781 138.745 84.3359 140.114 85.0799 141.142C85.7094 141.998 86.6823 142.455 87.7125 142.455C88.7426 142.455 89.7155 141.998 90.345 141.142C91.089 140.114 91.5469 138.802 91.5469 137.66L91.4896 136.176Z" fill="#FFA683"/>
<path d="M84.7937 137.774C84.7937 138.345 84.3358 138.802 83.7635 138.802C83.1912 138.802 82.7334 138.345 82.7334 137.774C82.7334 137.204 83.1912 136.747 83.7635 136.747C84.3358 136.747 84.7937 137.204 84.7937 137.774Z" fill="#FFA683"/>
<path d="M92.5198 137.774C92.5198 138.345 92.0619 138.802 91.4896 138.802C90.9173 138.802 90.4595 138.345 90.4595 137.774C90.4595 137.204 90.9173 136.747 91.4896 136.747C92.0619 136.747 92.5198 137.204 92.5198 137.774Z" fill="#FFA683"/>
<path d="M201.772 152.043L202.63 151.758C202.745 150.274 202.115 147.819 198.796 144.052C192.672 137.032 187.35 127.043 188.723 123.105C188.723 123.105 182.714 132.123 186.778 138.116C190.555 143.71 200.684 144.908 201.772 152.043Z" fill="#00BD7E"/>
<path d="M202.115 151.929L202.63 151.758C202.745 150.274 202.115 147.819 198.796 144.052C192.672 137.032 187.35 127.043 188.723 123.105C188.723 123.105 185.518 131.381 189.696 136.975C193.76 142.454 201.028 143.596 202.115 151.929Z" fill="#009562"/>
<path d="M204.233 146.05C203.889 147.534 203.489 148.675 203.088 149.532L203.489 149.589C205.32 147.191 208.239 142.34 208.925 136.29C209.898 127.386 211.157 116.255 211.157 116.255C211.157 116.255 202.058 123.733 204.118 134.121C205.148 139.315 204.862 143.253 204.233 146.05Z" fill="#00BD7E"/>
<path d="M207.437 129.897C206.922 137.317 205.549 145.479 203.718 148.733C204.004 148.504 204.29 148.333 204.576 148.105C206.293 145.422 208.41 141.313 208.925 136.347C209.898 127.443 211.157 116.312 211.157 116.312C211.157 116.312 208.124 120.194 207.437 129.897Z" fill="#009562"/>
<path d="M205.892 149.474C205.091 150.331 204.404 150.959 203.832 151.415L204.061 151.586C206.178 150.616 209.956 148.447 212.645 144.623C216.594 138.972 221.573 131.952 221.573 131.952C221.573 131.952 212.703 133.664 210.185 141.369C208.983 145.251 207.323 147.819 205.892 149.474Z" fill="#00BD7E"/>
<path d="M214.019 139.771C210.929 144.566 206.98 149.589 204.519 151.073C204.748 151.016 205.034 151.016 205.32 150.959C207.495 149.817 210.413 147.819 212.645 144.623C216.594 138.972 221.573 131.952 221.573 131.952C221.573 131.952 218.025 133.493 214.019 139.771Z" fill="#009562"/>
<path d="M202.459 149.189C203.031 150.787 203.431 151.872 203.66 152.614L204.004 152.557C203.489 149.76 202.573 144.965 201.715 141.826C200.455 137.203 201.428 134.92 200.455 126.872C199.425 118.767 194.618 108.093 194.618 108.093C194.618 108.093 191.528 119.338 195.934 130.125C200.398 140.856 199.998 142.226 202.459 149.189Z" fill="#00BD7E"/>
<path d="M203.718 152.614H203.775L203.832 151.472C203.317 148.618 202.516 144.566 201.772 141.826C200.513 137.203 201.486 134.92 200.513 126.872C199.483 118.767 194.675 108.093 194.675 108.093C194.675 108.093 196.163 124.132 198.395 131.153C200.398 137.659 203.26 150.73 203.718 152.614Z" fill="#009562"/>
<path d="M194.503 151.016L196.449 162.489C196.621 163.573 197.537 164.315 198.624 164.315H209.898C210.986 164.315 211.901 163.516 212.073 162.489L214.019 151.016C214.191 149.989 213.389 149.018 212.359 149.018H196.163C195.133 149.018 194.332 149.989 194.503 151.016Z" fill="#FFD255"/>
<path d="M214.021 150.445C214.021 150.331 213.963 150.217 213.906 150.102C213.849 149.988 213.849 149.931 213.792 149.817C213.792 149.817 213.792 149.76 213.734 149.76C213.677 149.703 213.62 149.589 213.563 149.532L213.506 149.475C213.448 149.418 213.391 149.36 213.334 149.303C213.277 149.246 213.219 149.246 213.219 149.246C213.162 149.189 213.105 149.189 213.048 149.132C212.99 149.075 212.933 149.075 212.819 149.075C212.762 149.075 212.762 149.018 212.704 149.018C212.59 149.018 212.475 148.961 212.361 148.961H207.267H196.222C195.249 148.961 194.505 149.76 194.505 150.73H208.927C208.927 150.787 208.927 150.902 208.927 150.959L206.981 162.431C206.81 163.516 205.894 164.258 204.807 164.258H209.9C210.987 164.258 211.903 163.459 212.075 162.431L214.021 150.959C214.078 150.787 214.078 150.616 214.021 150.445Z" fill="#F9CB4B"/>
<path d="M138.647 113.059C137.96 111.803 137.56 110.376 137.56 108.835C137.617 104.326 141.451 100.673 145.973 100.73C150.665 100.787 154.385 104.726 154.099 109.52C153.87 113.63 150.551 116.94 146.43 117.226C145.171 117.34 144.027 117.111 142.939 116.712C142.424 116.541 141.852 116.484 141.337 116.655L138.132 117.625L138.933 115.057C139.048 114.372 138.99 113.63 138.647 113.059Z" fill="#FFD255"/>
<path d="M145.686 104.497L144.828 107.123C144.771 107.294 144.656 107.351 144.485 107.351H141.738C141.394 107.351 141.222 107.808 141.509 107.979L143.741 109.577C143.855 109.691 143.912 109.805 143.855 109.977L142.997 112.602C142.882 112.945 143.283 113.23 143.569 113.002L145.801 111.404C145.915 111.29 146.087 111.29 146.201 111.404L148.433 113.002C148.72 113.23 149.063 112.945 149.006 112.602L148.147 109.977C148.09 109.805 148.147 109.691 148.262 109.577L150.494 107.979C150.78 107.751 150.608 107.351 150.265 107.351H147.518C147.346 107.351 147.232 107.237 147.174 107.123L146.316 104.497C146.259 104.212 145.801 104.212 145.686 104.497Z" fill="white"/>
<path fill-rule="evenodd" clip-rule="evenodd" d="M142.241 13.3219C146.635 15.1439 148.722 20.1867 146.902 24.5852C146.483 25.5965 145.895 26.4856 145.183 27.2333L146.887 32.5129L141.891 29.387C139.938 30.0993 137.722 30.1097 135.65 29.2505C131.256 27.4286 129.17 22.3858 130.99 17.9872C132.81 13.5887 137.847 11.4999 142.241 13.3219Z" fill="#F1004F"/>
<path d="M134.723 20.3966C134.723 20.2157 134.723 20.0349 134.783 19.854C135.024 18.7087 136.048 17.8647 137.192 17.8647C137.854 17.8647 138.517 18.4073 138.938 18.8293C139.36 18.4073 140.022 17.8647 140.685 17.8647C141.889 17.8647 142.852 18.7087 143.093 19.854C143.154 20.0349 143.154 20.2157 143.154 20.3966C143.154 20.4569 143.154 20.4569 143.154 20.5172C143.154 20.5774 143.154 20.6377 143.154 20.6377C143.154 23.2901 138.938 25.4603 138.938 25.4603C138.938 25.4603 134.723 23.2901 134.723 20.6377C134.723 20.5774 134.723 20.5172 134.723 20.5172C134.723 20.4569 134.723 20.4569 134.723 20.3966Z" fill="white"/>
<path fill-rule="evenodd" clip-rule="evenodd" d="M187.709 45.1753H194.276C196.264 45.1753 197.889 43.6079 197.889 41.6186V28.8991C197.889 26.9098 196.264 25.2822 194.276 25.2822H173.742C171.755 25.2822 170.129 26.9098 170.129 28.8991V41.5583C170.129 43.5477 171.755 45.1753 173.742 45.1753H180.756C180.446 46.7467 179.575 48.9739 177.295 51.4445C177.295 51.4445 184.07 49.4942 187.709 45.1753Z" fill="#3498DB"/>
<path d="M178.981 35.2286C178.981 36.2534 178.138 37.0973 177.114 37.0973C176.09 37.0973 175.247 36.2534 175.247 35.2286C175.247 34.2038 176.09 33.3599 177.114 33.3599C178.138 33.3599 178.981 34.2038 178.981 35.2286Z" fill="#FFFFF6"/>
<path d="M185.906 35.2286C185.906 36.2534 185.063 37.0973 184.039 37.0973C183.016 37.0973 182.172 36.2534 182.172 35.2286C182.172 34.2038 183.016 33.3599 184.039 33.3599C185.063 33.3599 185.906 34.2038 185.906 35.2286Z" fill="#FFFFF6"/>
<path d="M192.831 35.2286C192.831 36.2534 191.988 37.0973 190.964 37.0973C189.941 37.0973 189.098 36.2534 189.098 35.2286C189.098 34.2038 189.941 33.3599 190.964 33.3599C191.988 33.3599 192.831 34.2038 192.831 35.2286Z" fill="#FFFFF6"/>
<path fill-rule="evenodd" clip-rule="evenodd" d="M16.9953 78.1764C15.742 78.6331 14.3891 78.8823 12.9781 78.8823C6.49291 78.8823 1.2356 73.6194 1.2356 67.1273C1.2356 60.6352 6.49291 55.3723 12.9781 55.3723C19.4633 55.3723 24.7207 60.6352 24.7207 67.1273C24.7207 70.263 23.4941 73.112 21.4951 75.2197L23.8174 82.4387L16.9953 78.1764Z" fill="#FFD255"/>
<path d="M18.0365 65.5596C18.0365 64.8363 17.4946 64.2937 16.772 64.2937H14.7245C14.7245 63.6909 14.6643 62.7867 14.6041 62.1236C14.6041 61.7016 14.3632 61.4605 14.1826 61.3399C13.7008 60.9782 12.9782 61.1591 12.8578 61.2193C12.6771 61.2796 12.4965 61.4605 12.5567 61.7016C12.6771 63.0278 11.8341 64.5951 10.9308 65.3185C10.9308 65.3185 10.8104 65.3788 10.7502 65.3788V65.0774C10.7502 64.8363 10.5695 64.6554 10.3286 64.6554H7.98012C7.73925 64.6554 7.55859 64.8363 7.55859 65.0774V71.2261C7.55859 71.4673 7.73925 71.6481 7.98012 71.6481H10.3286C10.5695 71.6481 10.7502 71.4673 10.7502 71.2261V70.985H16.3504C16.8924 70.985 17.3139 70.6233 17.3742 70.0808C17.4344 69.5985 17.0128 69.4177 16.9526 69.2971C17.2537 69.056 17.9161 68.9354 17.9161 68.5135C17.9161 68.0915 17.4946 68.0312 17.4946 67.9106C17.7957 67.6695 18.157 67.3078 18.157 66.8858C18.157 66.6447 17.9161 66.4036 17.7355 66.1625C17.7957 66.0419 18.0365 65.8008 18.0365 65.5596Z" fill="white"/>
</svg>
