<svg width="165" height="83" viewBox="0 0 165 83" fill="none" xmlns="http://www.w3.org/2000/svg">
<path d="M145 0.356689H93L43 82.3567H95.5L145 0.356689Z" fill="#27AE60" fill-opacity="0.2"/>
<path fill-rule="evenodd" clip-rule="evenodd" d="M32 23.3567C32 24.4613 31.1046 25.3567 30 25.3567C28.8954 25.3567 28 24.4613 28 23.3567C28 22.2521 28.8954 21.3567 30 21.3567C31.1046 21.3567 32 22.2521 32 23.3567ZM25 33.3567C25 34.4613 24.1046 35.3567 23 35.3567C21.8954 35.3567 21 34.4613 21 33.3567C21 32.2521 21.8954 31.3567 23 31.3567C24.1046 31.3567 25 32.2521 25 33.3567ZM16 45.3567C17.1046 45.3567 18 44.4613 18 43.3567C18 42.2521 17.1046 41.3567 16 41.3567C14.8954 41.3567 14 42.2521 14 43.3567C14 44.4613 14.8954 45.3567 16 45.3567ZM11 53.3567C11 54.4613 10.1046 55.3567 9 55.3567C7.89543 55.3567 7 54.4613 7 53.3567C7 52.2521 7.89543 51.3567 9 51.3567C10.1046 51.3567 11 52.2521 11 53.3567ZM2 65.3567C3.10457 65.3567 4 64.4613 4 63.3567C4 62.2521 3.10457 61.3567 2 61.3567C0.895431 61.3567 0 62.2521 0 63.3567C0 64.4613 0.895431 65.3567 2 65.3567ZM42 23.3567C42 24.4613 41.1046 25.3567 40 25.3567C38.8954 25.3567 38 24.4613 38 23.3567C38 22.2521 38.8954 21.3567 40 21.3567C41.1046 21.3567 42 22.2521 42 23.3567ZM33 35.3567C34.1046 35.3567 35 34.4613 35 33.3567C35 32.2521 34.1046 31.3567 33 31.3567C31.8954 31.3567 31 32.2521 31 33.3567C31 34.4613 31.8954 35.3567 33 35.3567ZM28 43.3567C28 44.4613 27.1046 45.3567 26 45.3567C24.8954 45.3567 24 44.4613 24 43.3567C24 42.2521 24.8954 41.3567 26 41.3567C27.1046 41.3567 28 42.2521 28 43.3567ZM19 55.3567C20.1046 55.3567 21 54.4613 21 53.3567C21 52.2521 20.1046 51.3567 19 51.3567C17.8954 51.3567 17 52.2521 17 53.3567C17 54.4613 17.8954 55.3567 19 55.3567ZM14 63.3567C14 64.4613 13.1046 65.3567 12 65.3567C10.8954 65.3567 10 64.4613 10 63.3567C10 62.2521 10.8954 61.3567 12 61.3567C13.1046 61.3567 14 62.2521 14 63.3567ZM50 25.3567C51.1046 25.3567 52 24.4613 52 23.3567C52 22.2521 51.1046 21.3567 50 21.3567C48.8954 21.3567 48 22.2521 48 23.3567C48 24.4613 48.8954 25.3567 50 25.3567ZM45 33.3567C45 34.4613 44.1046 35.3567 43 35.3567C41.8954 35.3567 41 34.4613 41 33.3567C41 32.2521 41.8954 31.3567 43 31.3567C44.1046 31.3567 45 32.2521 45 33.3567ZM36 45.3567C37.1046 45.3567 38 44.4613 38 43.3567C38 42.2521 37.1046 41.3567 36 41.3567C34.8954 41.3567 34 42.2521 34 43.3567C34 44.4613 34.8954 45.3567 36 45.3567ZM31 53.3567C31 54.4613 30.1046 55.3567 29 55.3567C27.8954 55.3567 27 54.4613 27 53.3567C27 52.2521 27.8954 51.3567 29 51.3567C30.1046 51.3567 31 52.2521 31 53.3567ZM22 65.3567C23.1046 65.3567 24 64.4613 24 63.3567C24 62.2521 23.1046 61.3567 22 61.3567C20.8954 61.3567 20 62.2521 20 63.3567C20 64.4613 20.8954 65.3567 22 65.3567ZM62 23.3567C62 24.4613 61.1046 25.3567 60 25.3567C58.8954 25.3567 58 24.4613 58 23.3567C58 22.2521 58.8954 21.3567 60 21.3567C61.1046 21.3567 62 22.2521 62 23.3567ZM53 35.3567C54.1046 35.3567 55 34.4613 55 33.3567C55 32.2521 54.1046 31.3567 53 31.3567C51.8954 31.3567 51 32.2521 51 33.3567C51 34.4613 51.8954 35.3567 53 35.3567ZM48 43.3567C48 44.4613 47.1046 45.3567 46 45.3567C44.8954 45.3567 44 44.4613 44 43.3567C44 42.2521 44.8954 41.3567 46 41.3567C47.1046 41.3567 48 42.2521 48 43.3567ZM39 55.3567C40.1046 55.3567 41 54.4613 41 53.3567C41 52.2521 40.1046 51.3567 39 51.3567C37.8954 51.3567 37 52.2521 37 53.3567C37 54.4613 37.8954 55.3567 39 55.3567ZM34 63.3567C34 64.4613 33.1046 65.3567 32 65.3567C30.8954 65.3567 30 64.4613 30 63.3567C30 62.2521 30.8954 61.3567 32 61.3567C33.1046 61.3567 34 62.2521 34 63.3567ZM70 25.3567C71.1046 25.3567 72 24.4613 72 23.3567C72 22.2521 71.1046 21.3567 70 21.3567C68.8954 21.3567 68 22.2521 68 23.3567C68 24.4613 68.8954 25.3567 70 25.3567ZM65 33.3567C65 34.4613 64.1046 35.3567 63 35.3567C61.8954 35.3567 61 34.4613 61 33.3567C61 32.2521 61.8954 31.3567 63 31.3567C64.1046 31.3567 65 32.2521 65 33.3567ZM56 45.3567C57.1046 45.3567 58 44.4613 58 43.3567C58 42.2521 57.1046 41.3567 56 41.3567C54.8954 41.3567 54 42.2521 54 43.3567C54 44.4613 54.8954 45.3567 56 45.3567ZM51 53.3567C51 54.4613 50.1046 55.3567 49 55.3567C47.8954 55.3567 47 54.4613 47 53.3567C47 52.2521 47.8954 51.3567 49 51.3567C50.1046 51.3567 51 52.2521 51 53.3567ZM42 65.3567C43.1046 65.3567 44 64.4613 44 63.3567C44 62.2521 43.1046 61.3567 42 61.3567C40.8954 61.3567 40 62.2521 40 63.3567C40 64.4613 40.8954 65.3567 42 65.3567ZM82 23.3567C82 24.4613 81.1046 25.3567 80 25.3567C78.8954 25.3567 78 24.4613 78 23.3567C78 22.2521 78.8954 21.3567 80 21.3567C81.1046 21.3567 82 22.2521 82 23.3567ZM73 35.3567C74.1046 35.3567 75 34.4613 75 33.3567C75 32.2521 74.1046 31.3567 73 31.3567C71.8954 31.3567 71 32.2521 71 33.3567C71 34.4613 71.8954 35.3567 73 35.3567ZM68 43.3567C68 44.4613 67.1046 45.3567 66 45.3567C64.8954 45.3567 64 44.4613 64 43.3567C64 42.2521 64.8954 41.3567 66 41.3567C67.1046 41.3567 68 42.2521 68 43.3567ZM59 55.3567C60.1046 55.3567 61 54.4613 61 53.3567C61 52.2521 60.1046 51.3567 59 51.3567C57.8954 51.3567 57 52.2521 57 53.3567C57 54.4613 57.8954 55.3567 59 55.3567ZM54 63.3567C54 64.4613 53.1046 65.3567 52 65.3567C50.8954 65.3567 50 64.4613 50 63.3567C50 62.2521 50.8954 61.3567 52 61.3567C53.1046 61.3567 54 62.2521 54 63.3567ZM90 25.3567C91.1046 25.3567 92 24.4613 92 23.3567C92 22.2521 91.1046 21.3567 90 21.3567C88.8954 21.3567 88 22.2521 88 23.3567C88 24.4613 88.8954 25.3567 90 25.3567ZM85 33.3567C85 34.4613 84.1046 35.3567 83 35.3567C81.8954 35.3567 81 34.4613 81 33.3567C81 32.2521 81.8954 31.3567 83 31.3567C84.1046 31.3567 85 32.2521 85 33.3567ZM76 45.3567C77.1046 45.3567 78 44.4613 78 43.3567C78 42.2521 77.1046 41.3567 76 41.3567C74.8954 41.3567 74 42.2521 74 43.3567C74 44.4613 74.8954 45.3567 76 45.3567ZM71 53.3567C71 54.4613 70.1046 55.3567 69 55.3567C67.8954 55.3567 67 54.4613 67 53.3567C67 52.2521 67.8954 51.3567 69 51.3567C70.1046 51.3567 71 52.2521 71 53.3567ZM62 65.3567C63.1046 65.3567 64 64.4613 64 63.3567C64 62.2521 63.1046 61.3567 62 61.3567C60.8954 61.3567 60 62.2521 60 63.3567C60 64.4613 60.8954 65.3567 62 65.3567Z" fill="#99A9B0"/>
<path fill-rule="evenodd" clip-rule="evenodd" d="M115 81.2377L163.72 0L165 0.76228L116.28 82L115 81.2377Z" fill="#99A9B0"/>
</svg>
