<svg width="143" height="136" viewBox="0 0 143 136" fill="none" xmlns="http://www.w3.org/2000/svg">
<circle cx="88.25" cy="81.5" r="54.5" transform="rotate(90 88.25 81.5)" fill="#EBF5FB"/>
<path fill-rule="evenodd" clip-rule="evenodd" d="M48.75 96C74.8455 96 96 74.8455 96 48.75L97.5 48.75C97.5 75.6739 75.6739 97.5 48.75 97.5L48.75 96ZM48.75 79C65.4566 79 79 65.4566 79 48.75L80.5 48.75C80.5 66.285 66.285 80.5 48.75 80.5L48.75 79ZM62 48.75C62 56.0678 56.0678 62 48.75 62L48.75 63.5C56.8962 63.5 63.5 56.8962 63.5 48.75L62 48.75ZM35.5 48.75C35.5 41.4322 41.4322 35.5 48.75 35.5L48.75 34C40.6038 34 34 40.6038 34 48.75L35.5 48.75ZM18.5 48.75C18.5 32.0434 32.0434 18.5 48.75 18.5L48.75 17C31.215 17 17 31.215 17 48.75L18.5 48.75ZM1.5 48.75C1.5 22.6545 22.6545 1.5 48.75 1.5L48.75 -2.13093e-06C21.8261 -3.30781e-06 -9.5405e-07 21.8261 -2.13093e-06 48.75L1.5 48.75Z" fill="#99A9B0"/>
</svg>
