<svg width="136" height="143" viewBox="0 0 136 143" fill="none" xmlns="http://www.w3.org/2000/svg">
<circle cx="54.5" cy="88.25" r="54.5" transform="rotate(-180 54.5 88.25)" fill="#EBF5FB"/>
<path fill-rule="evenodd" clip-rule="evenodd" d="M40 48.75C40 74.8454 61.1545 96 87.25 96L87.25 97.5C60.3261 97.5 38.5 75.6739 38.5 48.75L40 48.75ZM57 48.75C57 65.4566 70.5434 79 87.25 79L87.25 80.5C69.715 80.5 55.5 66.285 55.5 48.75L57 48.75ZM87.25 62C79.9322 62 74 56.0678 74 48.75L72.5 48.75C72.5 56.8962 79.1038 63.5 87.25 63.5L87.25 62ZM87.25 35.5C94.5678 35.5 100.5 41.4322 100.5 48.75L102 48.75C102 40.6038 95.3962 34 87.25 34L87.25 35.5ZM87.25 18.5C103.957 18.5 117.5 32.0434 117.5 48.75L119 48.75C119 31.215 104.785 17 87.25 17L87.25 18.5ZM87.25 1.5C113.345 1.5 134.5 22.6545 134.5 48.75L136 48.75C136 21.8261 114.174 -1.9081e-06 87.25 -4.26186e-06L87.25 1.5Z" fill="#99A9B0"/>
</svg>
