<svg width="1046" height="617" viewBox="0 0 1046 617" fill="none" xmlns="http://www.w3.org/2000/svg">
<path d="M1035.5 358.283H843.8V159.983H1035.5V358.283ZM847.8 354.283H1031.5V163.983H847.8V354.283Z" fill="#EBEBEB"/>
<path d="M940.1 165.083H936.1V356.283H940.1V165.083Z" fill="#EBEBEB"/>
<path d="M1039.1 168.083H840.2V173.683H1039.1V168.083Z" fill="#EBEBEB"/>
<path d="M1039.1 174.383H840.2V179.983H1039.1V174.383Z" fill="#EBEBEB"/>
<path d="M1039.1 180.583H840.2V186.183H1039.1V180.583Z" fill="#EBEBEB"/>
<path d="M1039.1 186.883H840.2V192.483H1039.1V186.883Z" fill="#EBEBEB"/>
<path d="M1039.1 193.183H840.2V198.783H1039.1V193.183Z" fill="#EBEBEB"/>
<path d="M1039.1 199.383H840.2V204.983H1039.1V199.383Z" fill="#EBEBEB"/>
<path d="M1039.1 205.683H840.2V211.283H1039.1V205.683Z" fill="#EBEBEB"/>
<path d="M1039.1 211.982H840.2V217.582H1039.1V211.982Z" fill="#EBEBEB"/>
<path d="M1039.1 218.183H840.2V223.783H1039.1V218.183Z" fill="#EBEBEB"/>
<path d="M1027.2 166.983H1026.2V295.383H1027.2V166.983Z" fill="#263238"/>
<path d="M1028.5 299.983H1025L1025.9 294.883H1027.6L1028.5 299.983Z" fill="#263238"/>
<path d="M1030.8 166.983H1029.8V352.683H1030.8V166.983Z" fill="#263238"/>
<path d="M1032.1 356.483H1028.6L1029.5 351.383H1031.2L1032.1 356.483Z" fill="#263238"/>
<path d="M1045.4 159.183H834V170.883H1045.4V159.183Z" fill="#DBDBDB"/>
<path d="M328.5 387.975C329.4 388.975 329.4 390.375 328.5 391.375C328 391.775 327.5 392.075 326.9 392.075C326.3 392.075 325.7 391.875 325.2 391.375L314.7 380.675C314.6 380.675 314.6 380.575 314.5 380.475L314.4 380.375C314.3 380.275 314.3 380.175 314.3 380.075C314.2 380.075 314.2 379.975 314.2 379.975C314.2 379.875 314.2 379.775 314.1 379.775C314.1 379.675 314 379.675 314 379.575C314 379.475 314 379.375 314 379.275C314 379.175 314 379.175 314 379.075C314 379.075 314 378.975 314 378.875C314 378.775 314 378.675 314 378.575C314 378.475 314.1 378.475 314.1 378.475C314.1 378.375 314.1 378.275 314.2 378.175C314.2 378.175 314.2 378.175 314.2 378.075C314.3 377.975 314.3 377.775 314.4 377.775C314.4 377.775 314.4 377.675 314.5 377.675C314.5 377.575 314.6 377.475 314.7 377.375L325.2 366.675C326.1 365.775 327.7 365.775 328.6 366.675C329.5 367.575 329.5 369.075 328.6 370.075L319.7 378.975L328.5 387.975Z" fill="#EBEBEB"/>
<path d="M338.1 389.175L347.3 367.375C347.8 366.375 348.9 365.875 350 366.275C351 366.675 351.5 367.875 351 368.975L341.8 390.875C341.5 391.675 340.7 392.075 339.9 392.075C339.7 392.075 339.4 392.075 339.2 391.975C338.1 391.375 337.6 390.175 338.1 389.175Z" fill="#EBEBEB"/>
<path d="M369.2 380.375C369.1 380.475 369 380.575 368.9 380.675L358.4 391.375C358 391.775 357.3 392.075 356.7 392.075C356.1 392.075 355.5 391.875 355 391.375C354.1 390.475 354.1 388.975 355 387.975L363.9 378.975L355 370.075C354.1 369.175 354.1 367.675 355 366.675C355.9 365.775 357.4 365.775 358.4 366.675L368.9 377.375C369 377.475 369.1 377.575 369.2 377.675V377.775C369.3 377.875 369.4 377.975 369.4 378.075C369.4 378.075 369.4 378.075 369.4 378.175C369.4 378.275 369.4 378.375 369.5 378.475C369.5 378.475 369.5 378.475 369.5 378.575C369.5 378.675 369.5 378.775 369.5 378.875C369.5 378.875 369.5 378.975 369.5 379.075C369.5 379.075 369.5 379.175 369.5 379.275C369.5 379.375 369.5 379.475 369.5 379.575C369.5 379.575 369.5 379.575 369.5 379.675C369.4 379.775 369.4 379.975 369.4 379.975C369.4 379.975 369.4 379.975 369.4 380.075C369.3 380.075 369.3 380.175 369.2 380.375Z" fill="#EBEBEB"/>
<path d="M300.2 246.7C300.2 250.9 297 254.3 292.9 254.6H248.3C243.2 254.6 239 250.5 239 245.3C239 240.5 242.7 236.5 247.4 236.1C247.7 227.7 254.5 221 263 221C269.7 221 275.5 225.3 277.6 231.2C278.8 230.6 280.2 230.2 281.7 230.2C286.6 230.2 290.6 234 290.9 238.9C291.3 238.8 291.7 238.8 292.2 238.8C296.7 238.8 300.2 242.4 300.2 246.7Z" fill="#EBF5FB"/>
<path d="M1039 61.1905C1039 71.1905 1031.47 79.2857 1021.82 80H916.882C904.882 80 895 70.2381 895 57.8572C895 46.4286 903.706 36.9048 914.765 35.9524C915.471 15.9524 931.471 0 951.471 0C967.235 0 980.882 10.2381 985.824 24.2857C988.647 22.8572 991.941 21.9048 995.471 21.9048C1007 21.9048 1016.41 30.9524 1017.12 42.6191C1018.06 42.381 1019 42.381 1020.18 42.381C1030.76 42.381 1039 50.9524 1039 61.1905Z" fill="#EBF5FB"/>
<path d="M402.7 545.7L448.5 545.5L494.3 545.4L585.9 545.2L677.6 545.4L723.4 545.5L769.2 545.7L723.4 546L677.6 546.1L585.9 546.2L494.3 546.1L448.5 546L402.7 545.7Z" fill="#263238"/>
<path d="M674.6 104.5H595.5V155H674.6V104.5Z" fill="white"/>
<path d="M675.1 155.5H595V104H675.1V155.5ZM596 154.5H674.1V105H596V154.5Z" fill="#EBEBEB"/>
<path d="M674.6 104.5H595.5V114H674.6V104.5Z" fill="#F39C12"/>
<path d="M675.1 114.5H595V104H675.1V114.5ZM596 113.5H674.1V105H596V113.5Z" fill="#F39C12"/>
<path d="M604.5 109.3C604.5 110.6 603.4 111.7 602.1 111.7C600.8 111.7 599.7 110.6 599.7 109.3C599.7 108 600.8 106.9 602.1 106.9C603.4 106.9 604.5 108 604.5 109.3Z" fill="#A6A6A6"/>
<path d="M614.3 109.3C614.3 110.6 613.2 111.7 611.9 111.7C610.6 111.7 609.5 110.6 609.5 109.3C609.5 108 610.6 106.9 611.9 106.9C613.2 106.9 614.3 108 614.3 109.3Z" fill="#EBEBEB"/>
<path d="M624.1 109.3C624.1 110.6 623 111.7 621.7 111.7C620.4 111.7 619.3 110.6 619.3 109.3C619.3 108 620.4 106.9 621.7 106.9C623 106.9 624.1 108 624.1 109.3Z" fill="white"/>
<path d="M609.2 132.9C609.2 127.6 613.6 123.4 619 123.3C621.3 123.3 623.5 124.1 625.1 125.4C625.7 125.9 625.8 126.9 625.4 127.5C624.9 128.2 623.9 128.3 623.3 127.8C622.1 126.8 620.7 126.3 619 126.3C617.2 126.3 615.5 127 614.2 128.2C613 129.4 612.3 131 612.3 132.8C612.3 134.6 613 136.3 614.2 137.4C615.4 138.6 617.2 139.3 619 139.3C620.6 139.3 622.1 138.8 623.3 137.8C623.9 137.3 624.9 137.5 625.4 138.1C625.9 138.8 625.8 139.7 625.1 140.2C623.4 141.5 621.3 142.3 619 142.3C613.6 142.5 609.2 138.2 609.2 132.9Z" fill="#EBEBEB"/>
<path d="M629.9 137.8C630.4 137.2 631.3 137.1 631.8 137.6C633 138.6 635 139.7 636.9 139.6C638.2 139.6 639.4 139.2 640.2 138.6C641 138 641.3 137.4 641.3 136.7C641.3 136.4 641.2 136.1 641.1 135.8C640.9 135.5 640.7 135.3 640.3 135C639.5 134.5 638.2 134 636.7 133.8H636.6C635.4 133.6 634.2 133.2 633.2 132.8C632.2 132.3 631.3 131.7 630.7 130.7C630.3 130.1 630.1 129.3 630.1 128.5C630.1 126.9 631 125.5 632.2 124.6C633.4 123.7 635.1 123.2 636.8 123.2C639.4 123.2 641.2 124.4 642.6 125.3C643.2 125.7 643.4 126.6 643 127.2C642.6 127.8 641.8 128 641.1 127.6C639.7 126.7 638.4 125.9 636.8 125.9C635.6 125.9 634.5 126.3 633.8 126.8C633.1 127.3 632.8 127.9 632.8 128.5C632.8 128.8 632.9 129 633 129.2C633.1 129.4 633.4 129.7 633.7 129.9C634.4 130.4 635.6 130.8 637 131.1H637.1C638.5 131.4 639.7 131.7 640.8 132.2C641.9 132.7 642.8 133.4 643.5 134.4C643.9 135 644.1 135.8 644.1 136.7C644.1 138.4 643.1 139.9 641.8 140.8C640.5 141.8 638.8 142.3 636.9 142.3C634 142.3 631.6 140.8 630.1 139.6C629.5 139.3 629.5 138.4 629.9 137.8Z" fill="#EBEBEB"/>
<path d="M647.4 137.8C647.9 137.2 648.8 137.1 649.3 137.6C650.5 138.6 652.5 139.7 654.4 139.6C655.7 139.6 656.9 139.2 657.7 138.6C658.5 138 658.8 137.4 658.8 136.7C658.8 136.4 658.7 136.1 658.6 135.8C658.4 135.5 658.2 135.3 657.8 135C657 134.5 655.7 134 654.2 133.8H654.1C652.9 133.6 651.7 133.2 650.7 132.8C649.7 132.3 648.8 131.7 648.2 130.7C647.8 130.1 647.6 129.3 647.6 128.5C647.6 126.9 648.5 125.5 649.7 124.6C650.9 123.7 652.6 123.2 654.3 123.2C656.9 123.2 658.7 124.4 660.1 125.3C660.7 125.7 660.9 126.6 660.5 127.2C660.1 127.8 659.3 128 658.6 127.6C657.2 126.7 655.9 125.9 654.3 125.9C653.1 125.9 652 126.3 651.3 126.8C650.6 127.3 650.3 127.9 650.3 128.5C650.3 128.8 650.4 129 650.5 129.2C650.6 129.4 650.9 129.7 651.2 129.9C651.9 130.4 653.1 130.8 654.5 131.1H654.6C656 131.4 657.2 131.7 658.3 132.2C659.4 132.7 660.3 133.4 661 134.4C661.4 135 661.6 135.8 661.6 136.7C661.6 138.4 660.6 139.9 659.3 140.8C658 141.8 656.3 142.3 654.4 142.3C651.5 142.3 649.1 140.8 647.6 139.6C647 139.3 646.9 138.4 647.4 137.8Z" fill="#EBEBEB"/>
<path d="M536.6 208.5H428.5V285H536.6V208.5Z" fill="white"/>
<path d="M537 285.5H428V208H537.1V285.5H537ZM429 284.5H536.1V209H429V284.5Z" fill="#EBEBEB"/>
<path d="M536.6 208.5H428.5V218H536.6V208.5Z" fill="#F39C12"/>
<path d="M537 218.6H428V208H537.1V218.6H537ZM429 217.6H536.1V209.1H429V217.6Z" fill="#F39C12"/>
<path d="M437.4 213.4C437.4 214.7 436.3 215.8 435 215.8C433.7 215.8 432.6 214.7 432.6 213.4C432.6 212.1 433.7 211 435 211C436.3 211 437.4 212 437.4 213.4Z" fill="#A6A6A6"/>
<path d="M447.3 213.4C447.3 214.7 446.2 215.8 444.9 215.8C443.6 215.8 442.5 214.7 442.5 213.4C442.5 212.1 443.6 211 444.9 211C446.2 211 447.3 212 447.3 213.4Z" fill="#EBEBEB"/>
<path d="M457.1 213.4C457.1 214.7 456 215.8 454.7 215.8C453.4 215.8 452.3 214.7 452.3 213.4C452.3 212.1 453.4 211 454.7 211C456 211 457.1 212 457.1 213.4Z" fill="white"/>
<path d="M443.8 237H438.7V238.9H443.8V237Z" fill="#EBEBEB"/>
<path d="M482.1 237H447.5V238.9H482.1V237Z" fill="#EBEBEB"/>
<path d="M495 237H485.3V238.9H495V237Z" fill="#FFC727"/>
<path d="M517.2 262H507.5V263.9H517.2V262Z" fill="#EBEBEB"/>
<path d="M513.9 237H497.1V238.9H513.9V237Z" fill="#A6A6A6"/>
<path d="M448.9 242H443.8V243.9H448.9V242Z" fill="#EBEBEB"/>
<path d="M475 242H452.5V243.9H475V242Z" fill="#A6A6A6"/>
<path d="M505.2 262H482.7V263.9H505.2V262Z" fill="#A6A6A6"/>
<path d="M468.3 257H447.5V258.9H468.3V257Z" fill="#A6A6A6"/>
<path d="M462.3 247H452.5V248.9H462.3V247Z" fill="#FFC727"/>
<path d="M501.6 252H491.8V253.9H501.6V252Z" fill="#A6A6A6"/>
<path d="M498.3 247H465.2V248.9H498.3V247Z" fill="#A6A6A6"/>
<path d="M480.6 262H447.5V263.9H480.6V262Z" fill="#FFC727"/>
<path d="M522.6 242H496V243.9H522.6V242Z" fill="#FFC727"/>
<path d="M493.9 242H477.4V243.9H493.9V242Z" fill="#EBEBEB"/>
<path d="M516.8 247H500.3V248.9H516.8V247Z" fill="#EBEBEB"/>
<path d="M448.9 247H443.8V248.9H448.9V247Z" fill="#EBEBEB"/>
<path d="M443.8 252H438.7V253.9H443.8V252Z" fill="#A6A6A6"/>
<path d="M461.7 252H447.5V253.9H461.7V252Z" fill="#EBEBEB"/>
<path d="M466.7 267H452.5V268.9H466.7V267Z" fill="#EBEBEB"/>
<path d="M507.8 272H484.9V273.9H507.8V272Z" fill="#FFC727"/>
<path d="M491.5 267H469.2V268.9H491.5V267Z" fill="#FFC727"/>
<path d="M482.3 272H463.9V273.9H482.3V272Z" fill="#EBEBEB"/>
<path d="M522.6 267H494.1V268.9H522.6V267Z" fill="#A6A6A6"/>
<path d="M461.2 272H452.5V273.9H461.2V272Z" fill="#A6A6A6"/>
<path d="M495 257H470.4V258.9H495V257Z" fill="#EBEBEB"/>
<path d="M517.8 257H497.1V258.9H517.8V257Z" fill="#FFC727"/>
<path d="M489.4 252H464.8V253.9H489.4V252Z" fill="#FFC727"/>
<path d="M443.8 257H438.7V258.9H443.8V257Z" fill="#EBEBEB"/>
<path d="M443.8 262H438.7V263.9H443.8V262Z" fill="#EBEBEB"/>
<path d="M448.9 267H443.8V268.9H448.9V267Z" fill="#A6A6A6"/>
<path d="M448.9 272H443.8V273.9H448.9V272Z" fill="#EBEBEB"/>
<path d="M441.9 232.1C442.1 232.3 442.1 232.6 441.9 232.7C441.8 232.8 441.7 232.8 441.6 232.8C441.5 232.8 441.4 232.8 441.3 232.7L439.3 230.7C439.3 230.7 439.3 230.7 439.3 230.6C439.3 230.6 439.3 230.6 439.3 230.5C439.3 230.5 439.3 230.5 439.3 230.4L441.3 228.4C441.5 228.2 441.8 228.2 441.9 228.4C442.1 228.6 442.1 228.9 441.9 229L440.2 230.7L441.9 232.1Z" fill="#FFC727"/>
<path d="M443.7 232.4L445.4 228.3C445.5 228.1 445.7 228 445.9 228.1C446.1 228.2 446.2 228.4 446.1 228.6L444.4 232.7C444.3 232.8 444.2 232.9 444 232.9H443.9C443.7 232.8 443.6 232.6 443.7 232.4Z" fill="#FFC727"/>
<path d="M449.5 230.7C449.4 230.7 449.4 230.8 449.5 230.7L447.5 232.8C447.4 232.9 447.3 232.9 447.2 232.9C447.1 232.9 447 232.9 446.9 232.8C446.7 232.6 446.7 232.4 446.9 232.2L448.6 230.5L446.9 228.8C446.7 228.6 446.7 228.3 446.9 228.2C447.1 228 447.4 228 447.5 228.2L449.5 230.2C449.5 230.2 449.5 230.2 449.5 230.3C449.5 230.3 449.5 230.3 449.5 230.4C449.5 230.4 449.5 230.4 449.5 230.5C449.5 230.6 449.5 230.6 449.5 230.7C449.5 230.6 449.5 230.6 449.5 230.7Z" fill="#FFC727"/>
<path d="M204.6 304.5H125.5V355H204.6V304.5Z" fill="white"/>
<path d="M205.1 355.5H125V304H205.1V355.5ZM126 354.5H204.1V305H126V354.5Z" fill="#EBEBEB"/>
<path d="M204.6 304.5H125.5V314H204.6V304.5Z" fill="#F39C12"/>
<path d="M205.1 314.6H125V304.1H205.1V314.6ZM126 313.6H204.1V305.1H126V313.6Z" fill="#F39C12"/>
<path d="M134.4 309.4C134.4 310.7 133.3 311.8 132 311.8C130.7 311.8 129.6 310.7 129.6 309.4C129.6 308.1 130.7 307 132 307C133.3 307 134.4 308 134.4 309.4Z" fill="#A6A6A6"/>
<path d="M144.2 309.4C144.2 310.7 143.1 311.8 141.8 311.8C140.5 311.8 139.4 310.7 139.4 309.4C139.4 308.1 140.5 307 141.8 307C143.1 307 144.2 308 144.2 309.4Z" fill="#EBEBEB"/>
<path d="M154 309.4C154 310.7 152.9 311.8 151.6 311.8C150.3 311.8 149.2 310.7 149.2 309.4C149.2 308.1 150.3 307 151.6 307C152.9 307 154 308 154 309.4Z" fill="white"/>
<path d="M140.2 332.9C140.2 327.6 144.6 323.4 150 323.3C152.3 323.3 154.5 324.1 156.1 325.4C156.7 325.9 156.8 326.9 156.4 327.5C155.9 328.2 154.9 328.3 154.3 327.8C153.1 326.8 151.7 326.3 150 326.3C148.2 326.3 146.5 327 145.2 328.2C144 329.4 143.3 331 143.3 332.8C143.3 334.6 144 336.3 145.2 337.4C146.4 338.6 148.2 339.3 150 339.3C151.6 339.3 153.1 338.8 154.3 337.8C154.9 337.3 155.9 337.5 156.4 338.1C156.9 338.8 156.8 339.7 156.1 340.2C154.4 341.5 152.3 342.3 150 342.3C144.7 342.5 140.2 338.2 140.2 332.9Z" fill="#EBEBEB"/>
<path d="M165.7 334.6H161.9C161.1 334.6 160.4 334 160.4 333.1C160.4 332.3 161.1 331.6 161.9 331.6H165.7V327.9C165.7 327 166.4 326.4 167.2 326.4C168 326.4 168.7 327.1 168.7 327.9V331.6H172.5C173.3 331.6 174 332.3 174 333.1C174 333.9 173.3 334.6 172.5 334.6H168.7V338.3C168.7 339.2 168 339.8 167.2 339.8C166.3 339.8 165.7 339.1 165.7 338.3V334.6Z" fill="#EBEBEB"/>
<path d="M182.2 334.6H178.4C177.6 334.6 176.9 334 176.9 333.1C176.9 332.3 177.6 331.6 178.4 331.6H182.2V327.9C182.2 327 182.9 326.4 183.7 326.4C184.5 326.4 185.2 327.1 185.2 327.9V331.6H189C189.8 331.6 190.5 332.3 190.5 333.1C190.5 333.9 189.8 334.6 189 334.6H185.2V338.3C185.2 339.2 184.5 339.8 183.7 339.8C182.8 339.8 182.2 339.1 182.2 338.3V334.6Z" fill="#EBEBEB"/>
<path d="M767.9 593C743.434 593 723.6 589.194 723.6 584.5C723.6 579.806 743.434 576 767.9 576C792.366 576 812.2 579.806 812.2 584.5C812.2 589.194 792.366 593 767.9 593Z" fill="#EBEBEB"/>
<path d="M590 589.2C493.682 589.2 415.6 580.738 415.6 570.3C415.6 559.862 493.682 551.4 590 551.4C686.318 551.4 764.4 559.862 764.4 570.3C764.4 580.738 686.318 589.2 590 589.2Z" fill="#EBEBEB"/>
<path d="M596.5 449.4L593.9 464.9L576.4 559.5H573.5L586.3 464.9L588.2 449.4H596.5Z" fill="#A6A6A6"/>
<path d="M588.2 449.4H596.5L593.9 464.9H586.3L588.2 449.4Z" fill="#263238"/>
<path d="M651.5 559.5H648.6L631.1 464.9L628.5 449.4H636.9L638.7 464.9L651.5 559.5Z" fill="#A6A6A6"/>
<path d="M636.9 449.4L638.7 464.9H631.1L628.5 449.4H636.9Z" fill="#2F3335"/>
<path d="M704 559.5H701.2L683.7 464.9L681.1 449.4H689.4L691.3 464.9L704 559.5Z" fill="#A6A6A6"/>
<path d="M691.3 464.9H683.7L681.1 449.4H689.4L691.3 464.9Z" fill="#2F3335"/>
<path d="M699.5 456.7H571.2V443.2H619.2L635.4 329.2H694.6L699.5 456.7Z" fill="#A6A6A6"/>
<path d="M699.5 456.7H692.5L688 329.2H694.6L699.5 456.7Z" fill="#DBDBDB"/>
<path d="M615.3 338.2L617.8 337.9C617.7 334.7 619.2 329.7 619 332.1C618.8 334 619.1 336.3 619.3 337.7L657.2 333.8C657.2 329 654.3 321.4 654.3 321.4C657.1 325.1 658.6 330.6 659.3 333.6L663.3 333.2C663.4 330.3 661.9 325.5 661.9 325.5C663.2 327.3 664.2 330.8 664.7 333L669.2 332.5C668.9 327.7 666.6 321.6 662.2 316.3C658.7 312.1 657.2 308.4 656.6 298.5C655.9 286.7 647.7 283.4 646.4 282C635.1 270.4 616.5 282.1 618.3 296.8C619.7 307.9 621 309.1 616.9 319.6C613.8 327.7 615.3 338.2 615.3 338.2Z" fill="#263238"/>
<path d="M640.1 333.3C634.4 354.2 629.6 370.4 623.6 374.3C618.8 377.5 612 379.7 605 381.3C596.8 383.1 588.3 384 582.4 384.5C580.1 384.7 578.1 384.8 576.7 384.9C573.3 385.1 567.7 362.5 570.1 359.8C570.7 359.2 572.9 358.7 576.1 358.3C586.7 357 607.7 356.7 608.9 355.5C610.2 354.3 616.9 345.3 626.1 333.6C632.4 325.5 637.6 323.1 639.7 325.3C641 326.5 641.3 329.2 640.1 333.3Z" fill="#FFF0D9"/>
<path d="M583.7 382.6C583.3 382.8 577.2 385.4 573.5 386.3C570.7 387 562.7 388.8 561.7 385.8C561 383.8 565.6 382.2 568.8 381C570.5 380.4 572.6 378.7 572.2 377.6C571.4 375.7 567 377.4 564.1 379C558.5 382 551 387.4 547.8 384.5C546.6 383.4 548.1 381.5 550.3 379.8C546.7 381.9 543 383.5 541.6 382.3C540.8 381.6 540.8 380.8 541.3 379.8C540.2 380.1 539.3 380 538.6 379.3C537.5 378.1 538.1 376.3 539.4 374.6C539 374.5 538.7 374.3 538.4 373.9C536.1 370.2 548.5 360.1 552.7 359.3C565 356.8 577.9 358.4 577.9 358.4C582.6 362.3 583.7 382.6 583.7 382.6Z" fill="#FFF0D9"/>
<path d="M566.1 370.6C563.2 370.9 560.3 371.9 557.8 373.4C554.9 375.3 552.5 377.8 549.8 380C549.7 380.1 549.8 380.2 549.9 380.1C551.2 379 552.6 378 553.9 377C555.2 376 556.5 374.9 557.8 374C560.4 372.2 563.2 371.1 566.1 370.6C566.2 370.6 566.2 370.6 566.1 370.6Z" fill="#263238"/>
<path d="M564.1 365.3C560.9 366.1 557.5 366.8 554.5 368.2C551.2 369.7 548.5 372.4 545.9 374.9C544.3 376.4 542.8 377.9 541.3 379.5C541.2 379.6 541.3 379.7 541.4 379.6C544 377 546.8 374.5 549.6 372.1C552.2 369.8 555.1 368.1 558.4 367C560.3 366.3 562.2 365.8 564.1 365.3Z" fill="#263238"/>
<path d="M560.8 360.6C557.7 361.1 554.9 361.6 552.1 363.1C548.4 365.2 544.7 368.8 543.4 370C542 371.4 540.6 372.9 539.3 374.3C539.2 374.4 539.3 374.5 539.4 374.4C542.5 371.2 545.8 368.1 549.3 365.3C551 364 552.7 362.8 554.7 362C556.6 361.5 558.7 361.1 560.8 360.6C560.8 360.7 560.8 360.6 560.8 360.6Z" fill="#263238"/>
<path d="M640.1 333.3C634.4 354.2 629.6 370.4 623.6 374.3C618.8 377.5 612 379.7 605 381.3L639.8 325.3C641 326.5 641.3 329.2 640.1 333.3Z" fill="#263238"/>
<path d="M642 329.8C641.4 336.2 637.2 347.1 637.2 347.1L615.1 345.2C615.1 345.2 623.6 332.7 632.5 325.6C633.4 324.9 634.3 324.3 635.2 323.9C639.1 322.3 642.5 323.8 642 329.8Z" fill="#F39C12"/>
<path d="M642 329.8C642 330.1 641.9 330.5 641.9 330.8C641.9 331.1 641.8 331.4 641.7 331.6C639.8 340.7 637.2 347 637.2 347L636.3 346.9L635.4 346.8L628.5 346.2L627.5 346.1L620.6 345.5L619.7 345.4L617.2 345.2L635.3 323.8C639.1 322.3 642.6 323.8 642 329.8Z" fill="#263238"/>
<path d="M481.7 559.5C484.1 560.3 553.9 559.7 556.5 558C556.8 557.8 556.9 551.5 556.9 542.8V542.6C556.9 537.1 557.4 530.7 558.1 524.3C558.1 524 558.2 523.6 558.2 523.3C560 507.2 563.2 491.5 563.2 491.5L519.5 491.3L513.5 523.3L513.4 524.3L512.2 536.2C512.2 536.2 502.8 540.2 494.6 544.1C489.5 546.5 485.1 548.7 484.1 549.5C481.4 551.9 479.3 558.7 481.7 559.5Z" fill="#FFF0D9"/>
<path d="M481.7 559.5C484.1 560.3 553.9 559.7 556.5 558C556.8 557.8 556.9 551.5 556.9 542.8V542.6C556.9 537.1 557.4 530.7 558.1 524.3C558.1 524 558.2 523.6 558.2 523.3H513.4L513.3 524.3L512.1 536.2C512.1 536.2 502.7 540.2 494.5 544.1C489.4 546.5 485 548.7 484 549.5C481.4 551.9 479.3 558.7 481.7 559.5Z" fill="#F4DEBD"/>
<path d="M481.4 559.8C483.9 560.6 553.8 559.8 556.5 558.1C557.5 557.5 558.4 546.7 557.4 534.7L512.3 535.2C512.3 535.2 486.5 547.5 483.8 549.7C481.1 551.9 479 559 481.4 559.8Z" fill="#F39C12"/>
<path d="M482.4 556.9C494.1 556.5 541.4 555.9 553.1 556.4C553.2 556.4 553.2 556.5 553.1 556.5C541.5 557.2 494.2 557.3 482.4 557.1C482.2 557.1 482.2 557 482.4 556.9Z" fill="#263238"/>
<path d="M488.2 547.2C491 547.1 493.7 548.3 495.2 550C496.7 551.6 497.9 553.8 497.9 556.2C497.9 556.3 497.8 556.3 497.8 556.2C497.1 551.6 492.9 547.6 488.2 547.3C488.1 547.3 488.1 547.2 488.2 547.2Z" fill="#263238"/>
<path d="M508.6 536.5C513.3 536.4 518.8 538 521.7 541.8C521.8 541.9 521.6 542.1 521.5 542C517.2 539.9 513.2 538.3 508.6 537.1C508.2 537 508.2 536.5 508.6 536.5Z" fill="#263238"/>
<path d="M505 537.9C509.7 537.8 515.2 539.4 518.1 543.2C518.2 543.3 518 543.5 517.9 543.4C513.6 541.3 509.6 539.7 505 538.5C504.6 538.4 504.6 537.9 505 537.9Z" fill="#263238"/>
<path d="M501.4 539.4C506.1 539.3 511.6 540.9 514.5 544.7C514.6 544.8 514.4 545 514.3 544.9C510 542.8 506 541.2 501.4 540C501 539.9 501 539.4 501.4 539.4Z" fill="#263238"/>
<path d="M497.8 540.8C502.5 540.7 508 542.3 510.9 546.1C511 546.2 510.8 546.4 510.7 546.3C506.4 544.2 502.4 542.6 497.8 541.4C497.4 541.3 497.4 540.8 497.8 540.8Z" fill="#263238"/>
<path d="M550 545.3C555.3 545.3 555.3 553.4 550.1 553.5C544.8 553.6 544.7 545.4 550 545.3Z" fill="#2F3335"/>
<path d="M503.4 524C505.8 522 508.8 523.9 510.3 525.9C512.7 529.2 514.4 533.8 514.7 537.9C514.7 538 514.6 538 514.6 538C514.5 538.3 514.1 538.6 513.8 538.4C510.4 536.1 506.6 534.1 504 530.9C502.3 529 501.2 525.9 503.4 524ZM509.2 533.9C510.8 535.1 512.5 536.1 514.1 537.4C513.2 535.1 512.5 532.7 511.4 530.5C510.9 529.4 510.3 528.3 509.7 527.4C508.7 525.9 504 522 503.6 527.1C503.3 529.8 507.3 532.5 509.2 533.9Z" fill="#263238"/>
<path d="M526.3 539.5C522.2 540.2 518 539.1 514 538.5C513.6 538.4 513.5 538 513.6 537.6C513.5 537.6 513.5 537.5 513.6 537.4C516.5 534.6 520.9 532.3 524.9 531.5C527.4 531 530.9 531.6 531.3 534.7C531.6 537.6 528.7 539.1 526.3 539.5ZM529.1 536.8C532.2 532.7 526.2 532.5 524.4 532.9C523.2 533.2 522.1 533.6 521 534.1C518.7 535 516.5 536.3 514.3 537.4C516.3 537.6 518.3 537.9 520.2 538.1C522.6 538.4 527.4 539 529.1 536.8Z" fill="#263238"/>
<path d="M509.8 520L560.5 519.8C560.5 519.8 578.1 452.2 582.2 447.4C589.8 438.6 650.5 442.9 666.9 424.7C682.9 407.1 666.9 375.2 666.9 375.2H622C622 375.2 621.2 384.5 619.4 392.3C619.4 392.3 562.9 401.3 546.1 418.7C533.4 432 509.8 520 509.8 520Z" fill="#2F3335"/>
<path d="M513.3 512C516.4 511.7 519.5 511.4 522.7 511.3C525.8 511.2 529 511.1 532.1 511.1C538.3 511 544.6 511 550.8 511.1C554.3 511.2 557.8 511.3 561.4 511.3C561.5 511.3 561.5 511.5 561.4 511.5C555.1 511.5 548.7 511.7 542.4 511.9C536.2 512.1 530 512.3 523.8 512.4C520.3 512.5 516.8 512.4 513.4 512.3C513.2 512.3 513.2 512 513.3 512Z" fill="#263238"/>
<path d="M567.6 469.2C569.6 462.7 571.8 456.2 574.1 449.8C575.1 447.1 575.9 444 577.9 441.7C579.8 439.5 582.7 438.8 585.4 438.2C598.4 435.3 611.7 434.2 624.8 431.9C631.3 430.8 637.7 429.4 643.9 427.3C647 426.3 650 425.2 652.8 423.6C655.4 422.1 657.6 420.3 659.5 418C663.1 413.7 665.4 408.3 666.2 402.8C667.2 396.2 666.3 389.5 664.4 383.2C663.9 381.6 663.4 380.1 662.8 378.6C662.8 378.5 662.9 378.5 663 378.6C667.4 390 669.2 403.1 663 414.2C661.7 416.6 660 418.8 658 420.7C655.8 422.8 653.3 424.3 650.6 425.6C644.7 428.3 638.3 429.9 632 431.3C619 434.1 605.6 435.2 592.5 437.5C589.3 438.1 586.1 438.6 583 439.5C581.5 439.9 580.1 440.5 578.9 441.5C577.8 442.5 577 443.9 576.4 445.3C575.1 448.4 574.1 451.5 573 454.7C571.9 457.9 570.8 461.2 569.7 464.4C565.5 477.4 561.8 490.6 558.5 503.9C558.1 505.5 557.7 507.1 557.3 508.8C557.3 509 557 508.9 557.1 508.7C560 495.5 563.5 482.2 567.6 469.2Z" fill="#263238"/>
<path d="M558.1 571.3C560.6 571.8 629.9 563 632.2 561C632.5 560.8 631.7 554.5 630.8 545.9C630.2 540.9 629.1 534.6 627.8 528.3C624.2 511.3 619.2 493.3 619.2 493.3L573.8 500.9L583 533.2L586.2 544.2C586.2 544.2 576.9 549.8 569.2 554.7C564.5 557.7 560.4 560.4 559.5 561.3C556.8 563.8 555.6 570.8 558.1 571.3Z" fill="#FFF0D9"/>
<path d="M558.1 571.3C560.6 571.8 629.9 563 632.2 561C632.5 560.8 631.7 554.5 630.8 545.9C630.2 540.9 629.1 534.6 627.8 528.3L582.9 533.2L586.1 544.2C586.1 544.2 576.8 549.8 569.1 554.7C564.4 557.7 560.3 560.4 559.4 561.3C556.8 563.8 555.6 570.8 558.1 571.3Z" fill="#F4DEBD"/>
<path d="M557.8 571.5C560.3 572 629.7 563.2 632.2 561.2C633.1 560.4 632.1 549.7 629.7 538L585.9 543.6C585.9 543.6 561.4 558.7 559 561.2C556.5 563.8 555.2 571 557.8 571.5Z" fill="#F39C12"/>
<path d="M558.4 568.6C570 566.8 616.9 560.9 628.5 560C628.6 560 628.6 560.1 628.5 560.1C617 562.1 570 567.7 558.4 568.8C558.2 568.8 558.2 568.7 558.4 568.6Z" fill="#263238"/>
<path d="M563.1 558.2C565.8 557.7 568.7 558.7 570.4 560.2C572 561.6 573.6 563.7 573.8 566.1C573.8 566.2 573.7 566.2 573.7 566.1C572.5 561.6 567.8 558.2 563.2 558.4C563 558.4 563 558.3 563.1 558.2Z" fill="#263238"/>
<path d="M582.1 545.3C586.7 544.6 592.4 545.6 595.7 549.1C595.8 549.2 595.6 549.4 595.5 549.4C591 547.8 586.8 546.6 582.1 546C581.7 545.8 581.7 545.3 582.1 545.3Z" fill="#263238"/>
<path d="M578.7 547.1C583.3 546.4 589 547.4 592.3 550.9C592.4 551 592.2 551.2 592.1 551.2C587.6 549.6 583.4 548.4 578.7 547.8C578.3 547.7 578.3 547.2 578.7 547.1Z" fill="#263238"/>
<path d="M575.2 549C579.8 548.3 585.5 549.3 588.8 552.8C588.9 552.9 588.7 553.1 588.6 553.1C584.1 551.5 579.9 550.3 575.2 549.7C574.9 549.5 574.9 549 575.2 549Z" fill="#263238"/>
<path d="M571.8 550.9C576.4 550.2 582.1 551.2 585.4 554.7C585.5 554.8 585.3 555 585.2 555C580.7 553.4 576.5 552.2 571.8 551.6C571.5 551.4 571.5 550.9 571.8 550.9Z" fill="#263238"/>
<path d="M624.2 549.4C629.4 548.8 630.4 556.9 625.2 557.5C620 558.1 619 550 624.2 549.4Z" fill="#2F3335"/>
<path d="M575.5 533.5C577.6 531.2 580.8 532.8 582.5 534.6C585.3 537.6 587.5 542 588.2 546C588.2 546.1 588.1 546.1 588.1 546.2C588 546.5 587.7 546.9 587.3 546.7C583.7 544.8 579.6 543.3 576.7 540.3C575 538.6 573.5 535.6 575.5 533.5ZM582.4 542.7C584.2 543.7 585.9 544.5 587.7 545.6C586.6 543.4 585.6 541.1 584.2 539C583.6 538 582.9 537 582.1 536.1C580.9 534.7 575.8 531.4 576 536.5C576.1 539.3 580.3 541.5 582.4 542.7Z" fill="#263238"/>
<path d="M600 546.3C596 547.4 591.7 546.8 587.6 546.7C587.2 546.7 587 546.2 587.1 545.9C587 545.9 587 545.8 587.1 545.7C589.7 542.6 593.8 539.8 597.6 538.5C600 537.7 603.5 537.9 604.3 540.9C605.1 543.8 602.3 545.6 600 546.3ZM602.5 543.3C605.1 538.9 599.1 539.3 597.4 540C596.3 540.4 595.2 541 594.1 541.5C591.9 542.7 589.9 544.2 587.9 545.5C589.9 545.4 591.9 545.5 593.9 545.5C596.2 545.6 601 545.7 602.5 543.3Z" fill="#263238"/>
<path d="M571.6 531.2L626.9 524.5C626.9 524.5 607.6 448.4 608.5 447.2C611.6 443.3 658.2 444.8 674.1 429C690.9 412.3 674.8 375.2 674.8 375.2L632.8 375.4C632.8 375.4 632.5 392 630.6 393.6C629.4 394.6 571.3 404.4 561.9 416.7C547.5 435.5 571.6 531.2 571.6 531.2Z" fill="#2F3335"/>
<path d="M558 423.5C558.8 421.4 559.9 419.4 561.3 417.7C562.9 415.8 564.8 414.3 566.9 413C571.2 410.2 576.1 408.2 580.8 406.3C585.7 404.3 590.8 402.7 595.9 401.2C601.1 399.7 606.3 398.5 611.6 397.4C616.9 396.3 622.1 395.4 627.4 394.4C628.2 394.2 629.1 394.1 629.9 393.9C627.2 392.8 624.5 391.7 621.8 390.6C621.6 390.5 621.7 390.3 621.9 390.3C627.4 391.4 632.7 393.3 637.3 396.5C637.4 396.5 637.3 396.7 637.2 396.6C634.8 395.8 632.5 394.9 630.2 394C625.4 395 620.7 396.1 615.9 397.1C610.7 398.2 605.6 399.5 600.5 400.9C590.4 403.8 580.4 407.1 571.1 412C566.9 414.2 562.9 416.9 560.5 421.2C558.3 425.1 557.6 429.7 557.5 434.2C557.4 439.2 557.9 444.2 558.4 449.2C558.9 454.8 559.5 460.5 560.2 466.1C560.9 471.7 564.8 501.2 565.3 502.4C565.4 502.6 565.1 502.7 565 502.5C564.4 501.3 557.6 458.7 557.1 453C556.6 447.7 556.1 442.4 556 437.1C556 432.6 556.3 427.8 558 423.5Z" fill="#495053"/>
<path d="M602.3 441.1C603.7 440.6 605.3 440.5 606.8 440.3L611.8 439.5C615.1 439 618.4 438.4 621.7 437.9C628.1 436.9 634.5 436 640.8 434.8C651.6 432.9 663.4 429.4 669.6 419.5C671 417.2 672 414.7 672.5 412.1C673.1 408.9 673.1 405.6 673.2 402.3C673.3 395.7 672.9 389.1 671.9 382.5C671.7 380.9 671.4 379.3 671.1 377.7C671.1 377.6 671.2 377.6 671.3 377.7C672.5 384.1 673.4 390.5 673.7 397C673.8 400.2 673.9 403.5 673.7 406.7C673.6 409.7 673.3 412.7 672.4 415.5C668.8 425.8 658.4 431.3 648.5 433.9C642.4 435.5 636.1 436.3 629.9 437.2C623.4 438.2 616.8 439.3 610.3 440.3C608.7 440.6 607 440.8 605.4 441.1C604.1 441.3 601.7 441.3 601.4 443C601.3 443.7 601.5 444.4 601.6 445.1C601.8 446 602 446.8 602.2 447.7C602.6 449.4 602.9 451 603.3 452.7C604.7 459.2 606.1 465.7 607.5 472.2C610.3 485.3 612.9 498.4 615.6 511.6C615.9 513.2 616.3 514.9 616.6 516.5C616.6 516.6 616.5 516.6 616.5 516.5C613.6 503.4 610.7 490.4 607.9 477.3C606.5 470.7 605.1 464.1 603.7 457.5C603 454.2 602.3 451 601.7 447.7C601.4 446.3 600.9 444.8 600.9 443.4C600.6 442.3 601.2 441.4 602.3 441.1Z" fill="#263238"/>
<path d="M572.7 524.4C575.9 523.7 579.1 523 582.4 522.4C585.7 521.8 588.9 521.3 592.2 520.8C598.7 519.8 605.2 519 611.8 518.2C615.5 517.8 619.2 517.4 622.9 517C623 517 623 517.1 622.9 517.2C616.3 518 609.7 519.2 603.1 520.3C596.6 521.3 590.2 522.4 583.7 523.3C580.1 523.8 576.4 524.2 572.8 524.7C572.6 524.7 572.6 524.4 572.7 524.4Z" fill="#263238"/>
<path d="M619.4 384.5C619.4 384.5 622.3 385.2 628.2 385.7C632.8 386.2 639.3 386.6 647.7 386.6H648.4C649.5 386.6 650.5 386.6 651.6 386.6C659.4 386.5 668.5 386 679.1 384.9C679.1 384.9 666.8 339.7 654.3 324.9C654 324.6 653.7 324.2 653.4 323.9C653.3 323.8 653.3 323.8 653.2 323.7C652.1 322.6 651 321.7 649.8 321.1C649.6 321 649.4 320.9 649.1 320.8C644.3 318.6 639.2 320.4 635.5 323.6C634.3 324.6 621.1 341.8 619.9 348.4C618.9 354.2 622.8 360.4 622.8 360.4L619.4 384.5Z" fill="#F39C12"/>
<path d="M647.7 386.6H648.4C649.5 386.6 650.5 386.6 651.6 386.6C659.4 386.5 668.5 386 679.1 384.9C679.1 384.9 666.8 339.7 654.3 324.9C654 324.6 653.7 324.2 653.4 323.9C653.3 323.8 653.3 323.8 653.2 323.7C652.1 322.6 651 321.7 649.8 321.1C649.6 321 649.4 320.9 649.1 320.8L647.7 386.6Z" fill="#263238"/>
<path d="M657.9 329.1C669 346 682 375 674 380C660.8 388.2 625.3 389.2 617.2 389.1C613.7 389.1 609.8 365.7 612.5 363C615.2 360.4 652.2 363.2 652.8 361C653.1 359.7 650.2 348.1 648.4 334C646.2 317.7 654.7 324.3 657.9 329.1Z" fill="#FFF0D9"/>
<path d="M618.7 362C618.7 362 608.2 360.5 601.2 359.9C597.3 359.5 590.6 359.5 587.7 360.6C583.3 362.2 565.7 371.5 567.9 375.8C569.9 379.7 583.9 369.8 583.9 369.8C583.9 369.8 568.8 378.6 572.1 382.8C575.3 387.1 589.7 373.7 589.7 373.7C589.7 373.7 574.4 383.1 578.4 386.9C581.4 389.8 595.1 378.5 595.1 378.5C595.1 378.5 582 386.6 585 389.8C588.3 393.3 601.6 383.6 601.6 383.6C610.6 390.3 617.6 389.8 622.5 388.9C623.8 388.5 618.7 362 618.7 362Z" fill="#FFF0D9"/>
<path d="M589 366.3C587.2 367.3 585.4 368.2 583.6 369.4C581.9 370.5 580.2 371.7 578.6 373C574.7 376.1 572.7 378.7 572.8 378.6C576.1 375.2 582.2 371 583.9 369.9C585.6 368.7 587.3 367.5 589 366.3C589 366.4 589 366.3 589 366.3Z" fill="#263238"/>
<path d="M593.1 372.4C590.8 373.7 588.6 375 586.4 376.4C584.2 377.8 581.2 379.9 579.1 381.5C578.9 381.6 579 381.9 579.2 381.8C581.3 380.3 584.5 378.3 586.7 376.8C588.8 375.4 591 373.9 593.1 372.4C593.2 372.5 593.2 372.4 593.1 372.4Z" fill="#263238"/>
<path d="M597.6 377C594.1 378.9 590.8 381.4 587.8 383.9C587.6 384 587.8 384.1 588 383.9C591.2 381.5 593.7 379.7 597.7 377.1C597.8 377.1 597.7 377 597.6 377Z" fill="#263238"/>
<path d="M618.8 361.8C614 361.1 601.3 359.2 596.5 359C592.2 358.8 588.6 359.2 584.7 361.1C576.4 365.1 570.7 370.4 569.2 372C568.3 373 567 374.5 567.8 375.9C568.8 377.5 573.4 376.7 578.7 373.1C578.9 373 578.8 372.9 578.6 373C571.3 377.5 568.8 376.5 568.2 375.5C567.8 374.9 568.4 373.9 568.9 373.2C569.6 372.1 570.7 371.2 571.6 370.4C574.9 367.6 578.8 365.1 582.7 363C587.1 360.6 591.6 359.5 596.7 359.8C601.7 360 613.8 362 618.8 362.1C618.9 362 618.9 361.9 618.8 361.8Z" fill="#263238"/>
<path d="M571.6 380.5C572 379.2 573.2 378.1 574 377.2C575.1 376 576.3 374.8 577.6 373.8C577.7 373.8 577.7 373.8 577.7 373.9C576.6 375 575.5 376 574.5 377.2C574 377.8 573.5 378.5 573 379.2C572.6 379.9 572 380.6 572.1 381.5C572.2 383.1 574.2 383.3 575.5 383.1C576.3 382.9 577.1 382.6 577.8 382.3C578.6 382 580.1 381.1 580.8 380.6C580.9 380.5 581.1 380.6 581 380.7C579 382.1 575.3 385.2 572.7 383.5C571.6 382.8 571.2 381.6 571.6 380.5Z" fill="#263238"/>
<path d="M673.1 347.5L649.7 347.3C649.7 347.3 648.3 336.9 647.3 329.9C646.2 321.9 646.8 316.9 656.2 325.7C662.8 331.8 673.1 347.5 673.1 347.5Z" fill="#F39C12"/>
<path d="M645.5 319.8C650.1 321.1 649.6 326.3 647.9 329.9C646.2 333.5 642.8 337.7 640.4 337.6C637.9 337.5 637.5 331.3 637.5 331.3C637.5 331.3 634 335.1 632.2 333.8C630.4 332.5 634 325.4 636.6 323.3C640.4 320.1 643 319.2 645.5 319.8Z" fill="white"/>
<path d="M648 322.8C647.8 323.9 642.9 331.2 637.9 331.2C636.3 331.2 635.9 322.3 635.9 322.3L635.7 321.7L633.2 312.6L643.7 305.2L645.2 304.2C645.2 304.2 645.7 306.7 646.3 309.9C646.3 310 646.4 310.2 646.4 310.3C646.4 310.5 646.5 310.6 646.5 310.8C646.6 311.3 646.7 311.8 646.8 312.2C646.9 312.6 646.9 312.9 647 313.3C647.1 313.7 647.1 314.1 647.2 314.4C647.8 318.3 648.1 322.3 648 322.8Z" fill="#FFF0D9"/>
<path d="M646.4 309.8C644.1 317.2 638.4 320.5 635.8 321.6L633.3 312.5L643.8 305.1L645.3 304.1C645.3 304.2 645.8 306.7 646.4 309.8Z" fill="#263238"/>
<path d="M620.1 298.4C619.3 314.9 629.1 317.2 632.7 317.4C635.9 317.5 646.9 317.6 649.4 301.3C651.9 285 644.4 279.4 637.1 278.7C629.7 278 620.9 281.9 620.1 298.4Z" fill="#FFF0D9"/>
<path d="M622.6 295.7C623 295.7 623.3 295.6 623.7 295.5C624.1 295.4 624.5 295.4 624.8 295.1C625 294.9 625 294.6 624.8 294.4C624.4 294 623.9 293.9 623.4 294C622.8 294.1 622.4 294.3 622 294.7C621.7 295.1 622.1 295.7 622.6 295.7Z" fill="#263238"/>
<path d="M633.2 296C632.8 295.9 632.5 295.8 632.1 295.7C631.7 295.6 631.3 295.6 631 295.2C630.8 295 630.9 294.7 631 294.5C631.4 294.1 631.9 294.1 632.4 294.2C633 294.3 633.4 294.5 633.7 295C634.1 295.5 633.7 296.1 633.2 296Z" fill="#263238"/>
<path d="M631.1 299.9L631.2 300C631.1 301.1 631.2 302.4 632.2 302.8V302.9C630.9 302.7 630.8 301 631.1 299.9Z" fill="#263238"/>
<path d="M632.2 298.8C634 298.7 634 302.4 632.3 302.4C630.6 302.5 630.6 298.8 632.2 298.8Z" fill="#263238"/>
<path d="M632.9 299C633.2 299.2 633.5 299.6 633.9 299.6C634.3 299.6 634.7 299.3 635 298.9H635.1C635.1 299.6 634.8 300.3 634.1 300.4C633.4 300.5 632.9 299.9 632.8 299.2C632.6 299.1 632.7 298.9 632.9 299Z" fill="#263238"/>
<path d="M625 299.6C624.9 299.6 624.9 299.7 625 299.6C624.9 300.8 624.8 302.1 623.8 302.5V302.6C625 302.4 625.2 300.7 625 299.6Z" fill="#263238"/>
<path d="M624 298.5C622.2 298.4 622 302 623.7 302.1C625.3 302.2 625.5 298.6 624 298.5Z" fill="#263238"/>
<path d="M623.2 298.7C622.9 298.9 622.6 299.2 622.3 299.2C621.9 299.2 621.6 298.8 621.4 298.4H621.3C621.3 299.1 621.5 299.8 622.1 300C622.7 300.1 623.2 299.6 623.4 298.9C623.4 298.8 623.3 298.6 623.2 298.7Z" fill="#263238"/>
<path d="M631.1 308.6C630.8 308.9 630.6 309.2 630.2 309.3C629.8 309.3 629.3 309.2 629 309.1C629 309.1 628.9 309.1 629 309.2C629.3 309.6 629.9 309.9 630.4 309.8C630.9 309.7 631.1 309.2 631.2 308.8C631.2 308.6 631.1 308.6 631.1 308.6Z" fill="#263238"/>
<path d="M626.6 305C626.6 305 626.3 306.7 626.3 307.5C626.3 307.6 629.2 308.2 630.5 306.3C630.6 306.2 630.5 306.1 630.4 306.2C629.3 306.9 628.2 307.1 626.9 307.1C626.8 306.9 627.5 304.2 627.3 304.2C626.9 304.2 626 304.4 625.5 304.6C626 301.1 627 297.7 627.4 294.2C627.4 294.1 627.2 294 627.2 294.1C625.9 297.6 625.3 301.6 624.7 305.2C624.7 305.7 626.3 305.1 626.6 305Z" fill="#263238"/>
<path d="M625.8 300.3C625.9 297.7 624.5 295.6 622.8 295.5C621.1 295.5 619.6 297.5 619.6 300.1C619.5 302.7 620.9 304.8 622.6 304.9C624.2 305 625.7 302.9 625.8 300.3ZM625.1 300.3C625 302.5 623.9 304.3 622.5 304.3C621.1 304.3 620.1 302.4 620.1 300.2C620.2 298 621.3 296.2 622.7 296.2C624.1 296.2 625.2 298.1 625.1 300.3Z" fill="#37474F"/>
<path d="M637.6 300.7C637.7 298.1 635.8 296 633.4 295.9C631 295.8 629 297.9 628.9 300.5C628.8 303.1 630.7 305.2 633.1 305.3C635.5 305.3 637.5 303.3 637.6 300.7ZM636.9 300.6C636.8 302.8 635.1 304.6 633 304.6C630.9 304.5 629.3 302.7 629.4 300.4C629.5 298.2 631.2 296.4 633.3 296.4C635.4 296.5 637 298.4 636.9 300.6Z" fill="#37474F"/>
<path d="M629 300C626.7 299.1 625.6 299.8 625.6 299.9L625.2 299.4C625.3 299.4 626.5 298.4 629.2 299.5L629 300Z" fill="#37474F"/>
<path d="M637.3 300.2L637.2 299.6C637.6 299.5 647.2 298 648.3 298C649.4 298 651.9 299.5 652.2 299.6L651.9 300.1C651.2 299.7 649.2 298.6 648.4 298.5C647.4 298.7 640.7 299.7 637.3 300.2Z" fill="#37474F"/>
<path d="M648.2 301.9C644.1 301.9 642.6 289.5 642.4 288C642.5 289 642.8 294.1 642.4 294.3C642.3 294.4 641.8 294.3 641.1 294.1C641.1 293.5 641 292.9 640.9 292.3C640.9 292 640.8 292.9 640.7 294C640.5 293.9 640.2 293.9 639.9 293.8C639.9 292.7 639.8 291.3 639.4 289.9C639.3 289.4 639.2 291.6 638.8 293.5C636 292.8 631.9 292 628.1 292C627.1 292 626.2 292 625.4 292.1C625.3 290.6 625.5 289 625.4 289.3C625.1 290.3 624.9 291.3 624.9 292.1C624.5 292.1 624.1 292.2 623.8 292.2C623.6 290.1 624.5 286.6 624.2 287.2C623 289.3 622.5 291.4 622.3 292.5C620.9 292.8 620.5 293.1 620.4 292.8C620.3 292.1 620.9 286.1 625.5 281.6C630.4 276.7 640.5 275.1 646.4 282.3C646.4 282.3 651.2 285.2 652.1 290.1C652.9 295 650.5 301.9 648.2 301.9Z" fill="#263238"/>
<path d="M646.8 301.2C646.8 301.2 650.2 295.9 652.6 297.1C655 298.3 652.6 305.9 649.9 307C647.2 308.1 646.1 305.7 646.1 305.7L646.8 301.2Z" fill="#FFF0D9"/>
<path d="M651.8 299.3C649.9 300.2 649 302.1 648.3 303.9C648.8 303.2 649.6 302.7 650.6 303.4C650.7 303.4 650.6 303.5 650.6 303.5C649.8 303.4 649.2 303.5 648.7 304.2C648.3 304.7 648.1 305.2 647.9 305.8C647.8 306 647.5 305.9 647.6 305.7C647.4 303.1 649.2 299.6 651.8 299.3Z" fill="#263238"/>
<path d="M614.2 382.8H672.4V385.4H614.2V382.8Z" fill="#455A64"/>
<path d="M614.1 382.8H643.4V385.4H614.1V382.8Z" fill="#263238"/>
<path d="M642.8 385.4H699.5L707.5 346.8H650.8L642.8 385.4Z" fill="#495053"/>
<path d="M670.8 367C670.6 369.1 672.1 370.8 674.2 370.8C676.3 370.8 678.2 369.1 678.4 367C678.6 364.9 677.1 363.2 675 363.2C672.8 363.2 671 364.9 670.8 367Z" fill="white"/>
<path d="M532.1 385.4H579.4V381.7L532.1 380.2V385.4Z" fill="#2F3335"/>
<path d="M483.6 369.3H566.5L553.3 307.6H470.4L483.6 369.3Z" fill="#495053"/>
<path d="M480.6 369.3H563.4L550.2 307.6H467.4L480.6 369.3Z" fill="#2F3335"/>
<path d="M525.2 347.1H527.2L524.2 333.3H522.3L525.2 347.1Z" fill="black"/>
<path d="M521.4 347.1H523.3L520.4 333.3H518.5L521.4 347.1Z" fill="black"/>
<path d="M517.6 347.1H519.5L516.6 333.3H514.6L517.6 347.1Z" fill="black"/>
<path d="M513.7 347.1H515.7L512.7 333.3H510.8L513.7 347.1Z" fill="black"/>
<path d="M509.9 347.1H511.8L508.9 333.3H507L509.9 347.1Z" fill="black"/>
<path d="M506.1 347.1H508L505.1 333.3H503.1L506.1 347.1Z" fill="black"/>
<path d="M502.2 347.1H504.2L501.2 333.3H499.3L502.2 347.1Z" fill="black"/>
<path d="M504 385.4H544.7V382.2L504 380.9V385.4Z" fill="#495053"/>
<path d="M492.9 385.4H514.8L528 350.8H506.1L492.9 385.4Z" fill="#495053"/>
<path d="M489.3 385.4H511.2L524.4 350.8H502.5L489.3 385.4Z" fill="black"/>
<path d="M731.1 369.3H705.5L718.7 307.6H744.3L731.1 369.3Z" fill="#495053"/>
<path d="M734.2 369.3H708.6L721.8 307.6H747.3L734.2 369.3Z" fill="#2F3335"/>
<path d="M730.7 347.1H730.3L733.3 333.3H733.6L730.7 347.1Z" fill="black"/>
<path d="M729.9 347.1H729.5L732.5 333.3H732.8L729.9 347.1Z" fill="black"/>
<path d="M729.1 347.1H728.8L731.7 333.3H732.1L729.1 347.1Z" fill="black"/>
<path d="M728.3 347.1H728L730.9 333.3H731.3L728.3 347.1Z" fill="black"/>
<path d="M727.6 347.1H727.2L730.2 333.3H730.5L727.6 347.1Z" fill="black"/>
<path d="M726.8 347.1H726.4L729.4 333.3H729.7L726.8 347.1Z" fill="black"/>
<path d="M726 347.1H725.7L728.6 333.3H729L726 347.1Z" fill="black"/>
<path d="M725.3 347.1H724.9L727.8 333.3H728.2L725.3 347.1Z" fill="black"/>
<path d="M734.6 385.4H704.1V382.2L734.6 380.9V385.4Z" fill="#495053"/>
<path d="M745.7 385.4H734L720.8 350.8H732.5L745.7 385.4Z" fill="#495053"/>
<path d="M745.7 385.4H737.6L724.4 350.8H732.5L745.7 385.4Z" fill="#2F3335"/>
<path d="M584 385.4C584 385.4 612.5 385.4 615.2 385.4C617.9 385.4 614 377.8 604.3 374.9C594.6 372 580.9 382.6 584 385.4Z" fill="#2F3335"/>
<path d="M596.2 385.4C596.3 384.5 596.2 383.6 596 382.8C595.8 381.9 595.4 381.1 595 380.4C594.5 379.6 594 378.9 593.3 378.4C592.6 377.8 591.8 377.4 591 377.2C591.6 377.8 592.3 378.3 592.8 379C593.3 379.6 593.8 380.3 594.2 381C595 382.2 595.6 383.8 596.2 385.4Z" fill="#263238"/>
<path d="M592.5 378.2C591.5 378.4 590.6 378.7 589.7 379.1C588.8 379.5 588 380 587.1 380.6C586.3 381.2 585.5 381.8 584.9 382.7C584.3 383.5 583.8 384.5 583.9 385.5C584.2 384.6 584.8 383.9 585.5 383.2C586.2 382.6 586.9 382 587.7 381.4C589.3 380.3 590.9 379.3 592.5 378.2Z" fill="#263238"/>
<path d="M730.7 508.7H757.2V513.4H730.7V508.7Z" fill="#2F3335"/>
<path d="M716.4 576.8H719.2L742.6 467.9L743.9 461.7L748.1 442.2L749.6 434.9L755.5 407.5L757.6 397.9H747.4L745.7 407.5L744.6 413.8L743.9 418L739.7 442.2L738.4 450L716.4 576.8Z" fill="#2F3335"/>
<path d="M747.4 397.9L745.7 407.5H755.5L757.6 397.9H747.4Z" fill="#263238"/>
<path d="M738.4 450L742.6 467.9L743.9 461.7L748.1 442.2L749.6 434.9L744.6 413.8L743.9 418L739.7 442.2L738.4 450Z" fill="#263238"/>
<path d="M730.2 397.9L732.3 407.5L739.7 442.2L743.9 461.7L768.6 576.8H771.4L748.1 442.2L743.9 418L742.1 407.5L740.4 397.9H730.2Z" fill="#2F3335"/>
<path d="M730.2 397.9L732.3 407.5H742.1L740.4 397.9H730.2Z" fill="#263238"/>
<path d="M450.3 397.9L488.7 576.8H491.5L460.5 397.9H450.3Z" fill="#2F3335"/>
<path d="M477.7 397.9L439.4 576.8H436.5L467.5 397.9H477.7Z" fill="#2F3335"/>
<path d="M450.8 508.7H477.3V513.4H450.8V508.7Z" fill="#2F3335"/>
<path d="M434.7 385.4H773.2V398H434.7V385.4Z" fill="#2F3335"/>
<path d="M787.9 190H734V210H787.9V190Z" fill="#F39C12"/>
<path d="M741.7 204.1V195.2C741.7 194.7 742.1 194.4 742.5 194.4C742.9 194.4 743.3 194.8 743.3 195.2V198.8H747.2V195.2C747.2 194.7 747.6 194.4 748 194.4C748.5 194.4 748.8 194.8 748.8 195.2V204C748.8 204.5 748.4 204.8 748 204.8C747.5 204.8 747.2 204.4 747.2 204V200.4H743.4V204C743.4 204.5 743 204.8 742.6 204.8C742.2 204.8 741.7 204.6 741.7 204.1Z" fill="white"/>
<path d="M758.8 196.1H756.4V204.1C756.4 204.6 756 204.9 755.6 204.9C755.1 204.9 754.8 204.5 754.8 204.1V196.1H752.4C751.9 196.1 751.6 195.7 751.6 195.3C751.6 194.8 752 194.5 752.4 194.5H758.8C759.3 194.5 759.6 194.9 759.6 195.3C759.6 195.7 759.2 196.1 758.8 196.1Z" fill="white"/>
<path d="M771.1 195.2V204C771.1 204.5 770.7 204.8 770.3 204.8C769.8 204.8 769.5 204.4 769.5 204V197.7L767.3 200.7C767.1 200.9 766.9 201 766.6 201C766.3 201 766.1 200.9 765.9 200.7L763.8 197.7V204C763.8 204.5 763.4 204.8 763 204.8C762.5 204.8 762.2 204.4 762.2 204V195.2C762.2 194.8 762.6 194.4 763 194.4C763.2 194.4 763.5 194.5 763.7 194.7L766.7 198.8L769.7 194.7C769.9 194.5 770.1 194.4 770.4 194.4C770.7 194.4 771.1 194.8 771.1 195.2Z" fill="white"/>
<path d="M774.8 204.1V195.2C774.8 194.8 775.2 194.4 775.6 194.4C776.1 194.4 776.4 194.8 776.4 195.2V203.2H780.5C780.9 203.2 781.3 203.6 781.3 204C781.3 204.5 780.9 204.8 780.5 204.8H775.6C775.1 204.9 774.8 204.5 774.8 204.1Z" fill="white"/>
<path d="M371.4 181H327V201H371.4V181Z" fill="#F39C12"/>
<path d="M340.2 191.9H338.4V195.2C338.4 195.7 338 196 337.6 196C337.1 196 336.8 195.6 336.8 195.2V186.4C336.8 185.9 337.2 185.6 337.6 185.6H340.3C342.1 185.6 343.5 187 343.5 188.8C343.5 190.4 342 191.9 340.2 191.9ZM338.4 190.2H340.2C341.1 190.2 341.7 189.5 341.8 188.7C341.8 187.8 341.1 187.1 340.2 187.1H338.4V190.2Z" fill="white"/>
<path d="M345.5 195.1V186.3C345.5 185.8 345.9 185.5 346.3 185.5C346.8 185.5 347.1 185.9 347.1 186.3V189.9H351V186.3C351 185.8 351.4 185.5 351.8 185.5C352.3 185.5 352.6 185.9 352.6 186.3V195.1C352.6 195.6 352.2 195.9 351.8 195.9C351.3 195.9 351 195.5 351 195.1V191.5H347.1V195.1C347.1 195.6 346.7 195.9 346.3 195.9C345.8 196 345.5 195.6 345.5 195.1Z" fill="white"/>
<path d="M359.6 191.9H357.8V195.2C357.8 195.7 357.4 196 357 196C356.6 196 356.2 195.6 356.2 195.2V186.4C356.2 185.9 356.6 185.6 357 185.6H359.7C361.5 185.6 362.9 187 362.9 188.8C362.8 190.4 361.4 191.9 359.6 191.9ZM357.8 190.2H359.6C360.5 190.2 361.1 189.5 361.2 188.7C361.2 187.8 360.5 187.1 359.6 187.1H357.8V190.2Z" fill="white"/>
<path d="M975.5 540C940.43 540 912 533.284 912 525C912 516.716 940.43 510 975.5 510C1010.57 510 1039 516.716 1039 525C1039 533.284 1010.57 540 975.5 540Z" fill="#EBEBEB"/>
<path d="M224 617C174.294 617 134 607.598 134 596C134 584.402 174.294 575 224 575C273.706 575 314 584.402 314 596C314 607.598 273.706 617 224 617Z" fill="#EBEBEB"/>
<path d="M214.889 505.021C206.828 488.457 192.693 479.843 176.681 484.592C160.779 489.34 158.239 511.537 170.165 517.169C182.092 522.801 193.908 506.346 200.202 503.034C206.607 499.721 214.889 505.021 214.889 505.021Z" fill="#27AE60"/>
<path d="M222.73 549.303C222.73 547.316 222.619 545.328 222.509 543.34C222.398 539.365 222.177 535.389 222.067 531.303C221.846 524.015 220.963 516.837 217.981 510.101C215.22 504.027 210.914 498.727 205.171 495.303C203.073 493.978 200.754 493.095 198.435 492.432C196.447 490.224 193.355 488.788 190.595 488.126C186.95 487.242 183.085 487.463 179.331 487.794C179.22 487.794 179.22 488.015 179.331 488.015C182.865 487.573 186.509 487.794 189.932 488.788C191.368 489.23 192.803 489.782 194.239 490.445C195.122 490.886 195.895 491.438 196.668 491.991C193.466 491.328 190.153 491.328 186.95 492.101C185.846 492.322 184.631 492.764 183.527 493.205C182.644 492.984 181.76 492.984 180.877 492.984C179.662 492.984 178.558 493.205 177.454 493.426C175.135 493.978 172.926 495.083 170.938 496.297C170.828 496.408 170.938 496.518 171.049 496.518C173.036 495.414 175.245 494.641 177.454 494.089C178.558 493.868 179.662 493.647 180.766 493.647C181.429 493.647 181.981 493.647 182.644 493.647C178.116 495.745 174.362 499.389 172.374 503.917C172.263 504.027 172.484 504.138 172.595 504.027C175.024 498.616 180.104 494.972 185.736 493.537C186.067 493.426 186.398 493.426 186.84 493.316C186.73 493.868 186.73 494.42 186.619 494.972C186.509 495.745 186.398 496.629 186.177 497.402C185.846 499.058 185.404 500.715 184.852 502.261C184.3 503.917 183.638 505.463 182.975 507.009C182.202 508.555 181.429 510.211 180.325 511.537C180.214 511.647 180.435 511.757 180.546 511.647C181.539 510.101 182.644 508.776 183.527 507.23C184.411 505.794 185.073 504.138 185.736 502.592C186.288 500.935 186.84 499.279 187.171 497.622C187.392 496.739 187.503 495.856 187.613 494.972C187.723 494.42 187.834 493.868 187.723 493.316C189.601 492.984 191.478 492.984 193.355 493.205C192.693 497.181 191.92 501.267 189.711 504.69C189.601 504.8 189.822 504.911 189.932 504.8C190.926 502.923 191.92 501.156 192.693 499.168C193.355 497.291 193.908 495.303 194.018 493.316C197.331 493.757 200.533 494.862 203.404 496.408C208.926 499.5 213.122 504.359 215.883 509.991C218.865 516.175 220.079 522.8 220.521 529.537C221.073 538.04 221.184 546.543 221.957 555.046C222.067 555.598 222.84 555.819 222.95 555.156C222.95 553.058 222.73 551.181 222.73 549.303Z" fill="#263238"/>
<path d="M204.067 493.978C203.625 493.316 202.852 492.764 202.19 492.322C201.527 491.77 200.865 491.218 200.092 490.776C198.656 489.782 197.11 489.119 195.454 488.678C195.343 488.678 195.233 488.899 195.454 488.899C197.11 489.23 198.656 490.113 199.981 491.107C200.644 491.549 201.306 492.101 201.969 492.653C202.521 493.205 203.184 493.868 203.846 494.199C203.957 494.199 204.177 494.089 204.067 493.978Z" fill="#263238"/>
<path d="M178.227 499.942C176.901 501.488 175.576 503.144 174.472 504.8C173.368 506.567 172.484 508.334 171.711 510.211C171.711 510.322 171.822 510.322 171.822 510.211C173.809 506.678 175.797 503.034 178.337 499.942C178.447 500.052 178.337 499.831 178.227 499.942Z" fill="#263238"/>
<path d="M195.674 498.285C195.454 499.279 195.233 500.383 194.791 501.267C194.349 502.15 193.797 503.033 193.245 503.917C193.245 504.027 193.245 504.027 193.355 504.027C194.791 502.481 195.564 500.383 195.895 498.395C195.895 498.285 195.674 498.175 195.674 498.285Z" fill="#263238"/>
<path d="M221.625 505.463C221.625 505.463 233.11 491.107 255.196 496.187C276.178 501.046 285.895 539.475 264.693 544.114C243.49 548.752 247.245 513.083 239.515 507.009C233.662 502.592 225.601 503.586 221.625 505.463Z" fill="#27AE60"/>
<path d="M272.202 517.169C270.766 515.954 269.22 514.739 267.674 513.635C266.128 512.641 264.582 511.758 262.816 511.206C261.932 509.88 261.049 508.666 259.944 507.451C257.957 505.353 255.748 503.586 253.319 502.15C253.539 502.15 253.76 502.15 253.981 502.15C255.196 502.15 256.3 502.15 257.515 502.15C259.834 502.261 262.153 502.813 264.362 503.807C264.472 503.917 264.582 503.696 264.472 503.586C262.263 502.702 259.944 501.929 257.625 501.488C256.521 501.267 255.306 501.157 254.202 501.157C253.539 501.157 252.987 501.157 252.325 501.267C252.214 501.267 252.104 501.267 251.993 501.267C250.006 500.273 247.797 499.5 245.589 498.948C245.809 498.948 246.03 498.837 246.251 498.727C247.355 498.506 248.46 498.285 249.564 498.175C251.773 497.954 253.981 497.954 256.19 498.285C256.3 498.285 256.411 498.064 256.19 498.064C253.981 497.844 251.773 497.733 249.564 497.844C247.797 497.954 245.809 498.064 244.043 498.617C242.717 498.396 241.392 498.175 240.067 498.175C232.337 497.844 223.944 500.715 219.196 507.009C214.447 513.304 213.564 521.807 212.681 529.426C211.466 540.028 211.024 550.85 211.797 561.561C211.797 562.224 212.681 562.114 212.791 561.451C213.122 552.396 213.454 543.341 214.227 534.285C214.668 530.089 215.11 525.893 215.773 521.696C216.325 518.163 217.208 514.629 218.865 511.316C220.521 507.893 223.061 505.242 226.374 503.255C229.576 501.377 233.22 500.273 236.975 500.052C240.288 499.721 243.711 500.163 246.914 500.936C246.803 501.598 246.803 502.261 246.803 502.923C246.914 503.696 247.024 504.58 247.245 505.353C247.466 506.126 247.797 506.788 248.128 507.451C248.57 508.224 249.012 508.887 249.454 509.66C249.564 509.77 249.674 509.66 249.674 509.549C248.681 508.334 248.239 506.678 247.908 505.242C247.797 504.469 247.687 503.696 247.687 503.034C247.687 502.482 247.687 501.929 247.687 501.377C251.22 502.482 254.423 504.138 257.294 506.457C257.846 506.899 258.398 507.341 258.84 507.782C258.067 508.445 257.515 509.328 256.963 510.101C256.19 511.206 255.527 512.42 254.975 513.635C253.871 516.064 253.319 518.715 252.987 521.365C252.987 521.476 253.208 521.586 253.208 521.365C253.539 518.825 254.533 516.396 255.748 514.077C256.3 512.972 256.963 511.868 257.736 510.874C258.067 510.322 258.509 509.77 258.951 509.328C259.171 509.107 259.392 508.776 259.613 508.445C262.153 510.985 264.362 513.966 265.908 517.279C264.803 518.273 264.03 519.709 263.368 521.034C262.595 522.469 261.932 523.905 261.27 525.451C260.165 528.322 259.392 531.414 258.619 534.506C258.619 534.617 258.84 534.727 258.84 534.506C259.503 531.414 260.607 528.433 261.932 525.672C262.595 524.236 263.257 522.911 264.03 521.586C264.693 520.371 265.576 519.046 266.128 517.721C267.564 520.923 268.447 524.457 268.668 527.991C268.668 528.101 268.889 528.101 268.889 527.991C268.447 522.469 266.791 517.058 263.92 512.31C265.245 512.862 266.681 513.414 267.895 514.187C269.552 515.071 271.098 516.175 272.533 517.39C272.092 517.5 272.312 517.279 272.202 517.169Z" fill="#263238"/>
<path d="M255.969 518.052C255.306 520.261 254.423 522.359 253.871 524.568C253.319 526.666 252.877 528.874 252.877 531.083C252.877 531.193 252.987 531.193 252.987 531.083C253.65 526.666 254.644 522.249 256.19 518.163C256.19 517.942 256.079 517.831 255.969 518.052Z" fill="#263238"/>
<path d="M269.993 512.641C269.11 511.758 268.116 511.095 267.122 510.543C266.018 509.991 264.914 509.659 263.699 509.328C263.589 509.328 263.478 509.549 263.699 509.549C264.803 509.77 265.908 510.322 267.012 510.874C267.895 511.426 268.889 512.089 269.993 512.641C269.993 512.751 269.993 512.641 269.993 512.641Z" fill="#263238"/>
<path d="M232.447 486.248C232.447 486.248 234.546 460.408 253.76 452.015C269.773 445.058 278.938 463.058 267.674 474.101C258.509 483.046 243.822 479.071 232.447 486.248Z" fill="#27AE60"/>
<path d="M264.141 457.095C261.27 458.31 258.398 459.525 255.638 461.181C253.319 462.506 251.11 463.942 249.012 465.598C249.343 464.936 249.564 464.273 249.895 463.61C250.447 462.617 250.889 461.623 251.552 460.739C252.766 458.752 254.092 456.985 255.748 455.439C255.858 455.328 255.638 455.218 255.638 455.328C254.092 456.985 252.435 458.641 251.22 460.518C250.558 461.512 249.895 462.396 249.343 463.39C248.791 464.273 248.239 465.377 248.018 466.371C247.908 466.371 247.908 466.482 247.797 466.482C244.374 469.132 241.392 472.224 238.631 475.426C238.631 475.205 238.742 474.874 238.852 474.653C239.184 473.439 239.625 472.113 240.067 470.899C240.951 468.248 242.055 465.709 243.49 463.39C243.601 463.279 243.38 463.169 243.27 463.279C241.834 465.709 240.398 468.028 239.294 470.678C238.742 471.893 238.3 473.218 237.969 474.543C237.748 475.316 237.417 476.199 237.306 477.193C236.423 478.298 235.65 479.291 234.877 480.396C226.595 492.101 222.509 506.347 221.515 520.592C221.184 524.788 221.184 529.095 221.294 533.291C221.405 537.488 221.625 541.905 222.398 546.101C222.398 546.322 222.84 546.322 222.84 545.991C222.73 542.236 222.398 538.592 222.288 534.837C222.178 531.083 222.398 527.328 222.619 523.574C223.171 516.175 224.607 508.666 226.816 501.598C229.024 494.31 232.337 487.242 236.533 480.948C237.306 480.837 238.19 480.617 238.963 480.396C239.957 480.175 240.84 479.954 241.834 479.623C243.711 479.071 245.478 478.518 247.245 477.635C247.355 477.525 247.245 477.414 247.135 477.414C245.478 478.408 243.601 478.96 241.724 479.291C240.178 479.623 238.631 479.733 237.196 480.175C238.631 478.187 240.067 476.199 241.613 474.322C245.257 474.653 249.012 474.322 252.546 473.549C254.423 473.107 256.3 472.555 258.178 471.782C260.055 471.009 261.932 470.126 263.809 469.242C263.92 469.132 263.809 469.021 263.699 469.021C260.386 471.009 256.3 472.003 252.656 472.666C249.233 473.218 245.809 473.439 242.276 473.549C243.601 472.003 245.036 470.457 246.582 469.021C251.662 464.163 257.625 459.745 264.251 457.537C264.362 457.206 264.251 456.985 264.141 457.095Z" fill="#263238"/>
<path d="M248.46 457.095C247.576 458.199 246.803 459.304 246.141 460.518C245.368 461.844 244.926 463.169 244.484 464.494C244.484 464.494 244.595 464.604 244.595 464.494C245.257 463.279 245.809 461.954 246.472 460.629C247.135 459.414 247.908 458.199 248.791 457.095C248.681 457.206 248.57 456.985 248.46 457.095Z" fill="#263238"/>
<path d="M266.349 465.708C265.135 466.482 263.809 466.923 262.374 467.365C261.049 467.807 259.723 468.138 258.398 468.469C258.288 468.469 258.398 468.58 258.398 468.58C259.834 468.359 261.159 468.138 262.595 467.696C263.92 467.254 265.245 466.592 266.46 465.929C266.57 465.819 266.46 465.708 266.349 465.708Z" fill="#263238"/>
<path d="M217.539 481.61C217.429 482.715 214.668 472.224 198.435 462.948C183.638 454.445 166.079 432.469 180.546 418.555C192.141 407.291 222.95 431.807 217.539 481.61Z" fill="#27AE60"/>
<path d="M228.693 541.795C228.472 530.862 227.589 519.93 226.153 509.107C224.828 499.169 222.619 489.341 219.306 479.844C218.092 476.42 216.766 473.108 215.22 469.795C215.331 468.58 215.22 467.144 215.11 465.93C215 464.273 214.889 462.617 214.779 460.96C214.668 459.304 214.447 457.647 214.227 455.991C214.006 454.335 213.674 452.678 213.564 451.022C213.564 450.911 213.343 450.911 213.343 451.022C213.785 452.678 213.785 454.555 213.895 456.212C214.006 457.758 214.116 459.414 214.116 460.96C214.116 462.506 214.116 464.163 214.116 465.709C214.116 466.261 214.116 466.923 214.116 467.476C212.57 464.273 210.914 461.071 209.147 457.979C210.251 451.242 208.816 444.175 207.49 437.66C207.49 437.549 207.27 437.549 207.27 437.77C207.932 441.193 208.263 444.727 208.374 448.261C208.484 451.022 208.263 453.782 208.263 456.543C207.822 455.881 207.49 455.218 207.049 454.555C204.95 451.132 202.742 447.709 200.312 444.506C200.533 442.96 200.423 441.304 200.202 439.758C199.981 437.991 199.539 436.224 198.987 434.457C198.435 432.69 197.883 431.034 197.22 429.377C196.558 427.721 195.564 426.065 194.901 424.298C194.791 424.187 194.681 424.298 194.681 424.408C195.564 425.954 196.116 427.831 196.668 429.488C197.22 431.144 197.662 432.801 197.993 434.568C198.325 436.224 198.656 437.991 198.877 439.758C198.987 440.862 199.098 442.077 199.319 443.292C195.785 438.654 192.03 434.126 187.944 430.04C187.834 429.93 187.723 430.04 187.834 430.15C194.018 437.108 199.539 444.617 204.398 452.568C204.619 452.899 204.73 453.12 204.95 453.451C204.067 452.899 203.073 452.457 202.19 452.015C200.644 451.132 198.987 450.249 197.441 449.365C195.895 448.482 194.349 447.709 192.803 446.825C192.03 446.384 191.257 445.942 190.484 445.5C189.601 445.058 188.496 444.617 187.723 443.954C187.613 443.844 187.503 444.065 187.613 444.175C189.159 445.058 190.595 446.273 192.03 447.267C193.576 448.261 195.122 449.144 196.668 450.028C199.539 451.684 202.742 452.788 205.503 454.445C207.49 457.868 209.257 461.402 210.914 465.046C209.147 463.942 207.38 462.838 205.613 461.844C204.509 461.181 203.294 460.519 202.19 459.966C201.085 459.414 199.871 458.862 198.877 457.979C198.766 457.868 198.656 458.089 198.766 458.089C200.644 459.856 202.852 461.181 205.061 462.396C207.159 463.611 209.257 464.825 211.466 465.819C213.233 469.574 214.779 473.549 216.214 477.414C223.061 496.739 225.601 517.279 226.816 537.709C227.147 543.782 227.368 549.856 227.478 555.93C227.589 562.003 227.257 568.077 227.257 574.15C227.257 574.371 227.589 574.371 227.589 574.15C228.362 568.739 228.472 563.218 228.693 557.807C228.803 552.838 228.803 547.316 228.693 541.795Z" fill="#263238"/>
<path d="M199.208 454.113C196.227 452.899 193.355 451.242 190.595 449.696C187.724 448.15 185.073 446.383 182.423 444.506C182.423 444.506 182.312 444.506 182.312 444.617C184.852 446.604 187.392 448.482 190.153 450.138C193.024 451.794 196.006 453.12 199.098 454.445C199.208 454.445 199.319 454.224 199.208 454.113Z" fill="#263238"/>
<path d="M203.957 432.248C203.736 431.255 203.404 430.371 203.073 429.488C203.073 429.488 203.184 429.377 203.073 429.377C202.852 428.825 202.631 428.383 202.411 427.831C202.411 427.721 202.411 427.721 202.3 427.61C202.3 427.5 202.19 427.389 202.19 427.279C202.19 427.279 202.079 427.279 202.19 427.279C202.3 427.5 202.3 427.61 202.3 427.831C202.3 427.942 202.3 428.052 202.411 428.162C203.515 431.807 204.288 435.451 204.84 439.205C204.84 439.316 205.061 439.316 205.061 439.205C204.951 436.886 204.509 434.567 203.957 432.248Z" fill="#263238"/>
<path d="M245.92 545.77L244.705 559.463L241.171 601.316H203.184L199.65 559.463L198.435 545.77H245.92Z" fill="#2F3335"/>
<path d="M245.92 545.77L244.705 559.463H199.65L198.435 545.77H245.92Z" fill="black"/>
<path d="M249.564 540.249H194.681V553.39H249.564V540.249Z" fill="#2F3335"/>
<path d="M980.348 461.015C986.045 449.309 996.034 443.222 1007.35 446.577C1018.59 449.933 1020.38 465.619 1011.95 469.599C1003.53 473.579 995.176 461.951 990.728 459.61C986.201 457.269 980.348 461.015 980.348 461.015Z" fill="#27AE60"/>
<path d="M974.807 492.308C974.807 490.904 974.885 489.499 974.963 488.094C975.041 485.285 975.198 482.475 975.276 479.588C975.432 474.437 976.056 469.365 978.163 464.604C980.114 460.312 983.158 456.566 987.216 454.147C988.698 453.211 990.337 452.586 991.976 452.118C993.381 450.557 995.566 449.543 997.517 449.074C1000.09 448.45 1002.82 448.606 1005.48 448.84C1005.56 448.84 1005.56 448.996 1005.48 448.996C1002.98 448.684 1000.4 448.84 997.985 449.543C996.971 449.855 995.956 450.245 994.942 450.713C994.317 451.025 993.771 451.416 993.225 451.806C995.488 451.338 997.829 451.338 1000.09 451.884C1000.87 452.04 1001.73 452.352 1002.51 452.664C1003.14 452.508 1003.76 452.508 1004.38 452.508C1005.24 452.508 1006.02 452.664 1006.8 452.82C1008.44 453.211 1010 453.991 1011.41 454.849C1011.49 454.927 1011.41 455.005 1011.33 455.005C1009.93 454.225 1008.36 453.679 1006.8 453.289C1006.02 453.132 1005.24 452.976 1004.46 452.976C1003.99 452.976 1003.6 452.976 1003.14 452.976C1006.34 454.459 1008.99 457.034 1010.39 460.234C1010.47 460.312 1010.32 460.39 1010.24 460.312C1008.52 456.488 1004.93 453.913 1000.95 452.898C1000.72 452.82 1000.48 452.82 1000.17 452.742C1000.25 453.132 1000.25 453.523 1000.33 453.913C1000.4 454.459 1000.48 455.083 1000.64 455.63C1000.87 456.8 1001.18 457.971 1001.57 459.064C1001.97 460.234 1002.43 461.327 1002.9 462.419C1003.45 463.512 1003.99 464.682 1004.77 465.619C1004.85 465.697 1004.7 465.775 1004.62 465.697C1003.92 464.604 1003.14 463.668 1002.51 462.575C1001.89 461.561 1001.42 460.39 1000.95 459.298C1000.56 458.127 1000.17 456.956 999.936 455.786C999.78 455.162 999.702 454.537 999.624 453.913C999.546 453.523 999.468 453.132 999.546 452.742C998.219 452.508 996.893 452.508 995.566 452.664C996.034 455.474 996.58 458.361 998.141 460.78C998.219 460.858 998.063 460.936 997.985 460.858C997.283 459.532 996.58 458.283 996.034 456.878C995.566 455.552 995.176 454.147 995.098 452.742C992.757 453.054 990.493 453.835 988.464 454.927C984.562 457.112 981.597 460.546 979.646 464.526C977.539 468.897 976.68 473.579 976.368 478.339C975.978 484.348 975.9 490.357 975.354 496.366C975.276 496.757 974.729 496.913 974.651 496.445C974.651 494.962 974.807 493.635 974.807 492.308Z" fill="#263238"/>
<path d="M987.996 453.211C988.308 452.742 988.855 452.352 989.323 452.04C989.791 451.65 990.259 451.26 990.806 450.947C991.82 450.245 992.913 449.777 994.083 449.465C994.161 449.465 994.239 449.621 994.083 449.621C992.913 449.855 991.82 450.479 990.884 451.181C990.415 451.494 989.947 451.884 989.479 452.274C989.089 452.664 988.62 453.132 988.152 453.367C988.074 453.367 987.918 453.289 987.996 453.211Z" fill="#263238"/>
<path d="M1006.26 457.425C1007.19 458.517 1008.13 459.688 1008.91 460.859C1009.69 462.107 1010.32 463.356 1010.86 464.683C1010.86 464.761 1010.78 464.761 1010.78 464.683C1009.38 462.185 1007.97 459.61 1006.18 457.425C1006.1 457.503 1006.18 457.347 1006.26 457.425Z" fill="#263238"/>
<path d="M993.927 456.254C994.083 456.956 994.239 457.737 994.551 458.361C994.864 458.985 995.254 459.61 995.644 460.234C995.644 460.312 995.644 460.312 995.566 460.312C994.551 459.22 994.005 457.737 993.771 456.332C993.771 456.254 993.927 456.176 993.927 456.254Z" fill="#263238"/>
<path d="M975.588 461.327C975.588 461.327 967.472 451.182 951.864 454.771C937.036 458.205 930.169 485.363 945.152 488.641C960.136 491.918 957.483 466.711 962.945 462.419C967.081 459.298 972.778 460 975.588 461.327Z" fill="#27AE60"/>
<path d="M939.846 469.599C940.86 468.741 941.953 467.882 943.045 467.102C944.138 466.399 945.23 465.775 946.479 465.385C947.103 464.448 947.728 463.59 948.508 462.731C949.913 461.249 951.473 460 953.19 458.986C953.034 458.986 952.878 458.986 952.722 458.986C951.864 458.986 951.083 458.986 950.225 458.986C948.586 459.064 946.947 459.454 945.386 460.156C945.308 460.234 945.23 460.078 945.308 460C946.869 459.376 948.508 458.829 950.147 458.517C950.927 458.361 951.786 458.283 952.566 458.283C953.034 458.283 953.424 458.283 953.893 458.361C953.971 458.361 954.049 458.361 954.127 458.361C955.532 457.659 957.092 457.113 958.653 456.722C958.497 456.722 958.341 456.644 958.185 456.566C957.405 456.41 956.624 456.254 955.844 456.176C954.283 456.02 952.722 456.02 951.161 456.254C951.083 456.254 951.005 456.098 951.161 456.098C952.722 455.942 954.283 455.864 955.844 455.942C957.092 456.02 958.497 456.098 959.746 456.488C960.682 456.332 961.619 456.176 962.555 456.176C968.018 455.942 973.949 457.971 977.305 462.419C980.66 466.868 981.285 472.877 981.909 478.261C982.767 485.753 983.08 493.401 982.533 500.971C982.533 501.439 981.909 501.361 981.831 500.893C981.597 494.494 981.363 488.094 980.816 481.695C980.504 478.73 980.192 475.764 979.724 472.799C979.334 470.301 978.709 467.804 977.539 465.463C976.368 463.044 974.573 461.171 972.232 459.766C969.969 458.439 967.394 457.659 964.74 457.503C962.399 457.269 959.98 457.581 957.717 458.127C957.795 458.595 957.795 459.064 957.795 459.532C957.717 460.078 957.639 460.702 957.483 461.249C957.326 461.795 957.092 462.263 956.858 462.731C956.546 463.278 956.234 463.746 955.922 464.292C955.844 464.37 955.766 464.292 955.766 464.214C956.468 463.356 956.78 462.185 957.014 461.171C957.092 460.624 957.17 460.078 957.17 459.61C957.17 459.22 957.17 458.829 957.17 458.439C954.673 459.22 952.41 460.39 950.381 462.029C949.991 462.341 949.601 462.653 949.288 462.966C949.835 463.434 950.225 464.058 950.615 464.604C951.161 465.385 951.63 466.243 952.02 467.102C952.8 468.819 953.19 470.691 953.424 472.564C953.424 472.642 953.268 472.721 953.268 472.564C953.034 470.77 952.332 469.053 951.473 467.414C951.083 466.633 950.615 465.853 950.069 465.151C949.835 464.76 949.523 464.37 949.21 464.058C949.054 463.902 948.898 463.668 948.742 463.434C946.947 465.229 945.386 467.336 944.294 469.677C945.074 470.379 945.621 471.394 946.089 472.33C946.635 473.345 947.103 474.359 947.572 475.452C948.352 477.481 948.898 479.666 949.444 481.851C949.444 481.929 949.288 482.007 949.288 481.851C948.82 479.666 948.04 477.559 947.103 475.608C946.635 474.593 946.167 473.657 945.621 472.721C945.152 471.862 944.528 470.926 944.138 469.989C943.123 472.252 942.499 474.75 942.343 477.247C942.343 477.325 942.187 477.325 942.187 477.247C942.499 473.345 943.67 469.521 945.699 466.165C944.762 466.555 943.748 466.946 942.889 467.492C941.719 468.116 940.626 468.897 939.611 469.755C939.924 469.833 939.768 469.677 939.846 469.599Z" fill="#263238"/>
<path d="M951.317 470.223C951.786 471.784 952.41 473.267 952.8 474.828C953.19 476.31 953.503 477.871 953.503 479.432C953.503 479.51 953.425 479.51 953.425 479.432C952.956 476.31 952.254 473.189 951.161 470.301C951.161 470.145 951.239 470.067 951.317 470.223Z" fill="#263238"/>
<path d="M941.406 466.399C942.031 465.775 942.733 465.307 943.435 464.917C944.216 464.526 944.996 464.292 945.855 464.058C945.933 464.058 946.011 464.214 945.855 464.214C945.074 464.37 944.294 464.76 943.513 465.151C942.889 465.541 942.187 466.009 941.406 466.399C941.406 466.477 941.406 466.399 941.406 466.399Z" fill="#263238"/>
<path d="M967.94 447.748C967.94 447.748 966.457 429.487 952.878 423.556C941.563 418.639 935.085 431.359 943.045 439.163C949.523 445.485 959.902 442.675 967.94 447.748Z" fill="#27AE60"/>
<path d="M945.543 427.145C947.572 428.004 949.601 428.862 951.552 430.033C953.19 430.969 954.751 431.984 956.234 433.155C956 432.686 955.844 432.218 955.61 431.75C955.22 431.047 954.907 430.345 954.439 429.721C953.581 428.316 952.644 427.067 951.474 425.975C951.396 425.897 951.552 425.819 951.552 425.897C952.644 427.067 953.815 428.238 954.673 429.565C955.141 430.267 955.61 430.891 956 431.594C956.39 432.218 956.78 432.998 956.936 433.701C957.014 433.701 957.014 433.779 957.092 433.779C959.512 435.652 961.619 437.837 963.57 440.1C963.57 439.944 963.492 439.71 963.414 439.554C963.18 438.695 962.867 437.759 962.555 436.9C961.931 435.027 961.151 433.233 960.136 431.594C960.058 431.516 960.214 431.438 960.292 431.516C961.307 433.233 962.321 434.871 963.102 436.744C963.492 437.603 963.804 438.539 964.038 439.476C964.194 440.022 964.428 440.646 964.506 441.349C965.131 442.129 965.677 442.831 966.223 443.612C972.076 451.884 974.964 461.951 975.666 472.018C975.9 474.984 975.9 478.027 975.822 480.993C975.744 483.958 975.588 487.08 975.042 490.045C975.042 490.202 974.729 490.202 974.729 489.967C974.807 487.314 975.042 484.739 975.12 482.085C975.198 479.432 975.042 476.779 974.886 474.125C974.495 468.897 973.481 463.59 971.92 458.595C970.359 453.445 968.018 448.45 965.052 444.002C964.506 443.924 963.882 443.768 963.336 443.612C962.633 443.456 962.009 443.3 961.307 443.066C959.98 442.675 958.731 442.285 957.483 441.661C957.405 441.583 957.483 441.505 957.561 441.505C958.731 442.207 960.058 442.597 961.385 442.831C962.477 443.066 963.57 443.144 964.584 443.456C963.57 442.051 962.555 440.646 961.463 439.32C958.887 439.554 956.234 439.32 953.737 438.773C952.41 438.461 951.083 438.071 949.757 437.525C948.43 436.978 947.103 436.354 945.777 435.73C945.699 435.652 945.777 435.574 945.855 435.574C948.196 436.978 951.083 437.681 953.659 438.149C956.078 438.539 958.497 438.695 960.994 438.773C960.058 437.681 959.043 436.588 957.951 435.574C954.361 432.14 950.147 429.018 945.465 427.458C945.387 427.224 945.465 427.067 945.543 427.145Z" fill="#263238"/>
<path d="M956.624 427.145C957.248 427.926 957.795 428.706 958.263 429.565C958.809 430.501 959.121 431.437 959.434 432.374C959.434 432.374 959.356 432.452 959.356 432.374C958.887 431.516 958.497 430.579 958.029 429.643C957.561 428.784 957.014 427.926 956.39 427.145C956.468 427.223 956.546 427.067 956.624 427.145Z" fill="#263238"/>
<path d="M943.982 433.232C944.84 433.779 945.777 434.091 946.791 434.403C947.728 434.715 948.664 434.949 949.601 435.183C949.679 435.183 949.601 435.261 949.601 435.261C948.586 435.105 947.65 434.949 946.635 434.637C945.699 434.325 944.762 433.857 943.904 433.389C943.826 433.31 943.904 433.232 943.982 433.232Z" fill="#263238"/>
<path d="M978.475 444.47C978.553 445.25 980.504 437.837 991.976 431.281C1002.43 425.272 1014.84 409.742 1004.62 399.909C996.424 391.949 974.651 409.274 978.475 444.47Z" fill="#27AE60"/>
<path d="M970.593 487.002C970.749 479.276 971.374 471.55 972.388 463.902C973.325 456.878 974.885 449.933 977.227 443.221C978.085 440.802 979.022 438.461 980.114 436.12C980.036 435.261 980.114 434.247 980.192 433.388C980.27 432.218 980.348 431.047 980.426 429.877C980.504 428.706 980.66 427.535 980.816 426.365C980.973 425.194 981.207 424.024 981.285 422.853C981.285 422.775 981.441 422.775 981.441 422.853C981.129 424.024 981.129 425.35 981.051 426.521C980.973 427.613 980.895 428.784 980.895 429.877C980.895 430.969 980.895 432.14 980.895 433.232C980.895 433.622 980.895 434.091 980.895 434.481C981.987 432.218 983.158 429.955 984.406 427.769C983.626 423.009 984.64 418.015 985.577 413.41C985.577 413.332 985.733 413.332 985.733 413.488C985.265 415.907 985.031 418.405 984.953 420.902C984.875 422.853 985.031 424.804 985.031 426.755C985.343 426.287 985.577 425.818 985.889 425.35C987.372 422.931 988.933 420.512 990.649 418.249C990.493 417.156 990.571 415.985 990.728 414.893C990.884 413.644 991.196 412.396 991.586 411.147C991.976 409.898 992.366 408.728 992.835 407.557C993.303 406.387 994.005 405.216 994.473 403.967C994.551 403.889 994.63 403.967 994.63 404.045C994.005 405.138 993.615 406.465 993.225 407.635C992.835 408.806 992.522 409.976 992.288 411.225C992.054 412.396 991.82 413.644 991.664 414.893C991.586 415.673 991.508 416.532 991.352 417.39C993.849 414.113 996.502 410.913 999.39 408.025C999.468 407.947 999.546 408.025 999.468 408.103C995.098 413.02 991.196 418.327 987.762 423.946C987.606 424.18 987.528 424.336 987.372 424.57C987.996 424.18 988.698 423.868 989.323 423.555C990.415 422.931 991.586 422.307 992.679 421.682C993.771 421.058 994.864 420.512 995.956 419.887C996.502 419.575 997.049 419.263 997.595 418.951C998.219 418.639 999 418.327 999.546 417.858C999.624 417.78 999.702 417.936 999.624 418.015C998.531 418.639 997.517 419.497 996.502 420.2C995.41 420.902 994.317 421.526 993.225 422.151C991.196 423.321 988.933 424.102 986.982 425.272C985.577 427.691 984.328 430.189 983.158 432.764C984.406 431.984 985.655 431.203 986.904 430.501C987.684 430.033 988.542 429.564 989.323 429.174C990.103 428.784 990.962 428.394 991.664 427.769C991.742 427.691 991.82 427.848 991.742 427.848C990.415 429.096 988.855 430.033 987.294 430.891C985.811 431.75 984.328 432.608 982.767 433.31C981.519 435.964 980.426 438.773 979.412 441.504C974.573 455.161 972.778 469.677 971.92 484.114C971.686 488.406 971.53 492.699 971.452 496.991C971.374 501.283 971.608 505.575 971.608 509.867C971.608 510.023 971.374 510.023 971.374 509.867C970.827 506.043 970.749 502.141 970.593 498.317C970.515 494.806 970.515 490.904 970.593 487.002Z" fill="#263238"/>
<path d="M991.43 425.038C993.537 424.18 995.566 423.009 997.517 421.917C999.546 420.824 1001.42 419.575 1003.29 418.249C1003.29 418.249 1003.37 418.249 1003.37 418.327C1001.57 419.732 999.78 421.058 997.829 422.229C995.8 423.399 993.693 424.336 991.508 425.272C991.43 425.272 991.352 425.116 991.43 425.038Z" fill="#263238"/>
<path d="M988.074 409.586C988.23 408.884 988.464 408.26 988.699 407.635C988.699 407.635 988.621 407.557 988.699 407.557C988.855 407.167 989.011 406.855 989.167 406.465C989.167 406.387 989.167 406.387 989.245 406.309C989.245 406.231 989.323 406.153 989.323 406.074C989.323 406.074 989.401 406.074 989.323 406.074C989.245 406.231 989.245 406.309 989.245 406.465C989.245 406.543 989.245 406.621 989.167 406.699C988.386 409.274 987.84 411.849 987.45 414.503C987.45 414.581 987.294 414.581 987.294 414.503C987.372 412.864 987.684 411.225 988.074 409.586Z" fill="#263238"/>
<path d="M958.419 489.811L959.278 499.488L961.775 529.065H988.62L991.118 499.488L991.976 489.811H958.419Z" fill="#37474F"/>
<path d="M958.419 489.811L959.278 499.488H991.118L991.976 489.811H958.419Z" fill="#263238"/>
<path d="M955.844 485.909H994.63V495.196H955.844V485.909Z" fill="#37474F"/>
<path d="M7.89999 394.383C7.89999 393.583 8 391.283 8 390.383C8 386.283 6.59999 384.483 2.79999 384.383C0.999988 384.283 0 383.183 0 381.683C0 380.183 1.09999 379.083 2.79999 378.983C6.59999 378.783 8 376.983 8 372.883C8 371.983 7.89999 369.683 7.89999 368.883C7.89999 363.483 10.2 359.983 18.8 358.083C20.5 357.683 21.9 358.783 21.9 360.383C21.9 361.683 21 362.483 20.3 362.683C14.9 364.383 14.1 366.083 14.1 369.883C14.1 370.983 14.2 372.883 14.2 373.983C14.2 378.283 12.1 380.483 8.39999 381.583C12.1 382.783 14.2 384.883 14.2 389.183C14.2 390.383 14.1 392.183 14.1 393.283C14.1 397.083 14.9 398.783 20.3 400.483C21 400.683 21.9 401.383 21.9 402.783C21.9 404.383 20.6 405.483 18.8 405.083C10.2 403.283 7.89999 399.883 7.89999 394.383Z" fill="#EBEBEB"/>
<path d="M40.6 368.883C40.6 369.683 40.5 371.983 40.5 372.883C40.5 376.983 42 378.783 45.8 378.983C47.5 379.083 48.6 380.183 48.6 381.683C48.6 383.183 47.5 384.283 45.8 384.383C42 384.483 40.5 386.383 40.5 390.383C40.5 391.283 40.6 393.583 40.6 394.383C40.6 399.883 38.3 403.283 29.7 405.183C28 405.583 26.6 404.483 26.6 402.883C26.6 401.583 27.5 400.783 28.2 400.583C33.6 398.883 34.3 397.183 34.3 393.383C34.3 392.283 34.2 390.383 34.2 389.283C34.2 384.983 36.3 382.783 40 381.683C36.3 380.483 34.2 378.383 34.2 374.083C34.2 372.883 34.3 371.083 34.3 369.983C34.3 366.183 33.5 364.483 28.2 362.783C27.5 362.583 26.6 361.883 26.6 360.483C26.6 358.883 27.9 357.783 29.7 358.183C38.3 360.083 40.6 363.483 40.6 368.883Z" fill="#EBEBEB"/>
</svg>
