<svg width="129" height="33" viewBox="0 0 129 33" fill="none" xmlns="http://www.w3.org/2000/svg">
<path d="M23.6564 0.136597L37.2286 32.6684V0.136597H23.6564ZM0.585022 0.136597V32.6684L14.1572 0.136597H0.585022ZM12.9935 26.0343H19.191L21.9108 32.6548H27.5265L18.8121 12.0183L12.9935 26.0343Z" fill="#737A7D"/>
<path fill-rule="evenodd" clip-rule="evenodd" d="M72.5055 19.2371C72.5055 15.2811 75.4419 12.1135 80.2321 12.1135C80.611 12.1135 80.9357 12.1407 81.3958 12.1951V6.59413C81.3958 6.45819 81.4499 6.40381 81.5582 6.40381H84.5216C84.6569 6.40381 84.6569 6.45819 84.6569 6.56694V23.0572C84.6569 23.6009 84.7111 24.3079 84.7652 24.8109C84.7652 24.9468 84.7381 25.0012 84.6028 25.0556C82.8302 25.8169 81.0981 26.1159 79.4608 26.1159C75.5231 26.1295 72.5055 23.832 72.5055 19.2371ZM81.3958 15.0635C81.044 14.9276 80.611 14.8732 80.1238 14.8732C77.7017 14.8732 75.8884 16.4366 75.8884 19.0739C75.8884 22.0512 77.6611 23.2747 79.8261 23.2747C80.3674 23.2747 80.9087 23.2203 81.4093 23.0572V15.0635H81.3958ZM59.9753 21.1267L58.4868 25.6265C58.4327 25.7897 58.3515 25.844 58.1891 25.844H55.4693C55.3069 25.844 55.2528 25.7625 55.2798 25.5721L60.8819 9.57134C60.9902 9.29945 61.0714 9.02755 61.1255 8.10312C61.1255 7.99437 61.1796 7.9128 61.2879 7.9128H65.0632C65.1985 7.9128 65.2256 7.93999 65.2526 8.07594L71.5313 25.6129C71.5584 25.7761 71.5313 25.8576 71.3689 25.8576H68.3243C68.189 25.8576 68.1078 25.8033 68.0537 25.6945L66.4705 21.1403H59.9753V21.1267ZM65.6045 18.1495C65.406 17.518 65.12 16.6444 64.8088 15.6938L64.8088 15.6938L64.8088 15.6937C64.2289 13.9224 63.5616 11.8838 63.2094 10.6453H63.1823C62.8255 12.1575 62.0185 14.5928 61.2913 16.7874L61.2913 16.7875C61.1359 17.2562 60.9842 17.714 60.8413 18.1495H65.6045ZM93.8179 26.1159C97.6473 26.1159 100.34 23.2747 100.34 19.0468C100.34 15.3083 98.0668 12.1135 93.872 12.1135C89.799 12.1135 87.2686 15.2539 87.2686 19.1283C87.2686 22.595 89.2713 26.1159 93.8179 26.1159ZM93.872 23.3291C91.8017 23.3291 90.5838 21.589 90.5838 19.074C90.5838 16.4774 91.8964 14.8732 93.7096 14.8732C96.0235 14.8732 96.9978 16.858 96.9978 19.1283C96.9978 21.9424 95.5635 23.3291 93.872 23.3291ZM105.942 6.40381C106.132 6.40381 106.186 6.431 106.186 6.62132L106.213 12.4942C106.944 12.2495 107.796 12.1135 108.689 12.1135C112.6 12.1135 115.103 14.9004 115.103 18.5574C115.103 23.6145 111.192 26.1159 107.16 26.1159C105.753 26.1159 104.386 25.9256 103.087 25.5178C102.979 25.4906 102.898 25.3546 102.898 25.2731V6.59413C102.898 6.45819 102.979 6.40381 103.087 6.40381H105.942ZM108.121 14.9276C107.174 14.9276 106.659 15.0635 106.213 15.2267V23.2067C106.592 23.3155 106.998 23.3426 107.458 23.3426C109.69 23.3426 111.747 21.9288 111.747 18.8972C111.761 16.2871 110.272 14.9276 108.121 14.9276ZM120.354 19.8896C120.44 21.8001 121.686 23.3155 124.453 23.3155C125.671 23.3155 126.794 23.0979 127.823 22.6629C127.904 22.6085 127.985 22.6357 127.985 22.7717V25.042C127.985 25.2051 127.931 25.2867 127.823 25.341C126.794 25.8304 125.59 26.1295 123.75 26.1295C118.797 26.1295 117.038 22.6357 117.038 19.2779C117.038 15.485 119.325 12.1271 123.425 12.1271C127.444 12.1271 129 15.2947 129 17.8912C129 18.6525 128.973 19.2779 128.892 19.5905C128.865 19.6993 128.811 19.7537 128.675 19.7809C128.296 19.8624 127.214 19.8896 125.874 19.8896H120.354ZM125.888 17.497C125.78 17.5242 125.428 17.5242 124.399 17.5242H120.34C120.556 16.1783 121.395 14.7373 123.276 14.7373C125.347 14.7373 125.888 16.491 125.888 17.2795V17.497Z" fill="#737A7D"/>
</svg>
