<svg width="111" height="35" viewBox="0 0 111 35" fill="none" xmlns="http://www.w3.org/2000/svg">
<path fill-rule="evenodd" clip-rule="evenodd" d="M31.8338 24.175C31.8909 24.3157 31.948 24.4565 32.0051 24.5935C32.4502 25.8605 32.5872 27.0591 32.3133 28.2576C31.9366 30.7917 30.2586 32.9833 27.8615 33.9421C27.0054 34.3188 26.0466 34.49 25.0878 34.49C24.8138 34.49 24.4714 34.4558 24.1974 34.4215C23.0674 34.2846 21.9031 33.9079 20.773 33.2572C19.4033 32.4696 18.0335 31.3396 16.5268 29.6959C15.02 31.3396 13.6845 32.4696 12.2805 33.2572C11.1505 33.9079 9.98617 34.2846 8.85612 34.4215C8.58216 34.4558 8.23972 34.49 7.96577 34.49C7.00694 34.49 6.08235 34.3188 5.19201 33.9421C2.82917 32.9833 1.11697 30.8259 0.740287 28.2576C0.569067 27.0248 0.706043 25.8263 1.15122 24.5593C1.32244 24.1141 1.49366 23.7032 1.66488 23.3265C1.78978 23.0454 1.91469 22.7715 2.03635 22.5047C2.18152 22.1864 2.32207 21.8781 2.45249 21.58L2.48673 21.5116C4.84957 16.375 7.41787 11.1699 10.0547 6.03326L10.1574 5.8278C10.4313 5.31414 10.7053 4.76624 10.9792 4.21833C11.3217 3.60194 11.6984 2.95131 12.212 2.33492C13.3421 1.03364 14.8831 0.280273 16.5953 0.280273C18.2732 0.280273 19.8484 1.03364 20.9442 2.4034C21.4495 2.97182 21.78 3.56936 22.097 4.14231L22.177 4.28682L22.1771 4.28701C22.451 4.83485 22.725 5.38269 22.9989 5.89629L23.1016 6.10175C25.7727 11.2384 28.3067 16.4434 30.6695 21.58L30.7038 21.6143C30.834 21.912 30.9744 22.2197 31.1193 22.5376L31.1195 22.5381L31.1199 22.5388C31.2415 22.8057 31.3665 23.0796 31.4914 23.3607C31.6055 23.6118 31.7197 23.8933 31.8338 24.1748L31.8338 24.175ZM58.4414 8.87576C58.4414 10.1085 57.4483 11.1016 56.2155 11.1016C54.9828 11.1016 53.9897 10.1085 53.9897 8.87576C53.9897 7.64298 54.9485 6.6499 56.2155 6.6499C57.4826 6.68415 58.4414 7.67722 58.4414 8.87576ZM49.264 13.3619V13.9098C49.264 13.9098 48.2025 12.54 45.9423 12.54C42.2098 12.54 39.299 15.3823 39.299 19.3204C39.299 23.2242 42.1755 26.1007 45.9423 26.1007C48.2367 26.1007 49.264 24.6967 49.264 24.6967V25.2788C49.264 25.5528 49.4695 25.7582 49.7434 25.7582H52.5172V12.8825H49.7434C49.4695 12.8825 49.264 13.1222 49.264 13.3619ZM46.4902 23.0188C47.723 23.0188 48.7503 22.3681 49.264 21.6148V17.0261C48.7846 16.307 47.6888 15.6221 46.4902 15.6221C44.2986 15.6221 42.6207 16.9918 42.6207 19.3204C42.6207 21.649 44.2986 23.0188 46.4902 23.0188ZM54.5718 12.8823H57.8593V25.7581H54.5718V12.8823ZM100.356 13.9096C100.356 13.9096 101.418 12.5398 103.678 12.5398C107.376 12.5398 110.287 15.4163 110.287 19.3201C110.287 23.2239 107.376 26.1004 103.643 26.1004C101.383 26.1004 100.322 24.6964 100.322 24.6964V25.2786C100.322 25.5183 100.116 25.758 99.8424 25.758H97.0686V6.68408H100.356V13.9096ZM103.13 22.9846C101.863 22.9846 100.87 22.334 100.356 21.5806V16.9919C100.87 16.307 101.966 15.5879 103.13 15.5879C105.321 15.5879 106.999 16.9576 106.999 19.2862C106.999 21.6148 105.321 22.9846 103.13 22.9846ZM95.3564 25.7925V18.1218C95.3564 15.9644 94.9112 14.7317 93.7469 13.7728C92.7881 12.951 91.5896 12.54 90.1513 12.54C88.8843 12.54 87.6173 12.9167 86.6584 13.9098V13.3619C86.6584 13.1222 86.453 12.8825 86.179 12.8825H83.5765V25.7582H86.8639V16.7863C87.5145 16.0329 88.5419 15.5193 89.5349 15.5193C91.3841 15.5193 92.069 16.3754 92.069 18.4985V25.7925H95.3564ZM75.5976 12.5398C73.3375 12.5398 72.2759 13.9096 72.2759 13.9096V6.68408H68.9885V25.758H71.7623C72.0362 25.758 72.2417 25.5183 72.2417 25.2786V24.6964C72.2417 24.6964 73.3033 26.1004 75.5634 26.1004C79.296 26.1004 82.2067 23.2239 82.2067 19.3201C82.241 15.4163 79.3302 12.5398 75.5976 12.5398ZM72.276 21.5806C72.7897 22.334 73.7827 22.9846 75.0498 22.9846C77.2414 22.9846 78.9193 21.6148 78.9193 19.2862C78.9193 16.9576 77.2414 15.5879 75.0498 15.5879C73.8855 15.5879 72.7897 16.307 72.276 16.9919V21.5806ZM66.1463 12.54C67.1394 12.54 67.653 12.7113 67.653 12.7113V15.759C67.653 15.759 64.9135 14.8344 63.2013 16.7863V25.7925H59.9139V12.8825H62.6876C62.9616 12.8825 63.1671 13.1222 63.1671 13.3619V13.9098C63.7835 13.1907 65.119 12.54 66.1463 12.54ZM16.561 26.3744C14.7118 24.0459 13.5133 21.8542 13.1024 20.0051C12.9311 19.2174 12.8969 18.5326 12.9996 17.9162C13.0681 17.3683 13.2736 16.8889 13.5475 16.4779C14.1982 15.5533 15.294 14.9712 16.561 14.9712C17.828 14.9712 18.9581 15.5191 19.5745 16.4779C19.8484 16.8889 20.0539 17.3683 20.1224 17.9162C20.2251 18.5326 20.1909 19.2517 20.0196 20.0051C19.6087 21.82 18.4102 24.0116 16.561 26.3744ZM27.1081 31.9904C28.7861 31.3055 29.9846 29.7645 30.2243 27.9838C30.3613 27.0935 30.2586 26.2374 29.9846 25.347C29.9132 25.1091 29.8088 24.8711 29.6942 24.6102C29.6439 24.4956 29.5917 24.3766 29.5394 24.2512C29.4025 23.9773 29.274 23.6862 29.1456 23.3951C29.0172 23.104 28.8888 22.813 28.7518 22.539V22.5048C26.389 17.4024 23.8549 12.1973 21.2524 7.09498L21.1496 6.88951C21.0127 6.63268 20.8757 6.36729 20.7387 6.10191C20.6017 5.83651 20.4648 5.57112 20.3278 5.31429C20.0538 4.76639 19.7456 4.25273 19.369 3.80756C18.6498 2.9857 17.691 2.54053 16.6294 2.54053C15.5679 2.54053 14.609 2.9857 13.8899 3.80756C13.5132 4.25273 13.205 4.76639 12.9311 5.31429C12.7941 5.57112 12.6571 5.83651 12.5202 6.10191C12.3832 6.36729 12.2462 6.63268 12.1092 6.88951L12.0065 7.09498C9.36971 12.1631 6.83566 17.3682 4.47282 22.4705L4.43858 22.539C4.16462 23.1212 3.89067 23.7033 3.65096 24.2512C3.59873 24.3766 3.54649 24.4956 3.49619 24.6102C3.38164 24.8711 3.27718 25.1091 3.20579 25.347C2.86335 26.3059 2.79486 27.162 2.89759 28.0181C3.1373 29.7988 4.33584 31.3397 6.0138 32.0246C6.80141 32.3328 7.69176 32.4698 8.61634 32.3671C9.47244 32.2643 10.3285 31.9904 11.2189 31.4767C12.4517 30.7918 13.7187 29.7303 15.1227 28.155C12.8968 25.3813 11.4928 22.813 10.9792 20.5529C10.7052 19.5256 10.671 18.5325 10.808 17.6421C10.9449 16.786 11.2531 15.9984 11.7325 15.3135C12.7941 13.8068 14.5748 12.8822 16.561 12.8822C18.5471 12.8822 20.3278 13.7726 21.3894 15.3135C21.8688 15.9984 22.177 16.786 22.3139 17.6421C22.4167 18.5325 22.3824 19.4913 22.1427 20.5529C21.6291 22.813 20.2593 25.347 17.9992 28.1208C19.4374 29.696 20.6702 30.7576 21.903 31.4425C22.7934 31.9561 23.6495 32.2301 24.5056 32.3328C25.3959 32.4355 26.2862 32.3328 27.1081 31.9904Z" fill="#737A7D"/>
</svg>
