<svg width="101" height="35" viewBox="0 0 101 35" fill="none" xmlns="http://www.w3.org/2000/svg">
<path fill-rule="evenodd" clip-rule="evenodd" d="M50.523 30.8869C53.4757 33.2652 57.229 34.6869 61.3098 34.6869C65.3906 34.6869 69.1439 33.2652 72.0967 30.8869C75.0495 33.2652 78.8027 34.6869 82.8835 34.6869C92.2752 34.6869 99.9322 27.1565 100.089 17.7662C100.245 8.37579 92.8436 0.59433 83.4571 0.281273L82.3699 0.280273L82.3099 0.281273C78.4372 0.410439 74.9023 1.81097 72.0967 4.07131C69.2911 1.81097 65.7562 0.410439 61.8834 0.281273L60.7962 0.280273L60.7362 0.281273C56.8634 0.410439 53.3285 1.81097 50.523 4.07131C47.7174 1.81097 44.1825 0.410439 40.3097 0.281273L39.2224 0.280273L39.1625 0.281273C35.2897 0.410439 31.7548 1.81097 28.9492 4.07131C26.1436 1.81097 22.6087 0.410439 18.736 0.281273L17.6487 0.280273L17.5888 0.281273C8.20233 0.59433 0.8006 8.37579 0.95715 17.7662C1.1137 27.1565 8.7707 34.6869 18.1624 34.6869C22.2432 34.6869 25.9965 33.2652 28.9492 30.8869C31.902 33.2652 35.6553 34.6869 39.7361 34.6869C43.8169 34.6869 47.5702 33.2652 50.523 30.8869ZM96.4937 17.7063C96.3699 25.1345 90.3128 31.0914 82.8836 31.0914C79.7986 31.0914 76.9503 30.0643 74.6651 28.3311C77.0156 25.442 78.4483 21.7735 78.5151 17.7662C78.5853 13.5531 77.1341 9.66377 74.6647 6.62759C76.824 4.98942 79.4913 3.97911 82.4008 3.87598H83.3973C90.7624 4.12262 96.6175 10.2781 96.4937 17.7063ZM65.6784 17.7662C65.6081 13.5502 67.0614 9.65852 69.5338 6.62143C67.3774 4.98172 64.717 3.97287 61.8235 3.87598H60.8271C57.9176 3.97911 55.2503 4.98942 53.0909 6.62759C55.5603 9.66377 57.0116 13.5531 56.9414 17.7662C56.8746 21.7735 55.4419 25.442 53.0914 28.3311C55.3766 30.0643 58.2249 31.0914 61.3099 31.0914C64.3948 31.0914 67.2432 30.0643 69.5284 28.3311C67.1779 25.442 65.7452 21.7735 65.6784 17.7662ZM72.0991 9.17334C73.9134 11.5323 74.9734 14.5009 74.92 17.7064C74.8692 20.748 73.8238 23.5428 72.0967 25.7831C70.3696 23.5428 69.3242 20.748 69.2735 17.7064C69.22 14.5009 70.28 11.5324 72.0991 9.17334ZM40.2498 3.87598H39.2534C36.3439 3.97911 33.6766 4.98942 31.5172 6.62759C33.9866 9.66377 35.4379 13.5531 35.3676 17.7662C35.3008 21.7735 33.8682 25.442 31.5177 28.3311C33.8028 30.0643 36.6512 31.0914 39.7361 31.0914C42.8211 31.0914 45.6694 30.0643 47.9546 28.3311C45.6041 25.442 44.1714 21.7735 44.1046 17.7662C44.0344 13.5502 45.4876 9.65852 47.9601 6.62143C45.8037 4.98172 43.1433 3.97287 40.2498 3.87598ZM50.523 25.7831C48.7959 23.5428 47.7505 20.748 47.6997 17.7064C47.6463 14.5009 48.7063 11.5324 50.5254 9.17334C52.3397 11.5323 53.3997 14.5009 53.3462 17.7064C53.2955 20.748 52.2501 23.5428 50.523 25.7831ZM18.6761 3.87598H17.6797C10.2683 4.13868 4.42867 10.2878 4.55234 17.7063C4.67618 25.1345 10.7332 31.0914 18.1624 31.0914C21.2474 31.0914 24.0957 30.0643 26.3809 28.3311C24.0304 25.442 22.5977 21.7735 22.5309 17.7662C22.4607 13.5502 23.9139 9.65852 26.3864 6.62143C24.23 4.98172 21.5696 3.97287 18.6761 3.87598ZM28.9493 25.7831C27.2222 23.5428 26.1767 20.748 26.126 17.7064C26.0726 14.5009 27.1325 11.5324 28.9516 9.17334C30.7659 11.5323 31.8259 14.5009 31.7725 17.7064C31.7218 20.748 30.6763 23.5428 28.9493 25.7831Z" fill="#737A7D"/>
</svg>
