<svg width="132" height="30" viewBox="0 0 132 30" fill="none" xmlns="http://www.w3.org/2000/svg">
<path fill-rule="evenodd" clip-rule="evenodd" d="M0.104919 22.3981V29.1001H6.79989H13.4949V22.3981V15.6962H6.79989H0.104919V22.3981ZM105.333 13.6502C106.074 12.491 107.339 11.6112 108.79 11.2489C109.818 10.9902 111.567 10.9902 112.586 11.2593C113.666 11.5387 114.324 11.9113 115.085 12.6669C116.217 13.8158 116.7 15.182 116.7 17.2624C116.7 19.3946 116.217 20.7091 114.962 21.9822C113.923 23.0483 112.997 23.4726 111.3 23.6796C108.327 24.0522 105.703 22.6239 104.778 20.1295C104.027 18.0905 104.263 15.3373 105.333 13.6502ZM113.481 15.3584C113.203 14.6442 112.668 14.0232 112.092 13.7127C111.773 13.5471 111.433 13.4849 110.693 13.4539C109.757 13.4228 109.685 13.4332 109.067 13.7437C107.812 14.3854 107.349 15.3998 107.349 17.4698C107.36 18.981 107.555 19.6227 108.224 20.3989C108.8 21.0614 109.489 21.3305 110.6 21.3408C111.372 21.3408 111.547 21.3098 112.092 21.0407C113.295 20.43 113.727 19.4364 113.717 17.3146C113.717 16.1657 113.676 15.8759 113.481 15.3584ZM119.665 7.26776C120.149 6.3797 121.291 5.57425 122.372 5.33674C122.845 5.2438 124.564 5.27478 124.873 5.3987C125.028 5.45033 125.048 5.63621 125.048 6.67916V7.90799L124.575 7.74277C123.967 7.53624 123.082 7.60852 122.701 7.88734C122.146 8.30039 122.012 8.68246 121.971 10.0042L121.94 11.2124L124.06 11.2434L126.18 11.2744V9.91129V8.54822L127.343 8.1868C127.971 7.9906 128.62 7.7944 128.784 7.76342L129.062 7.69114V9.45693V11.2227H130.503H131.944V12.4102V13.5978H130.493H129.052L129.083 16.9228C129.114 19.8762 129.134 20.2995 129.299 20.5887C129.67 21.2805 130.411 21.4767 131.358 21.1566L131.944 20.9604V22.117V23.2735L131.306 23.4594C130.565 23.6659 129.134 23.6969 128.476 23.5213C127.693 23.3045 127.096 22.8088 126.716 22.0653C126.263 21.1463 126.191 20.4441 126.18 16.7163V13.5978H124.07H121.96V18.5028V23.4077H120.519H119.078V18.5028V13.5978H118.049H117.009L117.04 12.4309L117.071 11.2744L118.08 11.2434L119.078 11.2124V10.1075C119.078 8.85801 119.243 8.05256 119.665 7.26776ZM0.104965 7.55098V14.2529H6.79994H13.4949V7.55098V0.849026H6.79994H0.104965V7.55098ZM14.906 0.921202C14.8648 0.952133 14.8339 3.97317 14.8339 7.62315V14.2529H21.5289H28.2238V7.55098V0.849026H21.601C17.9548 0.849026 14.9369 0.879959 14.906 0.921202ZM58.2736 6.41592C57.7347 6.74611 57.4756 7.20012 57.4756 7.82954C57.4756 8.84074 58.2425 9.4908 59.3513 9.39794C60.2943 9.31539 60.8746 8.71692 60.8746 7.81923C60.8746 7.20012 60.6674 6.83898 60.0974 6.44688C59.6518 6.14765 58.7399 6.12701 58.2736 6.41592ZM36.6698 23.4189V14.9693V6.51966H38.7606H40.8618L42.4377 10.5075C43.3029 12.7126 44.4153 15.5257 44.9097 16.7622L45.8058 19.0292L46.0118 18.5655C46.1148 18.3182 47.2684 15.5051 48.5662 12.3107L50.9249 6.51966H52.9128H54.9007V14.9693V23.4189H53.4587H52.0167V16.9065C52.0167 13.3309 51.9858 10.425 51.9549 10.4662C51.924 10.4972 50.7498 13.4133 49.349 16.9477L46.8049 23.3674L45.7749 23.3983L44.7449 23.4292L42.1287 16.9271C40.6867 13.3618 39.4919 10.4353 39.461 10.4353C39.4301 10.4353 39.4095 13.3515 39.4301 16.9271L39.4507 23.4189H38.0602H36.6698ZM67.2393 11.1863C65.1544 11.66 63.5214 13.1532 62.823 15.2541C62.5046 16.1809 62.4224 18.2096 62.6586 19.2085C63.0284 20.7636 64.1479 22.2671 65.4419 22.9468C67.0441 23.7809 69.4371 23.8633 71.2139 23.163L71.8096 22.9262L71.861 21.608C71.8918 20.8871 71.902 20.3001 71.8918 20.3001C71.8836 20.3001 71.6876 20.404 71.4221 20.5448L71.4219 20.5449L71.2036 20.6606C69.4885 21.6183 67.5679 21.4535 66.4484 20.2692C65.6063 19.3836 65.2776 18.1066 65.4933 16.6031C65.6987 15.1717 66.5203 14.0595 67.7117 13.6167C68.8312 13.1944 70.4231 13.3901 71.4501 14.0904C71.6453 14.2139 71.8301 14.3272 71.861 14.3272C71.8918 14.3272 71.902 13.7093 71.8815 12.9473L71.8507 11.5673L71.1626 11.3408C70.269 11.0421 68.2458 10.9597 67.2393 11.1863ZM77.2104 12.8972C77.7151 11.9191 78.5082 11.3323 79.5176 11.1882C80.012 11.1161 80.8257 11.1882 81.042 11.3117C81.1244 11.3735 81.1656 11.7853 81.1656 12.7839V14.1738L80.8772 14.0193C80.424 13.7826 79.5691 13.6693 79.0438 13.762C78.261 13.9061 77.7357 14.39 77.2825 15.3474L76.9941 15.9651L76.9632 19.692L76.9323 23.4292H75.4903H74.0586L74.0792 17.3756L74.1101 11.3323L75.5315 11.3014L76.9426 11.2705V12.3309L76.9529 13.3913L77.2104 12.8972ZM81.5544 15.5113C82.1207 13.2542 83.7065 11.6877 85.9409 11.1827C86.8985 10.9663 89.1844 11.0384 89.9463 11.3167C90.9348 11.6671 91.4085 11.966 92.0675 12.6153C93.1177 13.6768 93.612 14.8826 93.715 16.748C93.787 17.892 93.6223 18.9948 93.2516 20.0151C92.6132 21.6847 91.1202 22.9833 89.277 23.4471C88.3297 23.6944 86.5278 23.6944 85.6423 23.4677C83.5726 22.9215 82.0281 21.3652 81.5441 19.3143C81.3073 18.3352 81.3176 16.4492 81.5544 15.5113ZM90.5229 15.4289C90.2758 14.6765 89.658 13.9551 88.9681 13.6459C88.237 13.2955 86.919 13.2955 86.188 13.6459C85.2613 14.0788 84.7258 14.8002 84.4375 15.9957C84.0256 17.7478 84.4684 19.7369 85.4363 20.5717C86.0541 21.087 86.6101 21.2622 87.6295 21.2622C88.4224 21.2622 88.6283 21.2313 89.0814 20.9942C89.7404 20.6541 90.1728 20.1698 90.4714 19.4071C90.6774 18.8918 90.7083 18.6238 90.7186 17.418C90.7186 16.3255 90.6774 15.903 90.5229 15.4289ZM95.3677 13.3306C95.7878 12.3811 96.8637 11.5246 98.0728 11.184C98.8208 10.9673 100.942 11.0395 101.782 11.3078L102.397 11.5039L102.428 12.8146L102.458 14.1355L101.967 13.8775C99.8967 12.8249 97.7756 13.2377 97.9703 14.6515C98.0523 15.2707 98.4212 15.5906 99.7738 16.1892C101.618 17.0251 102.274 17.5205 102.786 18.5009C102.971 18.8518 103.001 19.0994 103.001 19.9044C103.001 20.73 102.96 20.9674 102.756 21.4008C102.264 22.4122 101.29 23.1346 99.9684 23.4751C98.7696 23.7847 96.5768 23.6299 95.4394 23.1552L95.0705 23.0004V21.6175V20.2243L95.6648 20.5855C97.2941 21.5866 99.4664 21.6794 100.05 20.7816C100.266 20.4514 100.194 19.6774 99.9275 19.3781C99.825 19.2646 98.995 18.8002 98.083 18.3564C96.2694 17.4792 95.798 17.1077 95.3779 16.2408C95.0295 15.5081 95.0295 14.1046 95.3677 13.3306ZM57.6817 23.4292V17.351V11.2626L59.1031 11.2935L60.5141 11.3244L60.545 17.3716L60.5656 23.4292H59.1236H57.6817ZM14.8854 29.0485L14.8545 22.3672L14.8339 15.6962H21.5289H28.2238V22.3981V29.1001L21.5598 29.0795L14.8854 29.0485Z" fill="#737A7D"/>
</svg>
