<svg width="80" height="42" viewBox="0 0 80 42" fill="none" xmlns="http://www.w3.org/2000/svg">
<path fill-rule="evenodd" clip-rule="evenodd" d="M64.5249 0.990271H64.6468C64.7285 0.990271 64.7858 0.976706 64.8193 0.949577C64.8527 0.922708 64.8693 0.887753 64.8693 0.844972C64.8693 0.802191 64.8532 0.767497 64.8218 0.740368C64.7894 0.713499 64.7354 0.700195 64.6585 0.700195H64.5249V0.990271ZM64.2453 0.499512H64.7492C64.8915 0.499512 64.9948 0.529204 65.0591 0.587548C65.1229 0.647193 65.1553 0.725853 65.1553 0.824568C65.1553 0.902185 65.1303 0.969124 65.0816 1.02564C65.0331 1.08216 64.9563 1.12332 64.8517 1.14858C64.8951 1.16551 64.926 1.18348 64.9469 1.20198C64.9754 1.22828 65.0058 1.26761 65.0367 1.31918C65.0387 1.32257 65.1 1.43379 65.2196 1.65179H64.8872C64.779 1.43274 64.7068 1.30199 64.6698 1.25902C64.6331 1.21682 64.5961 1.19546 64.5594 1.19546C64.5509 1.19546 64.54 1.19651 64.5249 1.19911V1.65179H64.2453V0.499512ZM65.5727 1.07593C65.5727 0.835785 65.4895 0.631062 65.3242 0.461763C65.1581 0.292202 64.9578 0.207031 64.7231 0.207031C64.4889 0.207031 64.2887 0.292202 64.1228 0.461763C63.9568 0.631062 63.8741 0.835785 63.8741 1.07593C63.8741 1.31503 63.9568 1.52028 64.1228 1.68958C64.2887 1.85888 64.4889 1.94431 64.7231 1.94431C64.9578 1.94431 65.1581 1.85888 65.3242 1.68958C65.4895 1.52028 65.5727 1.31503 65.5727 1.07593ZM65.7776 1.07597C65.7776 1.26819 65.7309 1.44764 65.6365 1.61408C65.5423 1.78051 65.4138 1.91153 65.2515 2.0079C65.0885 2.10349 64.9127 2.15141 64.7237 2.15141C64.5364 2.15141 64.3609 2.10349 64.1981 2.0079C64.0351 1.91153 63.9065 1.78051 63.8124 1.61408C63.7177 1.44764 63.6703 1.26819 63.6703 1.07597C63.6703 0.883746 63.7177 0.704548 63.8124 0.537592C63.9065 0.371158 64.0351 0.239885 64.1981 0.143514C64.3609 0.0476644 64.5364 0 64.7237 0C64.9127 0 65.0885 0.0476644 65.2515 0.143514C65.4138 0.239885 65.5423 0.371158 65.6365 0.537592C65.7309 0.704548 65.7776 0.883746 65.7776 1.07597ZM13.7683 26.7369H13.8902C13.9722 26.7369 14.0295 26.7235 14.0627 26.6962C14.0959 26.6693 14.113 26.6343 14.113 26.5916C14.113 26.5485 14.0969 26.5141 14.065 26.4875C14.0325 26.4601 13.9786 26.4468 13.9017 26.4468H13.7683V26.7369ZM13.4893 26.2466H13.9926C14.1352 26.2466 14.2386 26.2758 14.3026 26.3341C14.3664 26.3937 14.3985 26.4721 14.3985 26.5711C14.3985 26.6485 14.3743 26.7157 14.3253 26.7722C14.2763 26.8287 14.1998 26.8693 14.0947 26.8946C14.138 26.9121 14.1702 26.9298 14.1908 26.9488C14.2189 26.9751 14.249 27.0142 14.2804 27.0655C14.2824 27.0694 14.3432 27.1801 14.4631 27.3983H14.1309C14.0227 27.1798 13.9503 27.0483 13.9135 27.0061C13.8768 26.9634 13.8398 26.9415 13.8028 26.9415C13.7949 26.9415 13.7829 26.9425 13.7684 26.9462V27.3983H13.4893V26.2466ZM14.8167 26.8227C14.8167 26.5826 14.7333 26.3781 14.5672 26.2086C14.4016 26.0382 14.2016 25.9541 13.9669 25.9541C13.7327 25.9541 13.5327 26.0382 13.3663 26.2086C13.2005 26.3781 13.1176 26.5826 13.1176 26.8227C13.1176 27.0618 13.2005 27.2668 13.3663 27.4369C13.5327 27.6059 13.7327 27.6911 13.9669 27.6911C14.2016 27.6911 14.4016 27.6059 14.5672 27.4369C14.7333 27.2668 14.8167 27.0618 14.8167 26.8227ZM15.0215 26.8225C15.0215 27.0148 14.9743 27.194 14.8802 27.3609C14.786 27.5271 14.6575 27.6586 14.4944 27.7545C14.3317 27.8501 14.1556 27.898 13.9674 27.898C13.7799 27.898 13.6046 27.8501 13.4416 27.7545C13.2785 27.6586 13.15 27.5271 13.0558 27.3609C12.9617 27.194 12.9145 27.0148 12.9145 26.8225C12.9145 26.6301 12.9617 26.4506 13.0558 26.2844C13.15 26.1175 13.2785 25.9862 13.4416 25.8906C13.6046 25.7945 13.7799 25.7466 13.9674 25.7466C14.1556 25.7466 14.3317 25.7945 14.4944 25.8906C14.6575 25.9862 14.786 26.1175 14.8802 26.2844C14.9743 26.4506 15.0215 26.6301 15.0215 26.8225ZM11.3197 21.7996H16.2435L19.7887 12.2982L19.3945 21.7996H24.6137L32.5906 0.00732422H27.7163L24.0721 9.63424L24.6632 0.00732422H19.3945L11.3197 21.7996ZM33.3786 0.00732422L25.4508 21.7996H30.3748L38.3519 0.00732422H33.3786ZM45.0476 20.2912L52.1876 0.584961L44.6047 8.82935L45.0476 20.2912ZM10.5932 14.4856C10.5932 14.4856 8.5619 18.4068 8.5619 21.8001C8.5619 21.8001 8.37745 29.7929 16.4652 29.7929H17.5727C17.5727 29.7929 19.1976 30.3206 47.1893 21.8001H40.0998L39.7301 12.8264L36.4067 21.8001H31.3106L39.3612 0.0078125H44.236L42.0201 6.26644L47.2635 0.0078125H62.6266L61.2966 3.62744H56.0527L54.4283 8.22693H59.3024L57.7517 12.2987H52.9509L51.0306 17.6525H56.792L56.3486 19.2359C56.3486 19.2359 77.25 13.7315 79.4657 13.1283C79.4657 13.1283 19.8958 41.9494 10.1464 41.9494C10.1464 41.9494 0.733299 42.0083 0.733299 34.166C0.733299 34.166 -0.337948 26.852 10.5932 14.4856Z" fill="#737A7D"/>
</svg>
