<svg width="101" height="33" viewBox="0 0 101 33" fill="none" xmlns="http://www.w3.org/2000/svg">
<path fill-rule="evenodd" clip-rule="evenodd" d="M4.70792 27.5254C10.7759 33.5943 20.6185 33.595 26.6868 27.5254L26.6868 27.5252C32.7567 21.4546 32.7567 11.6129 26.6857 5.54509C20.6185 -0.524701 10.7773 -0.524701 4.70792 5.54452C-1.36325 11.613 -1.36325 21.4548 4.70792 27.5254ZM24.3462 4.99538C21.9361 3.18401 18.9421 2.1123 15.6972 2.1123C7.73179 2.1123 1.27496 8.57079 1.27496 16.5351C1.27496 19.741 2.32085 22.7022 4.08976 25.0964C13.7899 22.2719 21.449 14.663 24.3462 4.99538ZM27.7962 8.69189C28.0873 9.63502 28.247 10.6361 28.247 11.6739C28.247 15.0225 26.6006 17.967 24.0965 19.812C21.3966 21.8005 17.9307 22.5577 13.5978 23.5042L13.5977 23.5043C10.9428 24.0842 7.96236 24.7353 4.63312 25.7844C7.2778 28.9454 11.2521 30.9575 15.6967 30.9575C23.6624 30.9575 30.1194 24.5004 30.1194 16.535C30.1194 13.6435 29.2636 10.9515 27.7962 8.69189ZM67.2937 14.8335L67.2943 14.8607L67.2943 14.8612C67.3137 15.1431 67.3245 15.2995 67.0329 15.488C67.0266 15.4933 66.2071 16.0726 64.1414 16.4707C63.6165 16.5438 63.1018 16.5816 62.5783 16.5816C61.7288 16.5816 61.0011 16.4856 60.2993 16.3927L60.2372 16.3848C59.8798 16.3396 59.5389 16.2964 59.1996 16.2697C59.0453 16.2559 58.887 16.2496 58.732 16.2496C57.4805 16.2496 56.6359 16.6427 56.5423 16.6894L56.5034 16.7081L56.5165 16.7515C57.0453 18.4099 58.8666 19.6183 60.6712 19.6183C60.8563 19.6183 61.0467 19.6056 61.2431 19.5816C62.2332 19.4516 63.2025 18.9839 63.9683 18.0938C64.0552 17.9882 64.1442 17.9401 64.2382 17.9401C64.3148 17.9401 64.3989 17.9673 64.5162 18.0277C64.5365 18.0379 64.5635 18.0511 64.5958 18.067L64.6804 18.1085C64.7091 18.1226 64.7399 18.1379 64.7726 18.1542C65.1597 18.3386 65.8711 18.6837 66.0704 18.8271C66.1601 18.8921 66.2099 18.973 66.2208 19.0581C66.2332 19.1538 66.2 19.2609 66.1332 19.3446C64.9453 20.8144 63.3597 21.5703 61.555 21.7995C61.2544 21.8356 60.957 21.8554 60.6712 21.8554C57.2851 21.8554 54.5027 19.4862 54.0559 16.0281C53.5646 12.2083 56.0877 8.84125 59.8026 8.36332C60.0972 8.32305 60.3961 8.30469 60.685 8.30469C63.5819 8.30469 66.0492 10.1811 66.9709 13.0885C67.0931 13.4725 67.1814 13.8706 67.2337 14.275C67.2605 14.4979 67.2849 14.7053 67.2937 14.8335ZM63.5759 14.2907C64.1544 14.2183 64.6204 14.1247 64.9612 14.0142L65.0107 14.0024L64.9969 13.9526C64.4466 12.0296 62.5946 10.582 60.685 10.582C60.4925 10.582 60.3 10.5944 60.1131 10.6163C58.0863 10.8855 56.4113 12.5873 56.2187 14.5806L56.2103 14.6615C56.2103 14.6615 56.9941 14.3492 57.9881 14.226C58.3222 14.1832 58.6705 14.1606 59.0506 14.1606C59.5826 14.1606 60.1371 14.2023 60.7232 14.2465L60.7451 14.2473C61.3777 14.2968 62.0312 14.3448 62.6341 14.3448C62.9934 14.3448 63.3 14.3268 63.5759 14.2907ZM99.3399 8.75293C99.5115 8.75293 99.6539 8.89246 99.6539 9.06589V21.222C99.6539 21.3937 99.5115 21.5357 99.3399 21.5357H97.6302C97.46 21.5357 97.319 21.3937 97.319 21.222V9.06589C97.319 8.89246 97.46 8.75293 97.6302 8.75293H99.3399ZM98.4864 4.41699C97.6366 4.41699 96.9432 5.11074 96.9432 5.96203C96.9432 6.81119 97.6366 7.50353 98.4864 7.50353C99.3384 7.50353 100.03 6.81119 100.03 5.96203C100.03 5.11074 99.3384 4.41699 98.4864 4.41699ZM75.779 21.8596C75.887 21.8642 75.999 21.8684 76.1078 21.8684C77.8644 21.8684 79.4967 21.1902 80.7097 19.968C81.9397 18.7222 82.6151 17.0136 82.6151 15.1546C82.6151 11.3139 79.6581 8.30469 75.8825 8.30469C72.8101 8.30469 70.2163 10.328 69.4233 13.3375C69.2883 13.8487 69.1488 15.1517 69.1488 16.4513V25.9892C69.1488 26.163 69.2883 26.3046 69.4621 26.3046H71.158C71.3332 26.3046 71.4752 26.1612 71.4752 25.9867L71.4738 19.9783L71.5628 20.0648C72.3957 20.8741 73.9404 21.7734 75.779 21.8596ZM75.8549 10.6133C78.2777 10.6133 80.1764 12.6073 80.1764 15.1544C80.1764 17.7168 78.3749 19.6472 75.9853 19.6472C74.7786 19.6472 73.6603 19.2145 72.8419 18.4306C71.9976 17.6246 71.5345 16.4865 71.5345 15.2307C71.5345 12.6846 73.4724 10.6133 75.8549 10.6133ZM45.6384 21.8684C45.5314 21.8684 45.4201 21.8642 45.312 21.8596C43.4678 21.7734 41.9231 20.8741 41.0898 20.0648L41.004 19.9783L41.0068 25.9867C41.0068 26.1612 40.8648 26.3046 40.6903 26.3046H38.9895C38.82 26.3046 38.679 26.163 38.679 25.9892V16.4513C38.679 15.1517 38.8164 13.8487 38.9538 13.3375C39.7451 10.328 42.3413 8.30469 45.4127 8.30469C49.1891 8.30469 52.1484 11.3139 52.1484 15.1546C52.1484 17.0136 51.4709 18.7222 50.2406 19.968C49.0298 21.1902 47.3968 21.8684 45.6384 21.8684ZM49.7073 15.1544C49.7073 12.6073 47.808 10.6133 45.3873 10.6133C43.0029 10.6133 41.0634 12.6846 41.0634 15.2307C41.0634 16.4865 41.5286 17.6246 42.3742 18.4306C43.1919 19.2145 44.3053 19.6472 45.5148 19.6472C47.9065 19.6472 49.7073 17.7168 49.7073 15.1544ZM89.432 21.8532C87.3381 21.8532 85.7252 21.0814 84.2487 19.7303C84.1858 19.6724 84.1163 19.5738 84.1134 19.4686C84.1124 19.4022 84.1385 19.3389 84.1943 19.2792C84.294 19.1746 85.0791 18.5492 85.4145 18.282C85.4879 18.2235 85.5397 18.1822 85.5582 18.1673C85.6479 18.0973 85.7309 18.0609 85.8093 18.0609C85.9199 18.0609 86.0026 18.1361 86.0717 18.1989L86.0742 18.2012L86.0887 18.2153C87.0753 19.1107 88.2529 19.6328 89.5899 19.6328C91.2279 19.6328 92.2247 18.7911 92.2448 17.9783C92.2667 17.1443 91.6362 16.5488 90.5147 16.3428L88.8082 16.0157C86.0834 15.4806 84.58 14.1818 84.58 12.3531C84.58 10.0454 86.6242 8.30469 89.3321 8.30469H89.3458C91.2388 8.30963 92.5814 8.76247 93.9763 9.86915C94.0329 9.91577 94.1427 10.0369 94.1508 10.1849C94.1558 10.2803 94.1173 10.3714 94.035 10.4548C93.686 10.8038 93.1575 11.2496 92.8686 11.4626C92.7623 11.5385 92.6634 11.5742 92.5602 11.5742C92.4207 11.5742 92.3063 11.5007 92.2247 11.4364C91.1816 10.6219 90.3663 10.4573 89.3886 10.4573C88.2247 10.4573 86.9855 11.0592 86.9855 12.1757C86.9855 13.1899 88.3419 13.6417 88.758 13.7561C89.3428 13.9176 89.9855 14.0414 90.606 14.1609L90.6337 14.1662C90.7957 14.1984 90.9552 14.2291 91.1115 14.2591C91.2122 14.2785 91.3116 14.2976 91.4094 14.3167C92.1876 14.4799 94.7277 15.2157 94.7277 17.908C94.7277 19.8543 93.1127 21.8299 89.4984 21.8532H89.432Z" fill="#737A7D"/>
</svg>
