<svg width="104" height="35" viewBox="0 0 104 35" fill="none" xmlns="http://www.w3.org/2000/svg">
<path fill-rule="evenodd" clip-rule="evenodd" d="M103.249 8.41542C101.823 0.367527 77.6966 -2.13119 49.3644 2.8318C36.9993 4.99851 25.8773 8.22798 17.3861 11.8488C17.4169 11.8484 17.4871 11.8446 17.5602 11.8406C17.645 11.836 17.7337 11.8312 17.7698 11.8312C19.3409 11.8277 21.1528 12.3339 21.1528 13.9662V15.227H18.5789V14.3818C18.5789 13.9803 18.2023 13.6572 17.738 13.6572C17.3313 13.6572 16.983 13.8624 16.9051 14.1344C16.867 14.2965 16.8554 14.624 16.9051 14.7825C17.0167 15.3213 17.419 15.6593 18.9174 16.2616C19.9761 16.6861 21.1477 17.3798 21.2548 18.6802C21.3079 19.0693 21.3177 19.3564 21.3177 19.7552C21.3177 20.0448 21.2973 20.3882 21.2671 20.5995C21.0846 21.5081 20.1286 22.6544 17.7583 22.6544C15.6238 22.6544 14.1529 21.8145 14.1529 20.5053V19.0693H16.8944V19.8504C16.8944 20.5265 17.1328 20.7766 17.7158 20.7766C18.213 20.7766 18.617 20.3619 18.617 19.8504C18.617 19.7631 18.6063 19.6786 18.5832 19.5994C18.4928 19.2596 18.4158 19.0113 16.9192 18.3087C15.3898 17.5911 14.8573 16.8834 14.6889 16.5567C14.5242 16.2486 14.4099 15.575 14.4099 14.7923C14.4099 14.3635 14.4461 13.9567 14.5037 13.6345C14.5347 13.4584 14.6101 13.2093 14.6632 13.0649C5.34788 17.4344 -0.0863802 22.2443 0.649951 26.3893C2.07651 34.4382 26.2043 36.9368 54.5355 31.9735C67.2348 29.7479 78.6234 26.4014 87.1961 22.6613L87.2006 22.6252C87.0048 22.6498 86.8018 22.6622 86.5963 22.6622C84.7168 22.6622 83.1831 21.5908 83.1831 20.2569V14.4258C83.1831 13.0921 84.0665 11.8295 86.5963 11.8295C89.1694 11.8295 90.1769 12.7636 90.1769 14.5421V15.2306H87.3574V14.2745C87.3574 13.9119 87.0127 13.6178 86.5963 13.6178C86.1816 13.6178 85.8378 13.9118 85.8378 14.2745V20.0888C85.8378 20.4524 86.1816 20.7465 86.5963 20.7465C87.0127 20.7465 87.3574 20.4525 87.3574 20.0888V18.0955H86.6734V16.7115H90.1769V20.257C90.1769 20.7044 90.0147 21.1543 89.7152 21.5117C98.7373 17.2055 103.973 12.4891 103.249 8.41542ZM52.3115 19.8503C52.3115 20.5264 52.5561 20.7765 53.1533 20.7765C53.6645 20.7765 54.0775 20.3618 54.0775 19.85C54.0775 19.7627 54.0659 19.6783 54.0428 19.599C53.9498 19.2592 53.8701 19.0109 52.3381 18.3084C50.7689 17.5908 50.1495 16.9578 49.9741 16.6302C49.8056 16.3221 49.6886 15.6486 49.6886 14.8676C49.6886 14.4371 49.7259 14.0294 49.7853 13.709C50.0821 12.3611 51.4848 11.8355 53.209 11.8311C54.8182 11.8276 56.6762 12.3338 56.6762 13.9661V15.2269H54.0384V14.3817C54.0384 13.9802 53.6529 13.6571 53.1763 13.6571C52.7598 13.6571 52.4037 13.8623 52.3222 14.1343C52.2822 14.2964 52.2725 14.6239 52.3222 14.7824C52.4363 15.3212 52.8493 15.6592 54.3849 16.2615C55.4694 16.686 56.6717 17.3797 56.7798 18.6801C56.8348 19.0692 56.8455 19.3563 56.8455 19.7551C56.8455 20.0447 56.8241 20.3881 56.7941 20.5994C56.6062 21.508 55.6263 22.6543 53.1985 22.6543C51.0098 22.6543 49.5018 21.8143 49.5018 20.5052V19.0692H52.3115V19.8503ZM70.8951 12.166H74.1726L76.9097 18.4153H77.1046L76.954 12.166H79.5723V22.3208H76.456L73.5578 16.0707H73.3619L73.5135 22.3208H70.8951V12.166ZM67.4093 20.0089V12.166H64.4303V20.0827C64.4303 20.4455 64.0883 20.7404 63.6754 20.7404C63.2625 20.7404 62.9195 20.4454 62.9195 20.0827V12.166H59.9396V20.0089C59.9396 21.4765 61.6179 22.6555 63.6754 22.6555C65.731 22.6555 67.4093 21.4766 67.4093 20.0089ZM40.6313 17.7593H40.8511L41.6663 12.166H46.2552L46.4679 22.3208H43.854V14.5088H43.5997L42.0695 22.3208H39.413L37.8836 14.5088H37.6284V22.3208H35.0145L35.2263 12.166H39.6886L40.6313 17.7593ZM28.3849 14.4391L29.4872 22.3208H32.3792L30.5087 12.166H26.0687L24.1991 22.3208H27.0894L28.1926 14.4391H28.3849Z" fill="#737A7D"/>
</svg>
