<svg width="102" height="22" viewBox="0 0 102 22" fill="none" xmlns="http://www.w3.org/2000/svg">
<path fill-rule="evenodd" clip-rule="evenodd" d="M16.8164 12.5895V0.790283C16.8164 0.445953 16.9861 0.273438 17.3253 0.273438H21.2079V12.7831C21.2079 19.3721 17.0709 21.6759 11.0672 21.6759C5.06307 21.6759 0.926025 19.3721 0.926025 12.7831V0.790283C0.926025 0.445953 1.09601 0.273438 1.43528 0.273438H5.31752V12.5895C5.31752 16.5296 7.03604 18.1659 11.0672 18.1659C15.0979 18.1659 16.8164 16.5296 16.8164 12.5895ZM73.6698 3.35237C73.5638 3.58953 73.4153 3.69705 73.0971 3.69705H61.2804V8.97231H71.1453C71.3153 8.97231 71.3786 9.05804 71.3153 9.23056L70.2331 11.9437C70.1268 12.1805 69.9786 12.2877 69.6605 12.2877H63.8683C61.9804 12.2877 61.2804 12.8692 61.2804 14.1611V17.8862H74.6246C74.7945 17.8862 74.8582 17.9723 74.7945 18.1445L73.6698 20.9655C73.5638 21.202 73.4153 21.3098 73.0971 21.3098H58.5223C57.3975 21.3098 56.9738 20.9223 56.9738 20.0608V1.73754C56.9738 0.725632 57.5249 0.273438 58.989 0.273438H74.6246C74.7945 0.273438 74.8582 0.359871 74.7945 0.531685L73.6698 3.35237ZM47.9692 5.61335C47.9692 7.61573 47.2692 9.31664 45.5721 10.221C47.9055 10.8454 48.9663 12.9771 48.9663 15.4963C48.9663 19.695 46.0388 21.3098 41.9444 21.3098H31.0821C29.9577 21.3098 29.5336 20.9223 29.5336 20.0608V1.73754C29.5336 0.725632 30.0847 0.273438 31.5488 0.273438H40.3744C44.2355 0.273438 47.9692 0.962448 47.9692 5.61335ZM33.8378 3.65332H40.6925C42.9836 3.65332 43.6202 4.52925 43.6202 6.34471C43.6202 8.16051 42.9836 9.03645 40.6925 9.03645H33.8378V3.65332ZM41.4987 17.9291H33.8378V14.0747C33.8378 12.7828 34.5378 12.2017 36.4263 12.2017H41.4987C43.9384 12.2017 44.6173 13.1489 44.6173 15.087C44.6173 17.0247 43.9384 17.9291 41.4987 17.9291ZM101.896 20.9437L97.2499 12.8478C99.5621 12.2452 101.429 10.695 101.429 6.75455C101.429 1.65181 98.3103 0.273438 93.1551 0.273438H84.2873C82.8236 0.273438 82.2717 0.725632 82.2717 1.73754V20.793C82.2717 21.1373 82.4417 21.3098 82.781 21.3098H86.5784V15.1734C86.5784 13.8815 87.2784 13.3 89.1669 13.3H92.9855L97.1859 20.9655C97.3133 21.1805 97.4407 21.3098 97.7588 21.3098H101.705C101.981 21.3098 101.981 21.0727 101.896 20.9437ZM93.7917 10.0272H86.5784V3.6543H93.7917C96.4858 3.6543 97.0799 4.70907 97.0799 6.84074C97.0799 8.99385 96.4858 10.0272 93.7917 10.0272Z" fill="#737A7D"/>
</svg>
