<svg width="26" height="26" viewBox="0 0 26 26" fill="none" xmlns="http://www.w3.org/2000/svg">
<g clip-path="url(#clip0_1_191)">
<path d="M25.9745 7.64407C25.9136 6.26259 25.6902 5.31284 25.3702 4.48986C25.0401 3.61629 24.5322 2.83419 23.8667 2.18402C23.2165 1.52374 22.4293 1.01067 21.5658 0.685681C20.7381 0.365657 19.7933 0.142255 18.4118 0.0813452C17.02 0.015277 16.5782 0 13.0482 0C9.51821 0 9.07636 0.015277 7.68972 0.0761868C6.30824 0.137097 5.35849 0.360697 4.53571 0.680523C3.66195 1.01067 2.87984 1.51858 2.22967 2.18402C1.56939 2.83419 1.05652 3.62145 0.731335 4.4849C0.411311 5.31284 0.187909 6.25743 0.126999 7.63892C0.0609313 9.03071 0.0456543 9.47256 0.0456543 13.0025C0.0456543 16.5325 0.0609313 16.9744 0.121841 18.361C0.182751 19.7425 0.406351 20.6923 0.726375 21.5152C1.05652 22.3888 1.56939 23.1709 2.22967 23.8211C2.87984 24.4814 3.6671 24.9944 4.53055 25.3194C5.35849 25.6394 6.30309 25.8628 7.68476 25.9237C9.0712 25.9849 9.51325 25.9999 13.0432 25.9999C16.5732 25.9999 17.0151 25.9849 18.4017 25.9237C19.7832 25.8628 20.7329 25.6394 21.5557 25.3194C23.303 24.6438 24.6845 23.2624 25.3601 21.5152C25.6799 20.6873 25.9035 19.7425 25.9644 18.361C26.0253 16.9744 26.0406 16.5325 26.0406 13.0025C26.0406 9.47256 26.0355 9.03071 25.9745 7.64407ZM23.6332 18.2594C23.5772 19.5292 23.364 20.2149 23.1862 20.672C22.7493 21.8047 21.8503 22.7037 20.7177 23.1405C20.2605 23.3183 19.5699 23.5316 18.3051 23.5873C16.9337 23.6485 16.5224 23.6635 13.0534 23.6635C9.58427 23.6635 9.16783 23.6485 7.80142 23.5873C6.53165 23.5316 5.84597 23.3183 5.38884 23.1405C4.82518 22.9322 4.31211 22.6021 3.89566 22.1704C3.46394 21.7487 3.1338 21.2408 2.92547 20.6772C2.7477 20.2201 2.53442 19.5292 2.47867 18.2646C2.41756 16.8932 2.40248 16.4817 2.40248 13.0127C2.40248 9.54358 2.41756 9.12714 2.47867 7.76093C2.53442 6.49115 2.7477 5.80547 2.92547 5.34835C3.1338 4.78449 3.46394 4.27162 3.90082 3.85497C4.32223 3.42325 4.83014 3.0931 5.394 2.88498C5.85112 2.70721 6.54196 2.49393 7.80658 2.43798C9.17795 2.37707 9.58943 2.36179 13.0583 2.36179C16.5325 2.36179 16.9438 2.37707 18.3102 2.43798C19.58 2.49393 20.2657 2.70721 20.7228 2.88498C21.2865 3.0931 21.7995 3.42325 22.216 3.85497C22.6477 4.27658 22.9779 4.78449 23.1862 5.34835C23.364 5.80547 23.5772 6.49611 23.6332 7.76093C23.6941 9.1323 23.7094 9.54358 23.7094 13.0127C23.7094 16.4817 23.6941 16.8881 23.6332 18.2594Z" fill="black"/>
<path d="M13.0482 6.32349C9.36086 6.32349 6.36914 9.31501 6.36914 13.0025C6.36914 16.69 9.36086 19.6816 13.0482 19.6816C16.7357 19.6816 19.7272 16.69 19.7272 13.0025C19.7272 9.31501 16.7357 6.32349 13.0482 6.32349ZM13.0482 17.335C10.656 17.335 8.71565 15.3949 8.71565 13.0025C8.71565 10.6102 10.656 8.67 13.0482 8.67C15.4405 8.67 17.3807 10.6102 17.3807 13.0025C17.3807 15.3949 15.4405 17.335 13.0482 17.335Z" fill="black"/>
<path d="M21.5508 6.05937C21.5508 6.92044 20.8526 7.61862 19.9913 7.61862C19.1302 7.61862 18.4321 6.92044 18.4321 6.05937C18.4321 5.1981 19.1302 4.50012 19.9913 4.50012C20.8526 4.50012 21.5508 5.1981 21.5508 6.05937Z" fill="black"/>
</g>
<defs>
<clipPath id="clip0_1_191">
<rect width="26" height="26" fill="white"/>
</clipPath>
</defs>
</svg>
