<svg width="26" height="26" viewBox="0 0 26 26" fill="none" xmlns="http://www.w3.org/2000/svg">
<g clip-path="url(#clip0_1_170)">
<path d="M22.2409 10.9105C22.2722 7.24484 19.1501 3.88438 15.2813 3.41969C15.2044 3.41056 15.1205 3.39668 15.0318 3.38198C14.8403 3.35025 14.6422 3.31763 14.4424 3.31763C13.6494 3.31763 13.4375 3.87461 13.3817 4.20679C13.3274 4.52978 13.3792 4.801 13.5353 5.01328C13.7979 5.37033 14.2599 5.43372 14.631 5.48451C14.7398 5.49953 14.8424 5.5135 14.9283 5.53279C18.4042 6.30948 19.5746 7.53059 20.1466 10.977C20.1606 11.0612 20.1669 11.1649 20.1736 11.275C20.1985 11.687 20.2505 12.5441 21.172 12.5441H21.1721C21.2488 12.5441 21.3312 12.5375 21.4171 12.5244C22.2751 12.394 22.2483 11.6105 22.2353 11.2341C22.2317 11.128 22.2282 11.0278 22.2372 10.9611C22.2396 10.9443 22.2408 10.9274 22.2409 10.9105Z" fill="black"/>
<path d="M14.2174 2.07419C14.3204 2.08161 14.4178 2.08872 14.499 2.10116C20.2068 2.97894 22.8317 5.68326 23.5592 11.4357C23.5715 11.5335 23.5734 11.6528 23.5755 11.779C23.5827 12.2285 23.5977 13.1634 24.6017 13.1828L24.6329 13.1831C24.9478 13.1831 25.1983 13.0882 25.3775 12.9007C25.69 12.5737 25.6682 12.0881 25.6506 11.6977C25.6463 11.602 25.6422 11.5118 25.6433 11.4328C25.7159 5.54955 20.6233 0.214621 14.7452 0.0162298C14.7209 0.0154224 14.6976 0.0167143 14.6741 0.0200248C14.6626 0.0217205 14.6412 0.0238199 14.6045 0.0238199C14.5459 0.0238199 14.4738 0.0187329 14.3973 0.0135652C14.3049 0.00726708 14.2 0 14.0938 0C13.1577 0 12.9797 0.665342 12.957 1.06196C12.9045 1.97858 13.7912 2.0431 14.2174 2.07419Z" fill="black"/>
<path d="M23.2837 18.8704C23.1624 18.7777 23.0369 18.6818 22.9194 18.5871C22.2962 18.0856 21.6332 17.6234 20.992 17.1763C20.859 17.0836 20.7259 16.9908 20.5933 16.8978C19.772 16.3209 19.0336 16.0405 18.3359 16.0405C17.3963 16.0405 16.577 16.5597 15.9009 17.5835C15.6013 18.0373 15.2379 18.258 14.79 18.258C14.5251 18.258 14.2242 18.1824 13.8956 18.0333C11.2445 16.8311 9.35146 14.9878 8.2689 12.5547C7.74559 11.3788 7.91524 10.6101 8.83622 9.98446C9.35921 9.6295 10.3327 8.96868 10.2637 7.70324C10.1856 6.26621 7.01493 1.94238 5.679 1.45129C5.11338 1.24329 4.51909 1.24135 3.90946 1.44644C2.37369 1.96273 1.27159 2.86942 0.722039 4.06833C0.190977 5.22678 0.214958 6.58701 0.791399 8.002C2.45782 12.093 4.80073 15.6599 7.75528 18.6033C10.6473 21.4846 14.2017 23.8448 18.3199 25.618C18.6911 25.7778 19.0805 25.8649 19.3648 25.9284C19.4617 25.9502 19.5453 25.9688 19.6063 25.9855C19.6398 25.9946 19.6743 25.9996 19.709 25.9999L19.7415 26.0001C19.7416 26.0001 19.7415 26.0001 19.7417 26.0001C21.6786 26.0001 24.0043 24.2301 24.7186 22.2123C25.3444 20.4454 24.2018 19.5721 23.2837 18.8704Z" fill="black"/>
<path d="M15.0741 6.74741C14.7425 6.75581 14.0524 6.77293 13.8102 7.47581C13.6969 7.80429 13.7105 8.08948 13.8506 8.32348C14.0562 8.66681 14.45 8.77202 14.8083 8.82975C16.1076 9.03824 16.7749 9.75671 16.9083 11.0906C16.9704 11.7126 17.3892 12.1469 17.9269 12.1469H17.927C17.9668 12.1469 18.0074 12.1446 18.0478 12.1397C18.6946 12.0627 19.0081 11.5875 18.9798 10.7274C18.9901 9.82978 18.5203 8.8107 17.7214 7.99896C16.9196 7.18473 15.9532 6.72617 15.0741 6.74741Z" fill="black"/>
</g>
<defs>
<clipPath id="clip0_1_170">
<rect width="26" height="26" fill="white"/>
</clipPath>
</defs>
</svg>
