<svg width="41" height="49" viewBox="0 0 41 49" fill="none" xmlns="http://www.w3.org/2000/svg">
<path d="M1 14L6.08619 2.55608C6.43811 1.76426 7.56189 1.76426 7.91381 2.55608L13 14M1 14H13M1 14V40M13 14V40M1 40V42.5C1 45.8137 3.68629 48.5 7 48.5V48.5C10.3137 48.5 13 45.8137 13 42.5V40M1 40H13" stroke="#00C07F"/>
<path d="M21 12V5C21 3.34315 22.3431 2 24 2H37C38.6569 2 40 3.34315 40 5V45C40 46.6569 38.6569 48 37 48H24C22.3431 48 21 46.6569 21 45V39M21 12H27.5M21 12V21M21 21H27.5M21 21V30M21 30H27.5M21 30V39M21 39H27.5" stroke="#00C07F"/>
</svg>
