<svg width="48" height="48" viewBox="0 0 48 48" fill="none" xmlns="http://www.w3.org/2000/svg">
<path d="M23 47.5H7C3.68629 47.5 1 44.8137 1 41.5V38M29 12V7C29 3.68629 26.3137 1 23 1H7C3.68629 1 1 3.68629 1 7V38M1 38H13.5" stroke="#00C07F"/>
<path d="M36.5 43.5C32.8333 44.5 25.4 45.6 25 42C24.6 38.4 27.8333 37.1667 29.5 37C29.5 37 24.4999 30.5 22.4999 30C20.5 29.5 17.5999 28.7 17.9999 25.5C18.4999 21.5 24.4999 23 26.4999 25C28.0999 26.6 30.1666 28.6667 30.9999 29.5C32.3333 28.1667 35.5999 25.5 37.9999 25.5C40.3999 25.5 44.9999 30.1667 46.9999 32.5" stroke="#00C07F" stroke-linejoin="round"/>
<path d="M31 21.0001C29 17.6668 21.3502 13.5 15.5 20.0001C11 25 13.6667 32 17.5 33.5" stroke="#00C07F" stroke-linejoin="round"/>
</svg>
