<svg width="40" height="39" viewBox="0 0 40 39" fill="none" xmlns="http://www.w3.org/2000/svg">
<path d="M20.2216 38.9737C31.0906 38.9737 39.9016 30.2773 39.9016 19.5496C39.9016 8.82196 31.0906 0.125488 20.2216 0.125488C9.35266 0.125488 0.541626 8.82196 0.541626 19.5496C0.541626 30.2773 9.35266 38.9737 20.2216 38.9737Z" fill="#1A171B"/>
<path fill-rule="evenodd" clip-rule="evenodd" d="M28.7864 7.30284C26.7898 7.37158 25.0472 8.45767 23.75 9.96C22.3137 11.6073 21.3581 13.5611 20.6696 15.5554C19.4381 14.5591 18.4879 13.2694 16.5121 12.707C14.9849 12.2742 13.3808 12.453 11.9057 13.5377C11.2069 14.0529 10.7256 14.8317 10.4966 15.5637C9.90391 17.4662 11.1198 19.1593 11.672 19.7672L12.8794 21.0443C13.1284 21.2947 13.7278 21.948 13.4348 22.8846C13.1181 23.9029 11.8742 24.5622 10.5984 24.1738C10.0286 24.0023 9.21004 23.5833 9.39331 22.9933C9.46911 22.752 9.64408 22.5714 9.73786 22.3628C9.82396 22.1835 9.86502 22.0491 9.89115 21.9702C10.1242 21.219 9.80582 20.2417 8.99064 19.9936C8.23019 19.7636 7.45206 19.9458 7.15041 20.9123C6.80831 22.0102 7.34059 24.0029 10.192 24.8706C13.5329 25.8837 16.359 24.0883 16.7598 21.7466C17.0122 20.28 16.3413 19.1904 15.112 17.789L14.1105 16.6958C13.5038 16.0976 13.2955 15.078 13.9234 14.2943C14.4532 13.6333 15.2078 13.3512 16.4437 13.6829C18.2476 14.1664 19.0517 15.4018 20.3935 16.3982C19.8395 18.1917 19.4775 19.992 19.1497 21.6063L18.9499 22.8098C17.9909 27.7753 17.2587 30.5018 15.356 32.0671C14.9727 32.3361 14.4248 32.7389 13.5988 32.767C13.1659 32.7802 13.026 32.4862 13.02 32.3581C13.0097 32.0581 13.2658 31.9206 13.436 31.7856C13.6903 31.6487 14.0748 31.4217 14.0487 30.6943C14.021 29.8348 13.2996 29.0896 12.2569 29.1237C11.4759 29.15 10.2854 29.8755 10.3301 31.2035C10.3767 32.5751 11.672 33.6031 13.625 33.538C14.6689 33.5026 17.0001 33.0832 19.2976 30.3877C21.9716 27.2977 22.7194 23.7554 23.282 21.1627L23.9099 17.7398C24.2588 17.7811 24.6318 17.8086 25.0375 17.8181C28.3679 17.8875 30.0338 16.1848 30.0585 14.9464C30.075 14.1969 29.5602 13.4594 28.8396 13.4761C28.3238 13.4905 27.6757 13.8293 27.5201 14.5335C27.3682 15.2242 28.5799 15.8476 27.6328 16.4531C26.96 16.8829 25.7538 17.1858 24.0552 16.9396L24.3641 15.2547C24.9945 12.0596 25.772 8.12943 28.7215 8.03383C28.9365 8.02305 29.7231 8.04339 29.7414 8.55676C29.7467 8.72824 29.7037 8.77194 29.5003 9.16452C29.2932 9.4706 29.2151 9.73116 29.2248 10.0306C29.2532 10.8464 29.8817 11.3825 30.7907 11.3502C32.0078 11.3113 32.3579 10.1418 32.3379 9.54117C32.2887 8.12988 30.7816 7.23835 28.7863 7.30284H28.7864Z" fill="white"/>
</svg>
