<svg width="203" height="42" viewBox="0 0 203 42" fill="none" xmlns="http://www.w3.org/2000/svg">
<path d="M82.6635 16.5886V0.0620117H88.6901C91.2374 0.0620117 93.2877 0.869704 94.9652 2.42296C96.6427 4.03834 97.4504 5.96438 97.4504 8.32532C97.4504 10.6863 96.6427 12.6123 94.9652 14.2277C93.2877 15.8431 91.2374 16.5886 88.6901 16.5886H82.6635ZM86.2049 13.2957H88.6901C90.1812 13.2957 91.3617 12.7987 92.3557 11.8667C93.3498 10.9348 93.7847 9.75432 93.7847 8.32532C93.7847 6.89633 93.2877 5.71586 92.3557 4.7839C91.3617 3.85195 90.1812 3.35491 88.6901 3.35491H86.2049V13.2957Z" fill="#161718"/>
<path d="M100.681 16.5886V0.0620117H112.983V3.35491H104.223V6.52355H111.119V9.69219H104.223V13.2336H113.232V16.5265H100.681V16.5886Z" fill="#161718"/>
<path d="M120.811 16.5888L114.661 0H118.45L122.8 12.1775H122.924L127.273 0H131.063L124.912 16.5888H120.811Z" fill="#161718"/>
<path d="M82.6635 41.6273V25.0386H89.9948C91.7344 25.0386 93.1634 25.5356 94.2196 26.5918C95.2759 27.648 95.7729 28.9528 95.7729 30.6303C95.7729 32.2457 95.2759 33.5504 94.3439 34.4824C93.9711 34.9173 93.4741 35.2279 92.9149 35.4764L96.3321 41.6273H92.4179L89.4356 36.1599H86.1427V41.6273H82.6635ZM86.2049 32.867H89.8705C90.554 32.867 91.051 32.6806 91.4859 32.2457C91.9209 31.8108 92.1072 31.3137 92.1072 30.6303C92.1072 29.9469 91.9209 29.4498 91.4859 29.0149C91.051 28.58 90.554 28.3936 89.8705 28.3936H86.2049V32.867Z" fill="#161718"/>
<path d="M99.3764 41.6273V25.0386H111.678V28.3315H102.918V31.5001H109.814V34.6688H102.918V38.2102H111.927V41.5031H99.3764V41.6273Z" fill="#161718"/>
<path d="M115.095 41.6273V25.0386H122.054C123.794 25.0386 125.223 25.5356 126.341 26.5918C127.459 27.648 127.956 28.9528 127.956 30.5682C127.956 32.1835 127.397 33.5504 126.341 34.5445C125.223 35.6007 123.794 36.0977 122.054 36.0977H118.637V41.5652H115.095V41.6273ZM118.637 32.867H121.93C122.613 32.867 123.235 32.6806 123.669 32.2457C124.104 31.8108 124.291 31.3137 124.291 30.6303C124.291 29.9469 124.104 29.4498 123.669 29.0149C123.235 28.58 122.675 28.3936 121.93 28.3936H118.637V32.867Z" fill="#161718"/>
<path d="M131.063 34.7309V25.0386H134.604V34.7309C134.604 35.9114 134.915 36.8433 135.598 37.5889C136.282 38.3344 137.152 38.6451 138.27 38.6451C139.388 38.6451 140.258 38.2723 140.942 37.5889C141.625 36.8433 141.936 35.9114 141.936 34.7309V25.0386H145.477V34.7309C145.477 36.8433 144.794 38.583 143.489 39.9498C142.122 41.3167 140.382 41.938 138.27 41.938C136.158 41.938 134.418 41.2545 133.051 39.9498C131.746 38.583 131.063 36.8433 131.063 34.7309Z" fill="#161718"/>
<path d="M149.702 41.6273V25.0386H156.66C158.276 25.0386 159.581 25.4735 160.513 26.2812C161.507 27.151 161.942 28.1451 161.942 29.3877C161.942 30.4439 161.569 31.3759 160.823 32.0593C160.45 32.3699 160.078 32.6185 159.705 32.8048C160.264 32.9912 160.761 33.2398 161.258 33.6125C162.314 34.4824 162.811 35.5386 162.811 36.8433C162.811 38.148 162.314 39.2664 161.258 40.1983C160.202 41.1303 158.835 41.5652 157.095 41.5652H149.702V41.6273ZM153.243 31.438H156.412C156.971 31.438 157.468 31.3137 157.779 31.0031C158.089 30.6924 158.276 30.3196 158.276 29.8226C158.276 29.3256 158.089 28.9528 157.779 28.6421C157.468 28.3315 156.971 28.2072 156.412 28.2072H153.243V31.438ZM153.243 38.5208H156.909C157.592 38.5208 158.152 38.3344 158.524 37.9617C158.897 37.5889 159.146 37.0918 159.146 36.4705C159.146 35.8492 158.959 35.3522 158.524 34.9794C158.152 34.6066 157.592 34.4202 156.909 34.4202H153.243V38.5208Z" fill="#161718"/>
<path d="M166.042 41.6273V25.0386H169.584V38.2723H177.288V41.5652H166.042V41.6273Z" fill="#161718"/>
<path d="M179.897 41.6273V25.0386H183.439V41.6273H179.897Z" fill="#161718"/>
<path d="M200.338 36.2838L202.699 38.6447C202.202 39.266 201.643 39.8252 200.897 40.3222C199.282 41.4406 197.48 41.9997 195.554 41.9997C193.007 41.9997 190.894 41.1299 189.155 39.4524C187.415 37.7749 186.545 35.7246 186.545 33.3636C186.545 31.0027 187.415 28.9524 189.155 27.2749C190.894 25.5974 193.007 24.7275 195.554 24.7275C197.48 24.7275 199.22 25.2867 200.773 26.4051C201.456 26.9021 202.016 27.4613 202.513 28.0826L200.152 30.4435C199.841 30.0086 199.406 29.6358 198.971 29.263C197.915 28.4554 196.797 28.0826 195.554 28.0826C194.063 28.0826 192.82 28.5796 191.764 29.6358C190.708 30.692 190.211 31.9346 190.211 33.4258C190.211 34.9169 190.708 36.1595 191.764 37.2157C192.82 38.2719 194.063 38.769 195.554 38.769C196.797 38.769 197.977 38.3962 199.095 37.5885C199.655 37.0914 200.027 36.6565 200.338 36.2838Z" fill="#161718"/>
<path d="M39.3784 0H46.421L32.0467 42H25.0526L39.3784 0Z" fill="#161718"/>
<path d="M71.4736 20.6314L50.1052 7.36829V14.7308L60.1213 20.6314H71.4736Z" fill="#F39C12"/>
<path d="M1.1595e-06 20.6313L21.3684 33.8944L21.3684 26.5319L11.3524 20.6313L1.1595e-06 20.6313Z" fill="#E74C3C"/>
<path d="M71.4736 20.6313L50.1052 33.8944V26.5319L60.1213 20.6313H71.4736Z" fill="#27AE60"/>
<path d="M-1.1595e-06 20.6314L21.3684 7.36829L21.3684 14.7308L11.3524 20.6314L-1.1595e-06 20.6314Z" fill="#3498DB"/>
</svg>
