<svg width="203" height="42" viewBox="0 0 203 42" fill="none" xmlns="http://www.w3.org/2000/svg">
<path d="M82.6635 16.5889V0.0622559H88.6901C91.2374 0.0622559 93.2877 0.869948 94.9652 2.4232C96.6427 4.03859 97.4504 5.96462 97.4504 8.32557C97.4504 10.6865 96.6427 12.6125 94.9652 14.2279C93.2877 15.8433 91.2374 16.5889 88.6901 16.5889H82.6635ZM86.2049 13.296H88.6901C90.1812 13.296 91.3617 12.7989 92.3557 11.867C93.3498 10.935 93.7847 9.75456 93.7847 8.32557C93.7847 6.89657 93.2877 5.7161 92.3557 4.78415C91.3617 3.8522 90.1812 3.35515 88.6901 3.35515H86.2049V13.296Z" fill="#161718"/>
<path d="M100.681 16.5889V0.0622559H112.983V3.35515H104.223V6.52379H111.119V9.69243H104.223V13.2339H113.232V16.5267H100.681V16.5889Z" fill="#161718"/>
<path d="M120.811 16.5888L114.661 0H118.45L122.8 12.1775H122.924L127.273 0H131.063L124.912 16.5888H120.811Z" fill="#161718"/>
<path d="M82.6635 41.6271V25.0383H89.9948C91.7344 25.0383 93.1634 25.5354 94.2196 26.5916C95.2759 27.6478 95.7729 28.9525 95.7729 30.63C95.7729 32.2454 95.2759 33.5502 94.3439 34.4821C93.9711 34.917 93.4741 35.2277 92.9149 35.4762L96.3321 41.6271H92.4179L89.4356 36.1596H86.1427V41.6271H82.6635ZM86.2049 32.8667H89.8705C90.554 32.8667 91.051 32.6803 91.4859 32.2454C91.9209 31.8105 92.1072 31.3135 92.1072 30.63C92.1072 29.9466 91.9209 29.4496 91.4859 29.0147C91.051 28.5798 90.554 28.3934 89.8705 28.3934H86.2049V32.8667Z" fill="#161718"/>
<path d="M99.3764 41.6271V25.0383H111.678V28.3312H102.918V31.4999H109.814V34.6685H102.918V38.2099H111.927V41.5028H99.3764V41.6271Z" fill="#161718"/>
<path d="M115.095 41.6271V25.0383H122.054C123.794 25.0383 125.223 25.5354 126.341 26.5916C127.459 27.6478 127.956 28.9525 127.956 30.5679C127.956 32.1833 127.397 33.5502 126.341 34.5442C125.223 35.6005 123.794 36.0975 122.054 36.0975H118.637V41.565H115.095V41.6271ZM118.637 32.8667H121.93C122.613 32.8667 123.235 32.6803 123.669 32.2454C124.104 31.8105 124.291 31.3135 124.291 30.63C124.291 29.9466 124.104 29.4496 123.669 29.0147C123.235 28.5798 122.675 28.3934 121.93 28.3934H118.637V32.8667Z" fill="#161718"/>
<path d="M131.063 34.7306V25.0383H134.604V34.7306C134.604 35.9111 134.915 36.8431 135.598 37.5886C136.282 38.3342 137.152 38.6448 138.27 38.6448C139.388 38.6448 140.258 38.2721 140.942 37.5886C141.625 36.8431 141.936 35.9111 141.936 34.7306V25.0383H145.477V34.7306C145.477 36.8431 144.794 38.5827 143.489 39.9496C142.122 41.3164 140.382 41.9377 138.27 41.9377C136.158 41.9377 134.418 41.2543 133.051 39.9496C131.746 38.5827 131.063 36.8431 131.063 34.7306Z" fill="#161718"/>
<path d="M149.702 41.6271V25.0383H156.66C158.276 25.0383 159.581 25.4732 160.513 26.2809C161.507 27.1508 161.942 28.1448 161.942 29.3874C161.942 30.4437 161.569 31.3756 160.823 32.059C160.45 32.3697 160.078 32.6182 159.705 32.8046C160.264 32.991 160.761 33.2395 161.258 33.6123C162.314 34.4821 162.811 35.5383 162.811 36.8431C162.811 38.1478 162.314 39.2661 161.258 40.1981C160.202 41.13 158.835 41.565 157.095 41.565H149.702V41.6271ZM153.243 31.4377H156.412C156.971 31.4377 157.468 31.3135 157.779 31.0028C158.089 30.6922 158.276 30.3194 158.276 29.8224C158.276 29.3253 158.089 28.9525 157.779 28.6419C157.468 28.3312 156.971 28.207 156.412 28.207H153.243V31.4377ZM153.243 38.5206H156.909C157.592 38.5206 158.152 38.3342 158.524 37.9614C158.897 37.5886 159.146 37.0916 159.146 36.4703C159.146 35.849 158.959 35.3519 158.524 34.9792C158.152 34.6064 157.592 34.42 156.909 34.42H153.243V38.5206Z" fill="#161718"/>
<path d="M166.042 41.6271V25.0383H169.584V38.2721H177.288V41.565H166.042V41.6271Z" fill="#161718"/>
<path d="M179.897 41.6271V25.0383H183.439V41.6271H179.897Z" fill="#161718"/>
<path d="M200.338 36.2838L202.699 38.6447C202.202 39.266 201.643 39.8252 200.897 40.3222C199.282 41.4406 197.48 41.9997 195.554 41.9997C193.007 41.9997 190.894 41.1299 189.155 39.4524C187.415 37.7749 186.545 35.7246 186.545 33.3636C186.545 31.0027 187.415 28.9524 189.155 27.2749C190.894 25.5974 193.007 24.7275 195.554 24.7275C197.48 24.7275 199.22 25.2867 200.773 26.4051C201.456 26.9021 202.016 27.4613 202.513 28.0826L200.152 30.4435C199.841 30.0086 199.406 29.6358 198.971 29.263C197.915 28.4554 196.797 28.0826 195.554 28.0826C194.063 28.0826 192.82 28.5796 191.764 29.6358C190.708 30.692 190.211 31.9346 190.211 33.4258C190.211 34.9169 190.708 36.1595 191.764 37.2157C192.82 38.2719 194.063 38.769 195.554 38.769C196.797 38.769 197.977 38.3962 199.095 37.5885C199.655 37.0914 200.027 36.6565 200.338 36.2838Z" fill="#161718"/>
<path d="M39.3784 0H46.421L32.0467 42H25.0526L39.3784 0Z" fill="#161718"/>
<path d="M71.4736 20.6313L50.1052 7.36816V14.7307L60.1213 20.6313H71.4736Z" fill="#F39C12"/>
<path d="M1.1595e-06 20.6311L21.3684 33.8943L21.3684 26.5318L11.3524 20.6311L1.1595e-06 20.6311Z" fill="#E74C3C"/>
<path d="M71.4736 20.6311L50.1052 33.8943V26.5318L60.1213 20.6311H71.4736Z" fill="#27AE60"/>
<path d="M-1.1595e-06 20.6313L21.3684 7.36817L21.3684 14.7307L11.3524 20.6313L-1.1595e-06 20.6313Z" fill="#3498DB"/>
</svg>
